<?xml version="1.0" encoding="UTF-8" standalone="no"?>
<svg width="24px" height="24px" viewBox="0 0 24 24" version="1.1" xmlns="http://www.w3.org/2000/svg" xmlns:xlink="http://www.w3.org/1999/xlink">
    <!-- Generator: Sketch 42 (36781) - http://www.bohemiancoding.com/sketch -->
    <title>bitbucket/branches</title>
    <desc>Created with Sketch.</desc>
    <defs></defs>
    <g id="Bitbucket" stroke="none" stroke-width="1" fill-rule="evenodd">
        <g id="bitbucket/branches" fill="currentColor">
            <g id="branches">
                <path d="M19,11 C19,9.3 17.7,8 16,8 C14.3,8 13,9.3 13,11 C13,12.3 13.8,13.4 15,13.8 L15,15 C15,16.1 14.1,17 13,17 L10.8,17 C10.5,16.1 9.8,15.5 8.9,15.2 L8.9,15 L8.9,9 L8.9,8.8 C10.2,8.4 11,7.3 11,6 C11,4.3 9.7,3 8,3 C6.3,3 5,4.3 5,6 C5,7.3 5.9,8.4 7,8.8 L7,9 L7,15 L7,15.2 C5.8,15.6 5,16.7 5,18 C5,19.7 6.3,21 8,21 C9.3,21 10.4,20.2 10.8,19 L13,19 C15.2,19 17,17.2 17,15 L17,13.8 C18.2,13.4 19,12.3 19,11 Z M8,5 C8.6,5 9,5.4 9,6 C9,6.6 8.6,7 8,7 C7.4,7 7,6.6 7,6 C7,5.4 7.5,5 8,5 Z M8,19 C7.4,19 7,18.6 7,18 C7,17.4 7.4,17 8,17 C8.6,17 9,17.4 9,18 C9,18.6 8.6,19 8,19 Z M16,12 C15.4,12 15,11.6 15,11 C15,10.4 15.4,10 16,10 C16.6,10 17,10.4 17,11 C17,11.6 16.6,12 16,12 Z" id="Shape"></path>
            </g>
        </g>
    </g>
</svg>