<?xml version="1.0" encoding="UTF-8" standalone="no"?>
<svg width="24px" height="24px" viewBox="0 0 24 24" version="1.1" xmlns="http://www.w3.org/2000/svg" xmlns:xlink="http://www.w3.org/1999/xlink">
    <!-- Generator: Sketch 42 (36781) - http://www.bohemiancoding.com/sketch -->
    <title>bitbucket/builds</title>
    <desc>Created with Sketch.</desc>
    <defs></defs>
    <g id="Bitbucket" stroke="none" stroke-width="1" fill-rule="evenodd">
        <g id="bitbucket/builds" fill-rule="nonzero" fill="currentColor">
            <g id="builds" transform="translate(3.000000, 2.000000)">
                <path d="M7,3 C7,3.55089175 7.44829165,4 7.99686968,4 L11.0031303,4 C11.5501047,4 12,3.55022012 12,3 C12,2.44910825 11.5517084,2 11.0031303,2 L7.99686968,2 C7.44989534,2 7,2.44977988 7,3 Z M5,3 C5,1.34314575 6.34739093,0 7.99686968,0 L11.0031303,0 C12.6582557,0 14,1.34651712 14,3 C14,4.65685425 12.6526091,6 11.0031303,6 L7.99686968,6 C6.34174426,6 5,4.65348288 5,3 Z" id="Rectangle-9"></path>
                <path d="M7,10 C7,10.5508917 7.44829165,11 7.99686968,11 L11.0031303,11 C11.5501047,11 12,10.5502201 12,10 C12,9.44910825 11.5517084,9 11.0031303,9 L7.99686968,9 C7.44989534,9 7,9.44977988 7,10 Z M5,10 C5,8.34314575 6.34739093,7 7.99686968,7 L11.0031303,7 C12.6582557,7 14,8.34651712 14,10 C14,11.6568542 12.6526091,13 11.0031303,13 L7.99686968,13 C6.34174426,13 5,11.6534829 5,10 Z" id="Rectangle-9-Copy"></path>
                <path d="M7,17 C7,17.5508917 7.44829165,18 7.99686968,18 L11.0031303,18 C11.5501047,18 12,17.5502201 12,17 C12,16.4491083 11.5517084,16 11.0031303,16 L7.99686968,16 C7.44989534,16 7,16.4497799 7,17 Z M5,17 C5,15.3431458 6.34739093,14 7.99686968,14 L11.0031303,14 C12.6582557,14 14,15.3465171 14,17 C14,18.6568542 12.6526091,20 11.0031303,20 L7.99686968,20 C6.34174426,20 5,18.6534829 5,17 Z" id="Rectangle-9-Copy-2"></path>
                <path d="M13.0621664,4 L15.476947,4 C16.2893597,4 16.9489939,4.65925194 16.9489939,5.46920295 L16.9489939,7.42419137 C16.9489939,8.23901883 16.2949596,8.89339431 15.474497,8.89339431 L13,8.89339431 L13,10.8933943 L15.474497,10.8933943 C17.3997626,10.8933943 18.9489939,9.34335492 18.9489939,7.42419137 L18.9489939,5.46920295 C18.9489939,3.55442281 17.3936698,2 15.476947,2 L13.0621664,2 L13.0621664,4 Z" id="Path-2"></path>
                <path d="M5.88682755,9 L3.47204695,9 C1.55532418,9 0,10.5544228 0,12.4692029 L0,14.4241914 C0,16.3433549 1.5492313,17.8933943 3.47449697,17.8933943 L5.94899394,17.8933943 L5.94899394,15.8933943 L3.47449697,15.8933943 C2.65403434,15.8933943 2,15.2390188 2,14.4241914 L2,12.4692029 C2,11.6592519 2.65963422,11 3.47204695,11 L5.88682755,11 L5.88682755,9 Z" id="Path-2-Copy"></path>
            </g>
        </g>
    </g>
</svg>