<?xml version="1.0" encoding="UTF-8" standalone="no"?>
<svg width="24px" height="24px" viewBox="0 0 24 24" version="1.1" xmlns="http://www.w3.org/2000/svg" xmlns:xlink="http://www.w3.org/1999/xlink">
    <!-- Generator: Sketch 42 (36781) - http://www.bohemiancoding.com/sketch -->
    <title>bitbucket/compare</title>
    <desc>Created with Sketch.</desc>
    <defs></defs>
    <g id="Bitbucket" stroke="none" stroke-width="1" fill-rule="evenodd">
        <g id="bitbucket/compare" fill-rule="nonzero" fill="currentColor">
            <g id="compare" transform="translate(-27.000000, 0.000000)">
                <path d="M37.0665748,16.4411124 C37.400752,17.359124 38.3731217,18.0406017 39.3469838,18.0406017 L45.5142596,18.0406017 C46.0643499,18.0406017 46.5102861,17.5967369 46.5102861,17.0406017 C46.5102861,16.4883169 46.0621895,16.0406017 45.5142596,16.0406017 L39.3469838,16.0406017 C39.2139633,16.0406017 38.991999,15.8847116 38.9458262,15.7567031 L38.1296341,13.4939092 L37.0665747,16.4411126 Z M34.9404418,10.5466925 L34.1242497,8.28389862 C34.0796331,8.16020429 33.8514092,8 33.7223268,8 L30.9975153,8 C30.4564303,8 30,7.55228475 30,7 C30,6.44386482 30.4466028,6 30.9975153,6 L33.7223268,6 C34.6920579,6 35.6707696,6.68558059 36.003501,7.59948947 L34.9404418,10.5466925 Z" id="Combined-Shape"></path>
                <path d="M46.5102861,7 C46.5102861,6.44771525 46.0621895,6 45.5142596,6 L39.3469838,6 C38.3710708,6 37.3966564,6.68435107 37.064472,7.60529224 L34.1242497,15.7567031 C34.0796331,15.8803974 33.8514092,16.0406017 33.7223268,16.0406017 L30.9975153,16.0406017 C30.4466028,16.0406017 30,16.4844665 30,17.0406017 L30,17.0406017 C30,17.5928864 30.4564303,18.0406017 30.9975153,18.0406017 L33.7223268,18.0406017 C34.6941092,18.0406017 35.6749102,17.3521175 36.0056039,16.4353094 L38.9458262,8.28389862 C38.991999,8.15589005 39.2139633,8 39.3469838,8 L45.5142596,8 C46.0643499,8 46.5102861,7.55613518 46.5102861,7 L46.5102861,7 Z" id="Path-5-Copy"></path>
                <path d="M44.2928932,8.29289322 C43.9023689,8.68341751 43.9023689,9.31658249 44.2928932,9.70710678 C44.6834175,10.0976311 45.3165825,10.0976311 45.7071068,9.70710678 L47.7029531,7.71126044 C48.0957714,7.31844215 48.103674,6.68946043 47.7029531,6.28873956 L45.7071068,4.29289322 C45.3165825,3.90236893 44.6834175,3.90236893 44.2928932,4.29289322 C43.9023689,4.68341751 43.9023689,5.31658249 44.2928932,5.70710678 L45.5857864,7 L44.2928932,8.29289322 Z" id="Path-3"></path>
                <path d="M44.2928932,18.2928932 C43.9023689,18.6834175 43.9023689,19.3165825 44.2928932,19.7071068 C44.6834175,20.0976311 45.3165825,20.0976311 45.7071068,19.7071068 L47.7029531,17.7112604 C48.0957714,17.3184421 48.103674,16.6894604 47.7029531,16.2887396 L45.7071068,14.2928932 C45.3165825,13.9023689 44.6834175,13.9023689 44.2928932,14.2928932 C43.9023689,14.6834175 43.9023689,15.3165825 44.2928932,15.7071068 L45.5857864,17 L44.2928932,18.2928932 Z" id="Path-3"></path>
            </g>
        </g>
    </g>
</svg>