<?xml version="1.0" encoding="UTF-8" standalone="no"?>
<svg width="24px" height="24px" viewBox="0 0 24 24" version="1.1" xmlns="http://www.w3.org/2000/svg" xmlns:xlink="http://www.w3.org/1999/xlink">
    <!-- Generator: Sketch 42 (36781) - http://www.bohemiancoding.com/sketch -->
    <title>bitbucket/output</title>
    <desc>Created with Sketch.</desc>
    <defs></defs>
    <g id="Bitbucket" stroke="none" stroke-width="1" fill-rule="evenodd">
        <g id="bitbucket/output" fill="currentColor">
            <g id="output">
                <path d="M2.29261363,13.2928932 C1.90246212,13.6834175 1.90246212,14.3165825 2.29261363,14.7071068 C2.68276513,15.0976311 3.31532571,15.0976311 3.70547721,14.7071068 L5.69941836,12.7112604 C6.09186168,12.3184421 6.09975671,11.6894604 5.69941836,11.2887396 L3.70547721,9.29289322 C3.31532571,8.90236893 2.68276513,8.90236893 2.29261363,9.29289322 C1.90246212,9.68341751 1.90246212,10.3165825 2.29261363,10.7071068 L3.58427268,12 L2.29261363,13.2928932 Z" id="Path-3" fill-rule="nonzero" transform="translate(4.205000, 12.000000) scale(-1, 1) translate(-4.205000, -12.000000) "></path>
                <path d="M7,15 L7,16.9941413 C7,18.1029399 7.89805351,19 9.00585866,19 L18.9941413,19 C20.1029399,19 21,18.1019465 21,16.9941413 L21,7.00585866 C21,5.89706013 20.1019465,5 18.9941413,5 L9.00585866,5 C7.89706013,5 7,5.89805351 7,7.00585866 L7,9 L9.00305214,9 C9.00384688,7.82456286 9.00478648,7 9.00585866,7 C9.00585866,7 19,7.00212593 19,7.00585866 C19,7.00585866 18.9978741,17 18.9941413,17 C18.9941413,17 9,16.9978741 9,16.9941413 C9,16.9941413 9.00017482,16.1723174 9.00051221,15 L7,15 Z" id="Combined-Shape" fill-rule="nonzero"></path>
                <rect id="Rectangle-4" x="8" y="6" width="12" height="3"></rect>
                <rect id="Rectangle-5" x="3" y="11" width="12" height="2" rx="1"></rect>
            </g>
        </g>
    </g>
</svg>