<?xml version="1.0" encoding="UTF-8" standalone="no"?>
<svg width="24px" height="24px" viewBox="0 0 24 24" version="1.1" xmlns="http://www.w3.org/2000/svg" xmlns:xlink="http://www.w3.org/1999/xlink">
    <!-- Generator: Sketch 42 (36781) - http://www.bohemiancoding.com/sketch -->
    <title>bitbucket/pipelines</title>
    <desc>Created with Sketch.</desc>
    <defs></defs>
    <g id="Bitbucket" stroke="none" stroke-width="1" fill-rule="evenodd">
        <g id="bitbucket/pipelines" fill="currentColor">
            <g id="pipelines">
                <path d="M16.4733907,7.00003156 C13.6116022,7.01003156 11.3801064,9.06303156 11.0814415,11.8470316 L10.9725637,13.0000316 C10.6948753,14.9390316 8.82697149,16.3650316 6.73032434,15.9170316 C5.44376811,15.6420316 4.38895182,14.6080316 4.09628026,13.3240316 C3.57286763,11.0330316 5.30092841,9.00003156 7.50545449,9.00003156 C7.63930429,9.00003156 7.7721552,9.00703156 7.90200948,9.02203156 C8.48435597,9.08803156 9.00676972,8.67503156 9.00676972,8.08803156 L9.00676972,7.98603156 C9.00676972,7.51203156 8.65716205,7.10003156 8.18669001,7.04203156 C7.58936034,6.96803156 6.96206429,6.99003156 6.32078393,7.12303156 C4.24111772,7.55603156 2.55700763,9.23603156 2.12349411,11.3170316 C1.38232585,14.8710316 4.07830044,18.0000316 7.50545449,18.0000316 C10.3762329,18.0000316 12.7345864,15.8030316 12.9873028,13.0000316 L13.0921851,11.7350316 C13.3199295,10.0900316 15.1488771,8.64803156 17.2395309,9.07603156 C18.5650435,9.34703156 19.6468295,10.4270316 19.9205223,11.7530316 C20.2990975,13.5840316 19.246279,15.2360316 17.6740433,15.7970316 C17.2665007,15.9420316 16.982819,16.3110316 16.982819,16.7430316 L16.982819,16.7430316 C16.982819,17.4260316 17.6560635,17.9210316 18.3003405,17.6970316 C20.749592,16.8480316 22.4127256,14.3210316 21.9102894,11.4930316 C21.4518039,8.90803156 19.0964471,6.99103156 16.4733907,7.00003156" id="Fill-1"></path>
                <path d="M7.29289322,9.29289322 C6.90236893,9.68341751 6.90236893,10.3165825 7.29289322,10.7071068 C7.68341751,11.0976311 8.31658249,11.0976311 8.70710678,10.7071068 L10.7029531,8.71126044 C11.0957714,8.31844215 11.103674,7.68946043 10.7029531,7.28873956 L8.70710678,5.29289322 C8.31658249,4.90236893 7.68341751,4.90236893 7.29289322,5.29289322 C6.90236893,5.68341751 6.90236893,6.31658249 7.29289322,6.70710678 L8.58578644,8 L7.29289322,9.29289322 Z" id="Path-3" fill-rule="nonzero" transform="translate(9.207107, 8.000000) scale(1, -1) translate(-9.207107, -8.000000) "></path>
            </g>
        </g>
    </g>
</svg>