<?xml version="1.0" encoding="UTF-8" standalone="no"?>
<svg width="24px" height="24px" viewBox="0 0 24 24" version="1.1" xmlns="http://www.w3.org/2000/svg" xmlns:xlink="http://www.w3.org/1999/xlink">
    <!-- Generator: Sketch 42 (36781) - http://www.bohemiancoding.com/sketch -->
    <title>bitbucket/repos</title>
    <desc>Created with Sketch.</desc>
    <defs></defs>
    <g id="Bitbucket" stroke="none" stroke-width="1" fill-rule="evenodd">
        <g id="bitbucket/repos" fill-rule="nonzero" fill="currentColor">
            <g id="repos">
                <path d="M12,19 C15.8659932,19 19,15.8659932 19,12 C19,8.13400675 15.8659932,5 12,5 C8.13400675,5 5,8.13400675 5,12 C5,15.8659932 8.13400675,19 12,19 Z M12,21 C7.02943725,21 3,16.9705627 3,12 C3,7.02943725 7.02943725,3 12,3 C16.9705627,3 21,7.02943725 21,12 C21,16.9705627 16.9705627,21 12,21 Z" id="Oval-2"></path>
                <path d="M13.3037889,14.3022309 C12.9121098,14.6906191 12.9121098,15.3203207 13.3037889,15.7087089 C13.6954679,16.097097 14.3305052,16.097097 14.7221842,15.7087089 L17.6768954,12.7788233 C18.1062032,12.3531225 18.1062032,11.667624 17.6858151,11.2400794 L14.7121546,8.29129112 C14.3204756,7.90290296 13.6854384,7.90290296 13.2937593,8.29129112 C12.9020802,8.67967927 12.9020802,9.30938089 13.2937593,9.69776905 L15.6205124,12.0049727 L13.3037889,14.3022309 Z" id="Stroke-1"></path>
                <path d="M10.7061747,9.69776905 C11.0979418,9.30938089 11.0979418,8.67967927 10.7061747,8.29129112 C10.3144076,7.90290296 9.67922758,7.90290296 9.28746047,8.29129112 L6.32205321,11.231122 C5.89264893,11.667624 5.89264893,12.3531225 6.32205321,12.7788233 L9.27742865,15.7087089 C9.66919576,16.097097 10.3043757,16.097097 10.6961428,15.7087089 C11.08791,15.3203207 11.08791,14.6906191 10.6961428,14.3022309 L8.37885382,12.0049283 L10.7061747,9.69776905 Z" id="Stroke-3"></path>
            </g>
        </g>
    </g>
</svg>