<?xml version="1.0" encoding="UTF-8" standalone="no"?>
<svg width="24px" height="24px" viewBox="0 0 24 24" version="1.1" xmlns="http://www.w3.org/2000/svg" xmlns:xlink="http://www.w3.org/1999/xlink">
    <!-- Generator: Sketch 42 (36781) - http://www.bohemiancoding.com/sketch -->
    <title>media-services/blur</title>
    <desc>Created with Sketch.</desc>
    <defs></defs>
    <g id="Media-services" stroke="none" stroke-width="1" fill-rule="evenodd">
        <g id="media-services/blur" fill="currentColor">
            <g id="blur">
                <path d="M3,3.99077797 C3,3.44358641 3.45097518,3 3.99077797,3 L9,3 L9,9 L3,9 L3,3.99077797 Z" id="Rectangle-11"></path>
                <rect id="Rectangle-11-Copy-3" fill-opacity="0.82" opacity="0.8" x="3" y="9" width="6" height="6"></rect>
                <path d="M3,15 L9,15 L9,21 L3.99077797,21 C3.44358641,21 3,20.5490248 3,20.009222 L3,15 Z" id="Rectangle-11-Copy-6" opacity="0.6"></path>
                <rect id="Rectangle-11-Copy" fill-opacity="0.82" opacity="0.8" x="9" y="3" width="6" height="6"></rect>
                <rect id="Rectangle-11-Copy-4" opacity="0.6" x="9" y="9" width="6" height="6"></rect>
                <rect id="Rectangle-11-Copy-7" x="9" y="15" width="6" height="6"></rect>
                <path d="M15,3 L20.009222,3 C20.5564136,3 21,3.45097518 21,3.99077797 L21,9 L15,9 L15,3 Z" id="Rectangle-11-Copy-2" opacity="0.6"></path>
                <rect id="Rectangle-11-Copy-5" x="15" y="9" width="6" height="6"></rect>
                <path d="M15,15 L21,15 L21,20.009222 C21,20.5564136 20.5490248,21 20.009222,21 L15,21 L15,15 Z" id="Rectangle-11-Copy-8" fill-opacity="0.82" opacity="0.8"></path>
            </g>
        </g>
    </g>
</svg>