<?xml version="1.0" encoding="UTF-8" standalone="no"?>
<svg width="24px" height="24px" viewBox="0 0 24 24" version="1.1" xmlns="http://www.w3.org/2000/svg" xmlns:xlink="http://www.w3.org/1999/xlink">
    <!-- Generator: Sketch 42 (36781) - http://www.bohemiancoding.com/sketch -->
    <title>media-services/brush</title>
    <desc>Created with Sketch.</desc>
    <defs></defs>
    <g id="Media-services" stroke="none" stroke-width="1" fill-rule="evenodd">
        <g id="media-services/brush" fill="currentColor">
            <g id="brush">
                <path d="M7.728,9.43209996 L8.435,8.72409996 L15.507,15.7961 L14.799,16.5031 C14.408,16.8941 13.77,16.8881 13.388,16.5061 L7.725,10.8431 C7.336,10.4541 7.335,9.82509996 7.728,9.43209996 Z M3.485,17.9171 C3.897,17.5051 6.819,14.9371 9.6,12.7191 L11.512,14.6311 C9.294,17.4121 6.726,20.3341 6.314,20.7461 C5.533,21.5271 4.266,21.5271 3.485,20.7461 C2.704,19.9651 2.704,18.6981 3.485,17.9171 Z" id="Combined-Shape"></path>
                <path d="M14.094,3.06609996 L9.142,8.01809996 L16.213,15.0891 L21.165,10.1371 C21.55,9.75209996 21.555,9.11709996 21.166,8.72809996 L21.87,9.43209996 L20.276,7.83809996 L17.385,9.67409996 L19.222,6.78409996 L18.158,5.72009996 L16.449,4.01109996 L15.405,4.58409996 L15.977,3.54009996 L15.504,3.06509996 C15.307,2.86909996 15.053,2.77209996 14.8,2.77209996 C14.544,2.77209996 14.29,2.87109996 14.094,3.06609996 Z" id="Clip-5"></path>
            </g>
        </g>
    </g>
</svg>