<?xml version="1.0" encoding="UTF-8" standalone="no"?>
<svg width="24px" height="24px" viewBox="0 0 24 24" version="1.1" xmlns="http://www.w3.org/2000/svg" xmlns:xlink="http://www.w3.org/1999/xlink">
    <!-- Generator: Sketch 42 (36781) - http://www.bohemiancoding.com/sketch -->
    <title>code</title>
    <desc>Created with Sketch.</desc>
    <defs></defs>
    <g id="File-types" stroke="none" stroke-width="1" fill-rule="evenodd">
        <g id="code">
            <g>
                <rect id="Rectangle-5" fill="currentColor" x="4" y="4" width="16" height="16" rx="2"></rect>
                <path d="M14.2928932,13.2928932 C13.9023689,13.6834175 13.9023689,14.3165825 14.2928932,14.7071068 C14.6834175,15.0976311 15.3165825,15.0976311 15.7071068,14.7071068 L17.7029531,12.7112604 C18.0957714,12.3184421 18.103674,11.6894604 17.7029531,11.2887396 L15.7071068,9.29289322 C15.3165825,8.90236893 14.6834175,8.90236893 14.2928932,9.29289322 C13.9023689,9.68341751 13.9023689,10.3165825 14.2928932,10.7071068 L15.5857864,12 L14.2928932,13.2928932 Z" id="Path-3" fill="inherit" fill-rule="nonzero"></path>
                <path d="M6.29289322,13.2928932 C5.90236893,13.6834175 5.90236893,14.3165825 6.29289322,14.7071068 C6.68341751,15.0976311 7.31658249,15.0976311 7.70710678,14.7071068 L9.70295312,12.7112604 C10.0957714,12.3184421 10.103674,11.6894604 9.70295312,11.2887396 L7.70710678,9.29289322 C7.31658249,8.90236893 6.68341751,8.90236893 6.29289322,9.29289322 C5.90236893,9.68341751 5.90236893,10.3165825 6.29289322,10.7071068 L7.58578644,12 L6.29289322,13.2928932 Z" id="Path-3-Copy" fill="inherit" fill-rule="nonzero" transform="translate(8.207107, 12.000000) scale(-1, 1) translate(-8.207107, -12.000000) "></path>
                <path d="" id="Path-3" stroke="#979797"></path>
                <path d="M12.6414408,8.67606913 C12.0954029,8.59323731 11.5856199,8.96863086 11.5017821,9.5213002 L10.7805689,14.2756293 C10.6971906,14.8252693 11.0684434,15.3374116 11.6182882,15.4208209 L11.6182882,15.4208209 C12.164326,15.5036527 12.6741091,15.1282592 12.7579469,14.5755898 L13.4791601,9.82126076 C13.5625384,9.27162071 13.1912855,8.75947844 12.6414408,8.67606913 L12.6414408,8.67606913 Z" id="Path-2" fill="inherit" fill-rule="nonzero"></path>
            </g>
        </g>
    </g>
</svg>