<?xml version="1.0" encoding="UTF-8" standalone="no"?>
<svg width="24px" height="24px" viewBox="0 0 24 24" version="1.1" xmlns="http://www.w3.org/2000/svg" xmlns:xlink="http://www.w3.org/1999/xlink">
    <!-- Generator: Sketch 41 (35326) - http://www.bohemiancoding.com/sketch -->
    <title>media-services/scale-large</title>
    <desc>Created with Sketch.</desc>
    <defs></defs>
    <g id="Page-1" stroke="none" stroke-width="1" fill-rule="evenodd">
        <g id="media-services/scale-large" fill="currentColor">
            <path d="M11.0047153,17 L16.4995642,17 C16.7692032,17 17,16.7721226 17,16.4910217 L17,14.8568418 C17,14.7031248 16.9253157,14.5178471 16.8331881,14.4165066 L14.5001453,11.8501598 C14.4102656,11.7512922 14.2538865,11.7461135 14.1558838,11.8441162 L11,15 L10.1786795,14.1786795 C10.0741577,14.0741577 9.92000248,14.0799975 9.82132053,14.1786795 L7.3559202,16.6440798 C7.16129303,16.838707 7.21983051,17 7.49100518,17 L11.0047153,17 Z M3,6.00684547 C3,4.34617863 4.34541088,3 6.00684547,3 L17.9931545,3 C19.6538214,3 21,4.34541088 21,6.00684547 L21,17.9931545 C21,19.6538214 19.6545891,21 17.9931545,21 L6.00684547,21 C4.34617863,21 3,19.6545891 3,17.9931545 L3,6.00684547 Z M5,6.00684547 L5,17.9931545 C5,18.5500512 5.45078007,19 6.00684547,19 L17.9931545,19 C18.5500512,19 19,18.5492199 19,17.9931545 L19,6.00684547 C19,5.44994876 18.5492199,5 17.9931545,5 L6.00684547,5 C5.44994876,5 5,5.45078007 5,6.00684547 Z M9,11 C10.1045695,11 11,10.1045695 11,9 C11,7.8954305 10.1045695,7 9,7 C7.8954305,7 7,7.8954305 7,9 C7,10.1045695 7.8954305,11 9,11 Z" id="Combined-Shape"></path>
        </g>
    </g>
</svg>
