<svg xmlns="http://www.w3.org/2000/svg" xmlns:xlink="http://www.w3.org/1999/xlink" viewBox="0 0 507.73 400.38"><defs><style>.cls-1{fill:url(#New_Gradient_Swatch_9);}.cls-2{fill:url(#New_Gradient_Swatch_16);}.cls-3{isolation:isolate;}.cls-19,.cls-23,.cls-24,.cls-25,.cls-26,.cls-30,.cls-34,.cls-36,.cls-4,.cls-5{fill:none;}.cls-19,.cls-23,.cls-24,.cls-25,.cls-26,.cls-34,.cls-36,.cls-4,.cls-5{stroke-linecap:round;}.cls-19,.cls-23,.cls-24,.cls-25,.cls-26,.cls-30,.cls-31,.cls-34,.cls-36,.cls-4,.cls-5{stroke-miterlimit:10;}.cls-4,.cls-5{stroke-width:2.97px;}.cls-4,.cls-5,.cls-8{opacity:0.25;}.cls-20,.cls-27,.cls-4,.cls-5{mix-blend-mode:multiply;}.cls-4{stroke:url(#linear-gradient);}.cls-5{stroke:url(#linear-gradient-2);}.cls-20,.cls-6{fill:#c1c7d0;}.cls-7{fill:#253858;}.cls-8{fill:url(#linear-gradient-3);}.cls-31,.cls-9{fill:#ffc400;}.cls-10{fill:url(#linear-gradient-4);}.cls-11{fill:#ffab00;}.cls-12{fill:#344563;}.cls-13{fill:#72594b;}.cls-14{fill:url(#linear-gradient-5);}.cls-15{fill:url(#linear-gradient-6);}.cls-16{fill:#ff991f;}.cls-17{fill:#36b37e;}.cls-18{clip-path:url(#clip-path);}.cls-19{stroke:#36b37e;}.cls-19,.cls-23,.cls-24,.cls-25,.cls-26,.cls-30,.cls-31{stroke-width:3.65px;}.cls-21{fill:#0065ff;}.cls-22{clip-path:url(#clip-path-2);}.cls-23{stroke:#79f2c0;}.cls-24,.cls-36{stroke:#0065ff;}.cls-25,.cls-31{stroke:#ffc400;}.cls-26{stroke:#57d9a3;}.cls-27{fill:#dfe1e5;}.cls-28{fill:url(#linear-gradient-7);}.cls-29{fill:#fff;}.cls-30{stroke:#b3bac5;}.cls-32{fill:#4f6079;}.cls-33{fill:#57d9a3;}.cls-34{stroke:#344563;stroke-width:3.25px;}.cls-35{fill:#172b4d;}.cls-36{stroke-width:3.88px;}</style><linearGradient id="New_Gradient_Swatch_9" x1="72.52" y1="297.24" x2="493.09" y2="297.24" gradientUnits="userSpaceOnUse"><stop offset="0" stop-color="#36b37e"/><stop offset="1" stop-color="#79f2c0"/></linearGradient><linearGradient id="New_Gradient_Swatch_16" x1="72.52" y1="200.13" x2="493.09" y2="200.13" gradientUnits="userSpaceOnUse"><stop offset="0" stop-color="#2684ff"/><stop offset="1" stop-color="#b2d4ff"/></linearGradient><linearGradient id="linear-gradient" x1="406.15" y1="357.94" x2="478.91" y2="357.94" gradientUnits="userSpaceOnUse"><stop offset="0" stop-color="#253858" stop-opacity="0.1"/><stop offset="1" stop-color="#253858"/></linearGradient><linearGradient id="linear-gradient-2" x1="436.08" y1="344.24" x2="507.73" y2="344.24" xlink:href="#linear-gradient"/><linearGradient id="linear-gradient-3" y1="305.61" x2="73.76" y2="305.61" gradientUnits="userSpaceOnUse"><stop offset="0.16" stop-color="#091e42" stop-opacity="0"/><stop offset="1" stop-color="#091e42"/></linearGradient><linearGradient id="linear-gradient-4" x1="-2342.9" y1="282.7" x2="-2313.96" y2="282.7" gradientTransform="matrix(-1, 0, 0, 1, -2293.21, 0)" gradientUnits="userSpaceOnUse"><stop offset="0" stop-color="#ffc400"/><stop offset="0.45" stop-color="#ff991f"/></linearGradient><linearGradient id="linear-gradient-5" x1="-2379.13" y1="261.09" x2="-2344.83" y2="261.09" gradientTransform="matrix(-1, 0, 0, 1, -2293.21, 0)" gradientUnits="userSpaceOnUse"><stop offset="0" stop-color="#ffe380"/><stop offset="1" stop-color="#ffab00"/></linearGradient><linearGradient id="linear-gradient-6" x1="61.83" y1="232.43" x2="79.65" y2="232.43" gradientUnits="userSpaceOnUse"><stop offset="0.55" stop-color="#ff991f"/><stop offset="1" stop-color="#ffc400"/></linearGradient><clipPath id="clip-path"><polygon id="_Clipping_Path_" data-name="&lt;Clipping Path&gt;" class="cls-1" points="282.81 395.82 72.52 297.24 282.81 198.65 493.09 297.24 282.81 395.82"/></clipPath><clipPath id="clip-path-2"><polygon id="_Clipping_Path_2" data-name="&lt;Clipping Path&gt;" class="cls-2" points="282.81 298.72 72.52 200.13 282.81 101.55 493.09 200.13 282.81 298.72"/></clipPath><linearGradient id="linear-gradient-7" x1="177.66" y1="203.73" x2="387.95" y2="-6.56" gradientUnits="userSpaceOnUse"><stop offset="0" stop-color="#c1c7d0"/><stop offset="0.36" stop-color="#dcdfe5"/><stop offset="0.75" stop-color="#f2f4f6"/><stop offset="1" stop-color="#fafbfc"/></linearGradient></defs><title>Spot Hero-Platform</title><g class="cls-3"><g id="Layer_2" data-name="Layer 2"><g id="Layer_1-2" data-name="Layer 1"><line class="cls-4" x1="407.63" y1="341.58" x2="477.43" y2="374.3"/><line class="cls-5" x1="437.56" y1="328.14" x2="506.24" y2="360.34"/><rect class="cls-6" x="91.14" y="273.12" width="2.1" height="15.06" transform="translate(241.07 25.5) rotate(48.45)"/><path class="cls-6" d="M84.11,287.15l1.72-1.62.95,1-1.72,1.62a2.47,2.47,0,1,0-.95-1Z"/><path class="cls-6" d="M100.84,273.81l-1.72,1.62-.95-1,1.72-1.62a2.47,2.47,0,1,0,.95,1Z"/><circle class="cls-7" cx="59.69" cy="236.68" r="5.03"/><ellipse class="cls-8" cx="36.88" cy="305.61" rx="36.88" ry="6.62"/><path class="cls-9" d="M47.41,270.85a44.54,44.54,0,0,0,2.22,19.65l2.87-.27c0-1,0-2.52.15-4.4.27-3.63.74-5,.86-7.83a29.93,29.93,0,0,0-.34-5.94q1.21-2.43,2.39-5c2.39-5.16,4.44-10.19,6.21-15a.94.94,0,0,0-.57-1.21l-5.68-2Z"/><path class="cls-10" d="M20.76,301.44l21.91,4.17a7,7,0,0,0,5.24-2,7.09,7.09,0,0,0,1.67-3.95,13.68,13.68,0,0,0-.46-5.53c-.08-.3-.15-.54-.19-.71-2.09-7.09-3.16-9.63-4.21-13.4-1.68-6-.87-5.72-2.08-8.86a26.18,26.18,0,0,0-9-11.41,24.59,24.59,0,0,0-2.83,4.08,16.9,16.9,0,0,0-2.09,5.23,15.16,15.16,0,0,0,.12,5.6A39.47,39.47,0,0,0,33,286.36a57,57,0,0,0,4.89,7.84c-2.73-.93-5.63-1.83-8.69-2.67q-3.49-1-6.78-1.7Z"/><path class="cls-11" d="M33.7,259.81a19.93,19.93,0,0,0-2.87,4.07c-1.26,2.36-2.84,5.34-2.08,8.94.13.61.6,4.12,3.73,5.91a26.6,26.6,0,0,0,2.79,1.43,27.54,27.54,0,0,0,4.34,1.36c4.91,1.08,12.35.53,12.84.5-1.62,1.25-3.32,2.68-5.05,4.31a71.77,71.77,0,0,0-6,6.29L51,299.23c2.45-2.35,5-5,7.6-8a124.43,124.43,0,0,0,7.86-10,6.07,6.07,0,0,0,.16-3.68,6.64,6.64,0,0,0-4.08-4.16L51.78,270l-8-2.55c-1.88-1.19-3.88-2.57-5.93-4.17C36.34,262.11,35,260.94,33.7,259.81Z"/><path class="cls-12" d="M58.19,263.44l-14.13,4.21a52.18,52.18,0,0,1-10.4-7.86,100.87,100.87,0,0,1,11.14-9.86c1.94-1.46,3.13-2.21,5.5-3.7,0,0,4.1-2.58,6.5-3.17l1.64-.4h0l3.22,7.47a4,4,0,0,1,.28,2.12l-1.15,8.14a3.63,3.63,0,0,1-2.61,3.05Z"/><path class="cls-13" d="M60.82,251.48a4.29,4.29,0,0,0,.33-2.06A9.11,9.11,0,0,1,63.66,246,8.72,8.72,0,0,1,65,245l-2.71-4-3.84,1.67,1.44,4.93a4.42,4.42,0,0,0,.94,3.89Z"/><path class="cls-7" d="M60,305.61a5.33,5.33,0,0,0-2.73-2.46c-1.93-.84-3.07,0-5.46-1.05-.67-.29-2.25-1-2.29-2.08a1.85,1.85,0,0,1,.72-1.34l-4.68-3.24a11.17,11.17,0,0,0-2.16,4.33,21.06,21.06,0,0,0-.73,5.83Z"/><path class="cls-7" d="M22,292.81a10.37,10.37,0,0,0-6.15-.8l.06,11.31a2.11,2.11,0,0,0,.5,1.64,2.05,2.05,0,0,0,1.23.64h5.22a3.89,3.89,0,0,0-.62-1c-1.07-1.26-2.36-1.08-2.83-2.14a2.33,2.33,0,0,1-.08-1.4,3.07,3.07,0,0,1,.67-1.3,4.44,4.44,0,0,1,1.16-1Z"/><path class="cls-13" d="M62.28,241.24l3.27,4.87a3.09,3.09,0,0,0,1.93,1.3h0a3.09,3.09,0,0,0,2-.27l2.62-1.32.44.76a.4.4,0,0,0,.72-.05l.84-2.1.86-.94a11.42,11.42,0,0,0,2.42-4.16h0a7.33,7.33,0,0,0-.71-6.09h0A7.33,7.33,0,0,0,71,229.77l-.46,0a3.88,3.88,0,0,0-1.52.18h0a7.33,7.33,0,0,0-5,6l-.22,1.63Z"/><path class="cls-14" d="M58.44,242.66l2,11.41,3.77,12.72A52.84,52.84,0,0,1,69.86,269c4.45,2,6.14,3.59,10.57,5.6a49.12,49.12,0,0,0,5.49,2.11l-1.62,2.86-12.2-3.64s-7.51-1.68-11.59-5.7c-4.64-4.56-6.52-10.43-7.81-14.75-.48-1.6-.79-3-1-3.89a7.73,7.73,0,0,1,6.73-8.89Z"/><path class="cls-13" d="M84.55,279.08a5,5,0,0,0,3.34,2.53,5.47,5.47,0,0,0,2.71-.6,12,12,0,0,0,3-1.73l3.08,2.32a.73.73,0,0,0,.82.05.71.71,0,0,0,.14-1.09L95,277.82a1.19,1.19,0,0,0-.75-.37l-3.59-.33-5.11-.37Z"/><path class="cls-13" d="M96,280.52,97.31,282a.76.76,0,0,1,0,1h0a.76.76,0,0,1-1,.15l-3.84-2.71-3,.1,1.25-1.82h3.1Z"/><path class="cls-13" d="M96.14,284.51a.73.73,0,0,1-1,0l-1.95-2.24-3.61-1.84.91-1.17L94.3,281l1.93,2.51A.73.73,0,0,1,96.14,284.51Z"/><path class="cls-13" d="M93.36,285a.54.54,0,0,1-.68-.25l-1.13-2.18-1.81-1.44.85-.87L93,282.1l.7,2.24A.54.54,0,0,1,93.36,285Z"/><path class="cls-7" d="M64.7,231.74c-1,1.62-.51,2.93-1.75,6.6a24.59,24.59,0,0,1-1.17,2.87,11.26,11.26,0,0,0,3.77-1.3,7.21,7.21,0,0,0,1.95-1.39c1.24-1.31,1.38-2.67,2.34-2.79a.88.88,0,0,1,.71.18c.62.64-1,2.28-.52,3.5s2.82,1.27,4,1.31c1.38,0,2.75.09,3.63-.84a4,4,0,0,0,.66-3.3c-.42-3.21-3.28-7.67-7.73-7.73A7.1,7.1,0,0,0,64.7,231.74Z"/><path class="cls-15" d="M61.83,236.2a8.91,8.91,0,1,1,17.81.91Z"/><rect class="cls-16" x="61.11" y="236.18" width="19.22" height="1.7" transform="translate(12.24 -3.31) rotate(2.94)"/><polygon class="cls-17" points="282.81 400.38 72.52 301.79 282.81 203.21 493.09 301.79 282.81 400.38"/><polygon class="cls-17" points="282.81 400.32 72.52 301.73 282.81 203.15 493.09 301.73 282.81 400.32"/><polygon class="cls-17" points="282.81 400.26 72.52 301.67 282.81 203.09 493.09 301.67 282.81 400.26"/><polygon class="cls-17" points="282.81 400.2 72.52 301.61 282.81 203.03 493.09 301.61 282.81 400.2"/><polygon class="cls-17" points="282.81 400.14 72.52 301.55 282.81 202.97 493.09 301.55 282.81 400.14"/><polygon class="cls-17" points="282.81 400.07 72.52 301.49 282.81 202.9 493.09 301.49 282.81 400.07"/><polygon class="cls-17" points="282.81 400.01 72.52 301.43 282.81 202.84 493.09 301.43 282.81 400.01"/><polygon class="cls-17" points="282.81 399.95 72.52 301.37 282.81 202.78 493.09 301.37 282.81 399.95"/><polygon class="cls-17" points="282.81 399.89 72.52 301.31 282.81 202.72 493.09 301.31 282.81 399.89"/><polygon class="cls-17" points="282.81 399.83 72.52 301.25 282.81 202.66 493.09 301.25 282.81 399.83"/><polygon class="cls-17" points="282.81 399.77 72.52 301.19 282.81 202.6 493.09 301.19 282.81 399.77"/><polygon class="cls-17" points="282.81 399.71 72.52 301.13 282.81 202.54 493.09 301.13 282.81 399.71"/><polygon class="cls-17" points="282.81 399.65 72.52 301.06 282.81 202.48 493.09 301.06 282.81 399.65"/><polygon class="cls-17" points="282.81 399.59 72.52 301 282.81 202.42 493.09 301 282.81 399.59"/><polygon class="cls-17" points="282.81 399.53 72.52 300.94 282.81 202.36 493.09 300.94 282.81 399.53"/><polygon class="cls-17" points="282.81 399.47 72.52 300.88 282.81 202.3 493.09 300.88 282.81 399.47"/><polygon class="cls-17" points="282.81 399.41 72.52 300.82 282.81 202.24 493.09 300.82 282.81 399.41"/><polygon class="cls-17" points="282.81 399.35 72.52 300.76 282.81 202.18 493.09 300.76 282.81 399.35"/><polygon class="cls-17" points="282.81 399.29 72.52 300.7 282.81 202.11 493.09 300.7 282.81 399.29"/><polygon class="cls-17" points="282.81 399.22 72.52 300.64 282.81 202.05 493.09 300.64 282.81 399.22"/><polygon class="cls-17" points="282.81 399.16 72.52 300.58 282.81 201.99 493.09 300.58 282.81 399.16"/><polygon class="cls-17" points="282.81 399.1 72.52 300.52 282.81 201.93 493.09 300.52 282.81 399.1"/><polygon class="cls-17" points="282.81 399.04 72.52 300.46 282.81 201.87 493.09 300.46 282.81 399.04"/><polygon class="cls-17" points="282.81 398.98 72.52 300.4 282.81 201.81 493.09 300.4 282.81 398.98"/><polygon class="cls-17" points="282.81 398.92 72.52 300.33 282.81 201.75 493.09 300.33 282.81 398.92"/><polygon class="cls-17" points="282.81 398.86 72.52 300.27 282.81 201.69 493.09 300.27 282.81 398.86"/><polygon class="cls-17" points="282.81 398.8 72.52 300.21 282.81 201.63 493.09 300.21 282.81 398.8"/><polygon class="cls-17" points="282.81 398.74 72.52 300.15 282.81 201.57 493.09 300.15 282.81 398.74"/><polygon class="cls-17" points="282.81 398.68 72.52 300.09 282.81 201.51 493.09 300.09 282.81 398.68"/><polygon class="cls-17" points="282.81 398.62 72.52 300.03 282.81 201.45 493.09 300.03 282.81 398.62"/><polygon class="cls-17" points="282.81 398.56 72.52 299.97 282.81 201.38 493.09 299.97 282.81 398.56"/><polygon class="cls-17" points="282.81 398.5 72.52 299.91 282.81 201.32 493.09 299.91 282.81 398.5"/><polygon class="cls-17" points="282.81 398.44 72.52 299.85 282.81 201.26 493.09 299.85 282.81 398.44"/><polygon class="cls-17" points="282.81 398.37 72.52 299.79 282.81 201.2 493.09 299.79 282.81 398.37"/><polygon class="cls-17" points="282.81 398.31 72.52 299.73 282.81 201.14 493.09 299.73 282.81 398.31"/><polygon class="cls-17" points="282.81 398.25 72.52 299.67 282.81 201.08 493.09 299.67 282.81 398.25"/><polygon class="cls-17" points="282.81 398.19 72.52 299.61 282.81 201.02 493.09 299.61 282.81 398.19"/><polygon class="cls-17" points="282.81 398.13 72.52 299.55 282.81 200.96 493.09 299.55 282.81 398.13"/><polygon class="cls-17" points="282.81 398.07 72.52 299.49 282.81 200.9 493.09 299.49 282.81 398.07"/><polygon class="cls-17" points="282.81 398.01 72.52 299.42 282.81 200.84 493.09 299.42 282.81 398.01"/><polygon class="cls-17" points="282.81 397.95 72.52 299.36 282.81 200.78 493.09 299.36 282.81 397.95"/><polygon class="cls-17" points="282.81 397.89 72.52 299.3 282.81 200.72 493.09 299.3 282.81 397.89"/><polygon class="cls-17" points="282.81 397.83 72.52 299.24 282.81 200.66 493.09 299.24 282.81 397.83"/><polygon class="cls-17" points="282.81 397.77 72.52 299.18 282.81 200.59 493.09 299.18 282.81 397.77"/><polygon class="cls-17" points="282.81 397.7 72.52 299.12 282.81 200.53 493.09 299.12 282.81 397.7"/><polygon class="cls-17" points="282.81 397.64 72.52 299.06 282.81 200.47 493.09 299.06 282.81 397.64"/><polygon class="cls-17" points="282.81 397.58 72.52 299 282.81 200.41 493.09 299 282.81 397.58"/><polygon class="cls-17" points="282.81 397.52 72.52 298.94 282.81 200.35 493.09 298.94 282.81 397.52"/><polygon class="cls-17" points="282.81 397.46 72.52 298.88 282.81 200.29 493.09 298.88 282.81 397.46"/><polygon class="cls-17" points="282.81 397.4 72.52 298.82 282.81 200.23 493.09 298.82 282.81 397.4"/><polygon class="cls-17" points="282.81 397.34 72.52 298.75 282.81 200.17 493.09 298.75 282.81 397.34"/><polygon class="cls-17" points="282.81 397.28 72.52 298.69 282.81 200.11 493.09 298.69 282.81 397.28"/><polygon class="cls-17" points="282.81 397.22 72.52 298.63 282.81 200.05 493.09 298.63 282.81 397.22"/><polygon class="cls-17" points="282.81 397.16 72.52 298.57 282.81 199.99 493.09 298.57 282.81 397.16"/><polygon class="cls-17" points="282.81 397.1 72.52 298.51 282.81 199.93 493.09 298.51 282.81 397.1"/><polygon class="cls-17" points="282.81 397.04 72.52 298.45 282.81 199.87 493.09 298.45 282.81 397.04"/><polygon class="cls-17" points="282.81 396.98 72.52 298.39 282.81 199.81 493.09 298.39 282.81 396.98"/><polygon class="cls-17" points="282.81 396.92 72.52 298.33 282.81 199.75 493.09 298.33 282.81 396.92"/><polygon class="cls-17" points="282.81 396.86 72.52 298.27 282.81 199.68 493.09 298.27 282.81 396.86"/><polygon class="cls-17" points="282.81 396.79 72.52 298.21 282.81 199.62 493.09 298.21 282.81 396.79"/><polygon class="cls-17" points="282.81 396.73 72.52 298.15 282.81 199.56 493.09 298.15 282.81 396.73"/><polygon class="cls-17" points="282.81 396.67 72.52 298.09 282.81 199.5 493.09 298.09 282.81 396.67"/><polygon class="cls-17" points="282.81 396.61 72.52 298.03 282.81 199.44 493.09 298.03 282.81 396.61"/><polygon class="cls-17" points="282.81 396.55 72.52 297.96 282.81 199.38 493.09 297.96 282.81 396.55"/><polygon class="cls-17" points="282.81 396.49 72.52 297.9 282.81 199.32 493.09 297.9 282.81 396.49"/><polygon class="cls-17" points="282.81 396.43 72.52 297.84 282.81 199.26 493.09 297.84 282.81 396.43"/><polygon class="cls-17" points="282.81 396.37 72.52 297.78 282.81 199.2 493.09 297.78 282.81 396.37"/><polygon class="cls-17" points="282.81 396.31 72.52 297.72 282.81 199.14 493.09 297.72 282.81 396.31"/><polygon class="cls-17" points="282.81 396.25 72.52 297.66 282.81 199.08 493.09 297.66 282.81 396.25"/><polygon class="cls-17" points="282.81 396.19 72.52 297.6 282.81 199.01 493.09 297.6 282.81 396.19"/><polygon class="cls-17" points="282.81 396.13 72.52 297.54 282.81 198.96 493.09 297.54 282.81 396.13"/><polygon class="cls-17" points="282.81 396.06 72.52 297.48 282.81 198.89 493.09 297.48 282.81 396.06"/><polygon class="cls-17" points="282.81 396 72.52 297.42 282.81 198.83 493.09 297.42 282.81 396"/><polygon class="cls-17" points="282.81 395.94 72.52 297.36 282.81 198.77 493.09 297.36 282.81 395.94"/><polygon class="cls-17" points="282.81 395.88 72.52 297.3 282.81 198.71 493.09 297.3 282.81 395.88"/><polygon class="cls-17" points="282.81 395.82 72.52 297.24 282.81 198.65 493.09 297.24 282.81 395.82"/><polygon id="_Clipping_Path_3" data-name="&lt;Clipping Path&gt;" class="cls-1" points="282.81 395.82 72.52 297.24 282.81 198.65 493.09 297.24 282.81 395.82"/><g class="cls-18"><line class="cls-19" x1="246.6" y1="379.63" x2="457.47" y2="280.77"/><line class="cls-19" x1="212.26" y1="363.05" x2="423.13" y2="264.19"/><line class="cls-19" x1="177.92" y1="346.47" x2="388.79" y2="247.61"/><line class="cls-19" x1="143.59" y1="329.89" x2="354.46" y2="231.03"/><line class="cls-19" x1="109.25" y1="313.31" x2="320.12" y2="214.45"/><line class="cls-19" x1="246.6" y1="214.45" x2="457.47" y2="313.31"/><line class="cls-19" x1="212.26" y1="231.03" x2="423.13" y2="329.89"/><line class="cls-19" x1="177.92" y1="247.61" x2="388.79" y2="346.47"/><line class="cls-19" x1="143.59" y1="264.19" x2="354.46" y2="363.05"/><line class="cls-19" x1="109.25" y1="280.77" x2="320.12" y2="379.63"/><polygon class="cls-20" points="284.46 331.23 73.59 232.36 284.46 133.5 495.33 232.36 284.46 331.23"/></g><polygon class="cls-21" points="282.81 303.27 72.52 204.69 282.81 106.1 493.09 204.69 282.81 303.27"/><polygon class="cls-21" points="282.81 303.21 72.52 204.63 282.81 106.04 493.09 204.63 282.81 303.21"/><polygon class="cls-21" points="282.81 303.15 72.52 204.57 282.81 105.98 493.09 204.57 282.81 303.15"/><polygon class="cls-21" points="282.81 303.09 72.52 204.51 282.81 105.92 493.09 204.51 282.81 303.09"/><polygon class="cls-21" points="282.81 303.03 72.52 204.45 282.81 105.86 493.09 204.45 282.81 303.03"/><polygon class="cls-21" points="282.81 302.97 72.52 204.38 282.81 105.8 493.09 204.38 282.81 302.97"/><polygon class="cls-21" points="282.81 302.91 72.52 204.32 282.81 105.74 493.09 204.32 282.81 302.91"/><polygon class="cls-21" points="282.81 302.85 72.52 204.26 282.81 105.68 493.09 204.26 282.81 302.85"/><polygon class="cls-21" points="282.81 302.79 72.52 204.2 282.81 105.62 493.09 204.2 282.81 302.79"/><polygon class="cls-21" points="282.81 302.73 72.52 204.14 282.81 105.56 493.09 204.14 282.81 302.73"/><polygon class="cls-21" points="282.81 302.67 72.52 204.08 282.81 105.5 493.09 204.08 282.81 302.67"/><polygon class="cls-21" points="282.81 302.61 72.52 204.02 282.81 105.44 493.09 204.02 282.81 302.61"/><polygon class="cls-21" points="282.81 302.55 72.52 203.96 282.81 105.37 493.09 203.96 282.81 302.55"/><polygon class="cls-21" points="282.81 302.49 72.52 203.9 282.81 105.31 493.09 203.9 282.81 302.49"/><polygon class="cls-21" points="282.81 302.42 72.52 203.84 282.81 105.25 493.09 203.84 282.81 302.42"/><polygon class="cls-21" points="282.81 302.36 72.52 203.78 282.81 105.19 493.09 203.78 282.81 302.36"/><polygon class="cls-21" points="282.81 302.3 72.52 203.72 282.81 105.13 493.09 203.72 282.81 302.3"/><polygon class="cls-21" points="282.81 302.24 72.52 203.66 282.81 105.07 493.09 203.66 282.81 302.24"/><polygon class="cls-21" points="282.81 302.18 72.52 203.59 282.81 105.01 493.09 203.59 282.81 302.18"/><polygon class="cls-21" points="282.81 302.12 72.52 203.53 282.81 104.95 493.09 203.53 282.81 302.12"/><polygon class="cls-21" points="282.81 302.06 72.52 203.47 282.81 104.89 493.09 203.47 282.81 302.06"/><polygon class="cls-21" points="282.81 302 72.52 203.41 282.81 104.83 493.09 203.41 282.81 302"/><polygon class="cls-21" points="282.81 301.94 72.52 203.35 282.81 104.77 493.09 203.35 282.81 301.94"/><polygon class="cls-21" points="282.81 301.88 72.52 203.29 282.81 104.71 493.09 203.29 282.81 301.88"/><polygon class="cls-21" points="282.81 301.82 72.52 203.23 282.81 104.64 493.09 203.23 282.81 301.82"/><polygon class="cls-21" points="282.81 301.75 72.52 203.17 282.81 104.58 493.09 203.17 282.81 301.75"/><polygon class="cls-21" points="282.81 301.69 72.52 203.11 282.81 104.52 493.09 203.11 282.81 301.69"/><polygon class="cls-21" points="282.81 301.63 72.52 203.05 282.81 104.46 493.09 203.05 282.81 301.63"/><polygon class="cls-21" points="282.81 301.57 72.52 202.99 282.81 104.4 493.09 202.99 282.81 301.57"/><polygon class="cls-21" points="282.81 301.51 72.52 202.93 282.81 104.34 493.09 202.93 282.81 301.51"/><polygon class="cls-21" points="282.81 301.45 72.52 202.87 282.81 104.28 493.09 202.87 282.81 301.45"/><polygon class="cls-21" points="282.81 301.39 72.52 202.81 282.81 104.22 493.09 202.81 282.81 301.39"/><polygon class="cls-21" points="282.81 301.33 72.52 202.75 282.81 104.16 493.09 202.75 282.81 301.33"/><polygon class="cls-21" points="282.81 301.27 72.52 202.68 282.81 104.1 493.09 202.68 282.81 301.27"/><polygon class="cls-21" points="282.81 301.21 72.52 202.62 282.81 104.04 493.09 202.62 282.81 301.21"/><polygon class="cls-21" points="282.81 301.15 72.52 202.56 282.81 103.98 493.09 202.56 282.81 301.15"/><polygon class="cls-21" points="282.81 301.09 72.52 202.5 282.81 103.92 493.09 202.5 282.81 301.09"/><polygon class="cls-21" points="282.81 301.03 72.52 202.44 282.81 103.86 493.09 202.44 282.81 301.03"/><polygon class="cls-21" points="282.81 300.96 72.52 202.38 282.81 103.8 493.09 202.38 282.81 300.96"/><polygon class="cls-21" points="282.81 300.9 72.52 202.32 282.81 103.73 493.09 202.32 282.81 300.9"/><polygon class="cls-21" points="282.81 300.84 72.52 202.26 282.81 103.67 493.09 202.26 282.81 300.84"/><polygon class="cls-21" points="282.81 300.78 72.52 202.2 282.81 103.61 493.09 202.2 282.81 300.78"/><polygon class="cls-21" points="282.81 300.72 72.52 202.14 282.81 103.55 493.09 202.14 282.81 300.72"/><polygon class="cls-21" points="282.81 300.66 72.52 202.08 282.81 103.49 493.09 202.08 282.81 300.66"/><polygon class="cls-21" points="282.81 300.6 72.52 202.01 282.81 103.43 493.09 202.01 282.81 300.6"/><polygon class="cls-21" points="282.81 300.54 72.52 201.96 282.81 103.37 493.09 201.96 282.81 300.54"/><polygon class="cls-21" points="282.81 300.48 72.52 201.89 282.81 103.31 493.09 201.89 282.81 300.48"/><polygon class="cls-21" points="282.81 300.42 72.52 201.83 282.81 103.25 493.09 201.83 282.81 300.42"/><polygon class="cls-21" points="282.81 300.36 72.52 201.77 282.81 103.19 493.09 201.77 282.81 300.36"/><polygon class="cls-21" points="282.81 300.3 72.52 201.71 282.81 103.13 493.09 201.71 282.81 300.3"/><polygon class="cls-21" points="282.81 300.24 72.52 201.65 282.81 103.06 493.09 201.65 282.81 300.24"/><polygon class="cls-21" points="282.81 300.18 72.52 201.59 282.81 103 493.09 201.59 282.81 300.18"/><polygon class="cls-21" points="282.81 300.12 72.52 201.53 282.81 102.94 493.09 201.53 282.81 300.12"/><polygon class="cls-21" points="282.81 300.05 72.52 201.47 282.81 102.88 493.09 201.47 282.81 300.05"/><polygon class="cls-21" points="282.81 299.99 72.52 201.41 282.81 102.82 493.09 201.41 282.81 299.99"/><polygon class="cls-21" points="282.81 299.93 72.52 201.35 282.81 102.76 493.09 201.35 282.81 299.93"/><polygon class="cls-21" points="282.81 299.87 72.52 201.29 282.81 102.7 493.09 201.29 282.81 299.87"/><polygon class="cls-21" points="282.81 299.81 72.52 201.22 282.81 102.64 493.09 201.22 282.81 299.81"/><polygon class="cls-21" points="282.81 299.75 72.52 201.16 282.81 102.58 493.09 201.16 282.81 299.75"/><polygon class="cls-21" points="282.81 299.69 72.52 201.1 282.81 102.52 493.09 201.1 282.81 299.69"/><polygon class="cls-21" points="282.81 299.63 72.52 201.04 282.81 102.46 493.09 201.04 282.81 299.63"/><polygon class="cls-21" points="282.81 299.57 72.52 200.98 282.81 102.4 493.09 200.98 282.81 299.57"/><polygon class="cls-21" points="282.81 299.51 72.52 200.92 282.81 102.34 493.09 200.92 282.81 299.51"/><polygon class="cls-21" points="282.81 299.45 72.52 200.86 282.81 102.28 493.09 200.86 282.81 299.45"/><polygon class="cls-21" points="282.81 299.39 72.52 200.8 282.81 102.22 493.09 200.8 282.81 299.39"/><polygon class="cls-21" points="282.81 299.32 72.52 200.74 282.81 102.15 493.09 200.74 282.81 299.32"/><polygon class="cls-21" points="282.81 299.26 72.52 200.68 282.81 102.09 493.09 200.68 282.81 299.26"/><polygon class="cls-21" points="282.81 299.2 72.52 200.62 282.81 102.03 493.09 200.62 282.81 299.2"/><polygon class="cls-21" points="282.81 299.14 72.52 200.56 282.81 101.97 493.09 200.56 282.81 299.14"/><polygon class="cls-21" points="282.81 299.08 72.52 200.5 282.81 101.91 493.09 200.5 282.81 299.08"/><polygon class="cls-21" points="282.81 299.02 72.52 200.44 282.81 101.85 493.09 200.44 282.81 299.02"/><polygon class="cls-21" points="282.81 298.96 72.52 200.38 282.81 101.79 493.09 200.38 282.81 298.96"/><polygon class="cls-21" points="282.81 298.9 72.52 200.31 282.81 101.73 493.09 200.31 282.81 298.9"/><polygon class="cls-21" points="282.81 298.84 72.52 200.25 282.81 101.67 493.09 200.25 282.81 298.84"/><polygon class="cls-21" points="282.81 298.78 72.52 200.19 282.81 101.61 493.09 200.19 282.81 298.78"/><polygon class="cls-21" points="282.81 298.72 72.52 200.13 282.81 101.55 493.09 200.13 282.81 298.72"/><polygon id="_Clipping_Path_4" data-name="&lt;Clipping Path&gt;" class="cls-2" points="282.81 298.72 72.52 200.13 282.81 101.55 493.09 200.13 282.81 298.72"/><g class="cls-22"><line class="cls-23" x1="354.63" y1="232.7" x2="262.62" y2="275.83"/><line class="cls-24" x1="326.64" y1="226.9" x2="242.44" y2="266.37"/><line class="cls-25" x1="369.15" y1="206.96" x2="335.07" y2="222.94"/><line class="cls-24" x1="359.33" y1="192.64" x2="222.25" y2="256.91"/><line class="cls-24" x1="359.94" y1="153.77" x2="330.79" y2="167.44"/><line class="cls-26" x1="231.92" y1="233.45" x2="202.07" y2="247.44"/><line class="cls-24" x1="293.47" y1="204.6" x2="240.86" y2="229.26"/><line class="cls-24" x1="320.45" y1="173.02" x2="181.89" y2="237.98"/><line class="cls-24" x1="276.63" y1="174.64" x2="161.7" y2="228.52"/><line class="cls-24" x1="259.41" y1="163.79" x2="141.52" y2="219.06"/><line class="cls-26" x1="148.97" y1="196.64" x2="121.34" y2="209.59"/><line class="cls-25" x1="186.43" y1="179.08" x2="159.06" y2="191.91"/><polygon class="cls-27" points="284.46 229.77 74.18 131.18 284.46 32.6 494.75 131.18 284.46 229.77"/></g><polygon class="cls-21" points="282.81 201.73 72.52 103.14 282.81 4.56 493.09 103.14 282.81 201.73"/><polygon class="cls-21" points="282.81 201.67 72.52 103.08 282.81 4.5 493.09 103.08 282.81 201.67"/><polygon class="cls-21" points="282.81 201.61 72.52 103.02 282.81 4.44 493.09 103.02 282.81 201.61"/><polygon class="cls-21" points="282.81 201.55 72.52 102.96 282.81 4.38 493.09 102.96 282.81 201.55"/><polygon class="cls-21" points="282.81 201.49 72.52 102.9 282.81 4.31 493.09 102.9 282.81 201.49"/><polygon class="cls-21" points="282.81 201.42 72.52 102.84 282.81 4.25 493.09 102.84 282.81 201.42"/><polygon class="cls-21" points="282.81 201.36 72.52 102.78 282.81 4.19 493.09 102.78 282.81 201.36"/><polygon class="cls-21" points="282.81 201.3 72.52 102.72 282.81 4.13 493.09 102.72 282.81 201.3"/><polygon class="cls-21" points="282.81 201.24 72.52 102.66 282.81 4.07 493.09 102.66 282.81 201.24"/><polygon class="cls-21" points="282.81 201.18 72.52 102.6 282.81 4.01 493.09 102.6 282.81 201.18"/><polygon class="cls-21" points="282.81 201.12 72.52 102.53 282.81 3.95 493.09 102.53 282.81 201.12"/><polygon class="cls-21" points="282.81 201.06 72.52 102.47 282.81 3.89 493.09 102.47 282.81 201.06"/><polygon class="cls-21" points="282.81 201 72.52 102.41 282.81 3.83 493.09 102.41 282.81 201"/><polygon class="cls-21" points="282.81 200.94 72.52 102.35 282.81 3.77 493.09 102.35 282.81 200.94"/><polygon class="cls-21" points="282.81 200.88 72.52 102.29 282.81 3.71 493.09 102.29 282.81 200.88"/><polygon class="cls-21" points="282.81 200.82 72.52 102.23 282.81 3.65 493.09 102.23 282.81 200.82"/><polygon class="cls-21" points="282.81 200.76 72.52 102.17 282.81 3.58 493.09 102.17 282.81 200.76"/><polygon class="cls-21" points="282.81 200.69 72.52 102.11 282.81 3.52 493.09 102.11 282.81 200.69"/><polygon class="cls-21" points="282.81 200.63 72.52 102.05 282.81 3.46 493.09 102.05 282.81 200.63"/><polygon class="cls-21" points="282.81 200.57 72.52 101.99 282.81 3.4 493.09 101.99 282.81 200.57"/><polygon class="cls-21" points="282.81 200.51 72.52 101.93 282.81 3.34 493.09 101.93 282.81 200.51"/><polygon class="cls-21" points="282.81 200.45 72.52 101.87 282.81 3.28 493.09 101.87 282.81 200.45"/><polygon class="cls-21" points="282.81 200.39 72.52 101.81 282.81 3.22 493.09 101.81 282.81 200.39"/><polygon class="cls-21" points="282.81 200.33 72.52 101.75 282.81 3.16 493.09 101.75 282.81 200.33"/><polygon class="cls-21" points="282.81 200.27 72.52 101.68 282.81 3.1 493.09 101.68 282.81 200.27"/><polygon class="cls-21" points="282.81 200.21 72.52 101.62 282.81 3.04 493.09 101.62 282.81 200.21"/><polygon class="cls-21" points="282.81 200.15 72.52 101.56 282.81 2.98 493.09 101.56 282.81 200.15"/><polygon class="cls-21" points="282.81 200.09 72.52 101.5 282.81 2.92 493.09 101.5 282.81 200.09"/><polygon class="cls-21" points="282.81 200.03 72.52 101.44 282.81 2.86 493.09 101.44 282.81 200.03"/><polygon class="cls-21" points="282.81 199.97 72.52 101.38 282.81 2.79 493.09 101.38 282.81 199.97"/><polygon class="cls-21" points="282.81 199.91 72.52 101.32 282.81 2.73 493.09 101.32 282.81 199.91"/><polygon class="cls-21" points="282.81 199.84 72.52 101.26 282.81 2.67 493.09 101.26 282.81 199.84"/><polygon class="cls-21" points="282.81 199.78 72.52 101.2 282.81 2.61 493.09 101.2 282.81 199.78"/><polygon class="cls-21" points="282.81 199.72 72.52 101.14 282.81 2.55 493.09 101.14 282.81 199.72"/><polygon class="cls-21" points="282.81 199.66 72.52 101.08 282.81 2.49 493.09 101.08 282.81 199.66"/><polygon class="cls-21" points="282.81 199.6 72.52 101.02 282.81 2.43 493.09 101.02 282.81 199.6"/><polygon class="cls-21" points="282.81 199.54 72.52 100.95 282.81 2.37 493.09 100.95 282.81 199.54"/><polygon class="cls-21" points="282.81 199.48 72.52 100.89 282.81 2.31 493.09 100.89 282.81 199.48"/><polygon class="cls-21" points="282.81 199.42 72.52 100.83 282.81 2.25 493.09 100.83 282.81 199.42"/><polygon class="cls-21" points="282.81 199.36 72.52 100.77 282.81 2.19 493.09 100.77 282.81 199.36"/><polygon class="cls-21" points="282.81 199.3 72.52 100.71 282.81 2.13 493.09 100.71 282.81 199.3"/><polygon class="cls-21" points="282.81 199.24 72.52 100.65 282.81 2.07 493.09 100.65 282.81 199.24"/><polygon class="cls-21" points="282.81 199.18 72.52 100.59 282.81 2 493.09 100.59 282.81 199.18"/><polygon class="cls-21" points="282.81 199.12 72.52 100.53 282.81 1.94 493.09 100.53 282.81 199.12"/><polygon class="cls-21" points="282.81 199.06 72.52 100.47 282.81 1.88 493.09 100.47 282.81 199.06"/><polygon class="cls-21" points="282.81 198.99 72.52 100.41 282.81 1.82 493.09 100.41 282.81 198.99"/><polygon class="cls-21" points="282.81 198.93 72.52 100.35 282.81 1.76 493.09 100.35 282.81 198.93"/><polygon class="cls-21" points="282.81 198.87 72.52 100.29 282.81 1.7 493.09 100.29 282.81 198.87"/><polygon class="cls-21" points="282.81 198.81 72.52 100.23 282.81 1.64 493.09 100.23 282.81 198.81"/><polygon class="cls-21" points="282.81 198.75 72.52 100.17 282.81 1.58 493.09 100.17 282.81 198.75"/><polygon class="cls-21" points="282.81 198.69 72.52 100.11 282.81 1.52 493.09 100.11 282.81 198.69"/><polygon class="cls-21" points="282.81 198.63 72.52 100.04 282.81 1.46 493.09 100.04 282.81 198.63"/><polygon class="cls-21" points="282.81 198.57 72.52 99.98 282.81 1.4 493.09 99.98 282.81 198.57"/><polygon class="cls-21" points="282.81 198.51 72.52 99.92 282.81 1.34 493.09 99.92 282.81 198.51"/><polygon class="cls-21" points="282.81 198.45 72.52 99.86 282.81 1.28 493.09 99.86 282.81 198.45"/><polygon class="cls-21" points="282.81 198.39 72.52 99.8 282.81 1.22 493.09 99.8 282.81 198.39"/><polygon class="cls-21" points="282.81 198.32 72.52 99.74 282.81 1.16 493.09 99.74 282.81 198.32"/><polygon class="cls-21" points="282.81 198.26 72.52 99.68 282.81 1.09 493.09 99.68 282.81 198.26"/><polygon class="cls-21" points="282.81 198.2 72.52 99.62 282.81 1.03 493.09 99.62 282.81 198.2"/><polygon class="cls-21" points="282.81 198.14 72.52 99.56 282.81 0.97 493.09 99.56 282.81 198.14"/><polygon class="cls-21" points="282.81 198.08 72.52 99.5 282.81 0.91 493.09 99.5 282.81 198.08"/><polygon class="cls-21" points="282.81 198.02 72.52 99.44 282.81 0.85 493.09 99.44 282.81 198.02"/><polygon class="cls-21" points="282.81 197.96 72.52 99.38 282.81 0.79 493.09 99.38 282.81 197.96"/><polygon class="cls-21" points="282.81 197.9 72.52 99.31 282.81 0.73 493.09 99.31 282.81 197.9"/><polygon class="cls-21" points="282.81 197.84 72.52 99.25 282.81 0.67 493.09 99.25 282.81 197.84"/><polygon class="cls-21" points="282.81 197.78 72.52 99.19 282.81 0.61 493.09 99.19 282.81 197.78"/><polygon class="cls-21" points="282.81 197.72 72.52 99.13 282.81 0.55 493.09 99.13 282.81 197.72"/><polygon class="cls-21" points="282.81 197.66 72.52 99.07 282.81 0.49 493.09 99.07 282.81 197.66"/><polygon class="cls-21" points="282.81 197.6 72.52 99.01 282.81 0.42 493.09 99.01 282.81 197.6"/><polygon class="cls-21" points="282.81 197.53 72.52 98.95 282.81 0.36 493.09 98.95 282.81 197.53"/><polygon class="cls-21" points="282.81 197.47 72.52 98.89 282.81 0.3 493.09 98.89 282.81 197.47"/><polygon class="cls-21" points="282.81 197.41 72.52 98.83 282.81 0.24 493.09 98.83 282.81 197.41"/><polygon class="cls-21" points="282.81 197.35 72.52 98.77 282.81 0.18 493.09 98.77 282.81 197.35"/><polygon class="cls-21" points="282.81 197.29 72.52 98.71 282.81 0.12 493.09 98.71 282.81 197.29"/><polygon class="cls-21" points="282.81 197.23 72.52 98.65 282.81 0.06 493.09 98.65 282.81 197.23"/><polygon class="cls-21" points="282.81 197.17 72.52 98.58 282.81 0 493.09 98.58 282.81 197.17"/><polygon class="cls-28" points="282.81 197.17 72.52 98.58 282.81 0 493.09 98.58 282.81 197.17"/><polygon class="cls-29" points="212.26 115 139.86 81.06 212.26 47.11 284.67 81.06 212.26 115"/><line class="cls-30" x1="222.59" y1="42.27" x2="284.67" y2="13.17"/><line class="cls-30" x1="233.67" y1="47.11" x2="295.74" y2="18.01"/><line class="cls-30" x1="244.74" y1="51.95" x2="306.82" y2="22.85"/><line class="cls-30" x1="255.82" y1="56.79" x2="294.08" y2="38.86"/><line class="cls-31" x1="304.49" y1="84.06" x2="366.57" y2="54.96"/><line class="cls-31" x1="315.57" y1="88.9" x2="377.64" y2="59.8"/><line class="cls-30" x1="326.64" y1="93.75" x2="388.72" y2="64.64"/><line class="cls-30" x1="337.72" y1="98.59" x2="367.39" y2="84.68"/><polygon class="cls-21" points="320.45 179.64 110.17 81.06 72.52 98.58 282.81 197.17 320.45 179.64"/><polygon class="cls-29" points="296.8 156.23 224.35 122.39 296.7 88.34 369.15 122.18 296.8 156.23"/><ellipse class="cls-9" cx="259.41" cy="121.99" rx="9.61" ry="4.54"/><ellipse class="cls-21" cx="239.12" cy="76.74" rx="12.63" ry="5.97"/><polygon class="cls-32" points="288.52 142.39 289.79 121.18 327.64 123.9 288.52 142.39"/><polygon class="cls-32" points="308.73 132.8 309.64 117.45 337.04 119.41 308.73 132.8"/><polygon class="cls-9" points="187.68 83.92 188.59 68.57 215.99 70.54 187.68 83.92"/><polygon class="cls-33" points="211.91 102.78 191.99 93.44 211.91 84.11 231.83 93.44 211.91 102.78"/><line class="cls-34" x1="423.35" y1="232.93" x2="451.77" y2="219.61"/><line class="cls-34" x1="429.63" y1="249.27" x2="458.05" y2="235.95"/><line class="cls-34" x1="435.9" y1="265.61" x2="464.33" y2="252.29"/><line class="cls-34" x1="442.18" y1="281.95" x2="470.6" y2="268.63"/><line class="cls-34" x1="448.46" y1="298.29" x2="476.88" y2="284.97"/><line class="cls-34" x1="454.73" y1="314.63" x2="483.15" y2="301.3"/><line class="cls-34" x1="461.01" y1="330.97" x2="489.43" y2="317.64"/><line class="cls-34" x1="467.29" y1="347.31" x2="495.71" y2="333.98"/><line class="cls-34" x1="473.56" y1="363.65" x2="501.98" y2="350.32"/><path class="cls-35" d="M454.39,277.46A8.29,8.29,0,0,0,458,279a9.64,9.64,0,0,0,3.27,0c-.47,2.58-1,4.65-1.34,6.06-.78,3-1.51,5.12-1.49,8.27,0,.68,0,1.23.07,1.59l-3.51.29-.63-.49-.88.59-8.91.78c-.56,0-1-.36-.86-.81h0l3.47-1.23c3.61-1.28,6.07-4.15,6.3-7.35.15-2.14.35-4.5.54-6.2Q454.19,279,454.39,277.46Z"/><line class="cls-34" x1="418.51" y1="220.33" x2="477.5" y2="373.98"/><line class="cls-34" x1="447.32" y1="208" x2="505.78" y2="360.28"/><line class="cls-36" x1="415.34" y1="199.38" x2="435.61" y2="180.84"/><path class="cls-13" d="M466,196c-.19.65.45,1.12.49,2.59A5.7,5.7,0,0,1,466,201c3.9,1.5,7.21,1.63,8.06.28a4.94,4.94,0,0,0,.28-2.6,5.63,5.63,0,0,0-.62-3C472.19,193.46,466.54,194.31,466,196Z"/><path id="_Clipping_Path_5" data-name="&lt;Clipping Path&gt;" class="cls-33" d="M478.72,225.62a11.54,11.54,0,0,0-.64-1.42,13,13,0,0,0-1-1.6c-.35.07-.91.17-1.63.25s-1.1.08-1.36.09c-1.47.09-4.32.21-12.21.26a14.84,14.84,0,0,0-1.31,1.61,14.43,14.43,0,0,0-2.43,5.9c-3.1,17-3.25,23.38-3.25,23.38q-.11,3.74-.2,7.52-.19,8-.28,15.86A9.9,9.9,0,0,0,458,279a4.65,4.65,0,0,0,2.82.08c.75-.32,1.47-1.11,2.48-6.15a35.9,35.9,0,0,0,1-7.32,28.56,28.56,0,0,0-.8-7,60.35,60.35,0,0,1,8-16.21q.5,9.79,1.12,19.76.45,7.25,1,14.4a4.5,4.5,0,0,0,3.09,1,4.41,4.41,0,0,0,2.4-.94,25.65,25.65,0,0,0,1.27-12.44,24.74,24.74,0,0,0-1.5-5.51,83.15,83.15,0,0,0,2.18-13s.84-9.73-.73-15.49C479.95,228.92,479.07,226.58,478.72,225.62Z"/><path class="cls-13" d="M430.05,192.37c.76-2.83-4.21-6.57-5.32-5.91a12.07,12.07,0,0,0-.93.94,7.46,7.46,0,0,1-.6.61,3.93,3.93,0,0,1-1.13.65c-1.27.55-2.07,2.9-1.6,3.3.31.26.93-.53,2-.49a3.41,3.41,0,0,1,2.31,1.33l1.4,1.49a3.29,3.29,0,0,0,2.63-.31A3.11,3.11,0,0,0,430.05,192.37Z"/><path id="_Clipping_Path_6" data-name="&lt;Clipping Path&gt;" class="cls-17" d="M479.71,203.38a7.42,7.42,0,0,0-2.53-2.15,7.82,7.82,0,0,0-2.26-.78,83.85,83.85,0,0,0-16.71-1.35c-3.37.13-7.67.38-12.68.89-5.4-3.48-9.44-6.07-11.47-7.54-.66-.48-2.33-1.72-3.91-1.23a2.59,2.59,0,0,0-.7.35l-1.89,2.07a2.73,2.73,0,0,0-.63,1.45c-.17,1.87,3.22,4,8.5,7.47,6.12,4.06,6.51,4.66,8.73,5.29s2.93.4,7.37.92c3.52.41,6.35.93,8.17,1.29a5.81,5.81,0,0,0-.63,2.7c0,1.54.76,2.22,1.25,3.45,1.35,3.41-1.15,5.68.19,7.45.48.63,1.91.81,4.76,1.14a76.73,76.73,0,0,0,8.81.38c3,0,3.5,0,4-.49,1.11-1,.52-2.67.53-6.31,0-.69,0-1.32.07-1.94a43.23,43.23,0,0,1,.74-5.25C480.18,206.86,480.55,204.66,479.71,203.38Z"/><path class="cls-13" d="M468,185.48a17.5,17.5,0,0,0-2.87,4.49c-.07.21-.09.3-.51.53s-1,.32-.87.63.72.72.79,1l-.59,4.31,1.73.68,5.86,2.28c-.07-.23-2.21-6.08-2.2-6.41s.08-1-.3-1.21-1-3.59-1.19-4a1.72,1.72,0,0,1,0-1.21C467.91,185.87,468,185.48,468,185.48Z"/><path class="cls-12" d="M477.76,196.57a5.87,5.87,0,0,1-4.33,2.13c-2.41-.08-4.68-2.08-4.77-3.83a12.55,12.55,0,0,0,.19-2.7c-.09-.66-.33-1.6-.69-1.63s-.63.93-.88.88-.23-1.09-.23-1.69c0-2.64-.55-2.78-.33-3.83.42-2,2.61-3.07,2.89-3.2,2.72-1.28,5.51.2,6,.44a9,9,0,0,1,4.27,9.28A7.89,7.89,0,0,1,477.76,196.57Z"/><path class="cls-12" d="M483,190.69a4.41,4.41,0,0,1-3.25,1.6c-1.81-.06-3.52-1.56-3.58-2.87a9.43,9.43,0,0,0,.14-2c-.07-.5-.25-1.2-.52-1.23s-.47.7-.66.66-.17-.82-.17-1.27c0-2-.42-2.09-.25-2.87a4,4,0,0,1,2.17-2.4,5.19,5.19,0,0,1,4.48.33,6.77,6.77,0,0,1,3.2,7A5.93,5.93,0,0,1,483,190.69Z"/><path class="cls-35" d="M473.36,273.32l.09,3.5a7.88,7.88,0,0,1-1.54,5.37,8.22,8.22,0,0,1-6.48,3v1.16l9.67,2a3.21,3.21,0,0,0,1.17,0l.14,0,1.63-.73q.26-2.33.57-4.72.64-4.91,1.42-9.55a6.66,6.66,0,0,1-6.67,0Z"/></g></g></g></svg>