<svg width="144px" height="23px" viewBox="0 0 144 23" version="1.1" xmlns="http://www.w3.org/2000/svg" xmlns:xlink="http://www.w3.org/1999/xlink">
    <!-- Generator: Sketch 40.3 (33839) - http://www.bohemiancoding.com/sketch -->
    <desc>Created with Sketch.</desc>
    <defs></defs>
    <g id="bitbucket" stroke="none" stroke-width="1" fill="none" fill-rule="evenodd">
        <g id="Group" fill="currentColor">
            <g transform="translate(31.000000, 1.000000)" id="Group-16">
                <g>
                    <g id="Group-21">
                        <path d="M42.0070576,5.5943662 C40.4599602,5.5943662 38.8960466,5.98309859 37.8198049,6.37183099 L37.8198049,0.54084507 C37.8198049,0.253521127 37.584377,0.0169014085 37.2816841,0.0169014085 L34.1538567,0.0169014085 C33.86798,0.0169014085 33.6325521,0.253521127 33.6325521,0.54084507 L33.6325521,20.6535211 C33.6325521,20.9070423 33.8175312,21.1267606 34.0697753,21.1774648 C36.0036471,21.5323944 38.2738443,21.6507042 39.652779,21.6507042 C45.5384756,21.6507042 46.7324312,19.1323944 46.7324312,15.3633803 L46.7324312,10.9690141 C46.7324312,7.38591549 45.1517013,5.5943662 42.0070576,5.5943662 L42.0070576,5.5943662 Z M39.837758,18 C39.047393,18 38.3915583,17.9661972 37.8366212,17.8985915 L37.8366212,10.0225352 C38.6942512,9.63380282 39.9050231,9.24507042 40.8803671,9.24507042 C42.0743227,9.24507042 42.5451785,9.71830986 42.5451785,10.8676056 L42.5451785,15.4816901 C42.5451785,17.1380282 42.1247716,18 39.837758,18 L39.837758,18 Z" id="Shape"></path>
                        <path d="M61.1439798,5.89859155 L58.0161525,5.89859155 C57.7302758,5.89859155 57.4948479,6.13521127 57.4948479,6.42253521 L57.4948479,16.3774648 C56.3681574,16.9521127 54.7706112,17.543662 53.8288997,17.543662 C53.1226161,17.543662 52.870372,17.2901408 52.870372,16.5802817 L52.870372,6.42253521 C52.870372,6.13521127 52.6349441,5.89859155 52.3322511,5.89859155 L49.2044238,5.89859155 C48.9017308,5.89859155 48.666303,6.13521127 48.666303,6.42253521 L48.666303,16.9859155 C48.666303,20.0788732 49.8770748,21.6507042 52.264986,21.6507042 C53.9297974,21.6507042 56.1831784,21.0760563 58.1002338,20.1802817 L58.3356617,20.9577465 C58.4029268,21.1774648 58.6047221,21.3464789 58.84015,21.3464789 L61.1607961,21.3464789 C61.4466728,21.3464789 61.6989169,21.1098592 61.6989169,20.8225352 L61.6989169,6.42253521 C61.6821006,6.13521127 61.4466728,5.89859155 61.1439798,5.89859155 L61.1439798,5.89859155 Z" id="Shape"></path>
                        <path d="M73.7561869,18.084507 C73.7393706,17.9323944 73.6552892,17.8140845 73.5375753,17.7295775 C73.4198613,17.6450704 73.2685148,17.6112676 73.1171684,17.6450704 C72.2259057,17.8478873 71.2841943,17.9661972 70.3929316,17.9661972 C68.4086111,17.9661972 67.8368577,17.4591549 67.8368577,15.7014085 L67.8368577,11.543662 C67.8368577,9.78591549 68.4086111,9.27887324 70.3929316,9.27887324 C70.8637874,9.27887324 72.0409267,9.34647887 73.1171684,9.6 C73.2685148,9.63380282 73.4198613,9.6 73.5375753,9.51549296 C73.6552892,9.43098592 73.7393706,9.29577465 73.7561869,9.16056338 L74.1261449,6.67605634 C74.1597775,6.4056338 74.008431,6.16901408 73.7561869,6.08450704 C72.545415,5.72957746 71.1328478,5.5943662 70.3088503,5.5943662 C65.5834767,5.5943662 63.6496049,7.31830986 63.6496049,11.5774648 L63.6496049,15.6676056 C63.6496049,19.9098592 65.5834767,21.6507042 70.3088503,21.6507042 C71.452357,21.6507042 72.7808428,21.4647887 73.7561869,21.1605634 C74.008431,21.0929577 74.1597775,20.8394366 74.1261449,20.5690141 L73.7561869,18.084507 L73.7561869,18.084507 Z" id="Shape"></path>
                        <path d="M95.3146528,5.5943662 C91.1105838,5.5943662 88.9076516,7.69014085 88.9076516,11.6619718 L88.9076516,15.6338028 C88.9076516,19.7408451 90.9928698,21.6507042 95.449183,21.6507042 C97.2653408,21.6507042 99.1992126,21.3295775 100.763126,20.771831 C101.01537,20.6873239 101.166717,20.4169014 101.099452,20.1633803 L100.628596,17.915493 C100.594963,17.7633803 100.510882,17.6450704 100.376352,17.5605634 C100.241822,17.4760563 100.090475,17.4591549 99.955945,17.5098592 C98.5097452,17.915493 97.1476269,18.1183099 95.7686922,18.1183099 C93.4816787,18.1183099 93.0780881,17.3746479 93.0780881,15.8197183 L93.0780881,15.2788732 L100.847208,15.2788732 C101.149901,15.2788732 101.368512,15.0422535 101.368512,14.7380282 L101.368512,11.8478873 C101.385328,7.57183099 99.468273,5.5943662 95.3146528,5.5943662 L95.3146528,5.5943662 Z M93.0949043,11.7971831 L93.0949043,11.2901408 C93.0949043,9.8028169 93.8180042,9.10985915 95.3482853,9.10985915 C97.0467292,9.10985915 97.3830547,9.93802817 97.3830547,11.2901408 L97.3830547,11.7971831 L93.0949043,11.7971831 L93.0949043,11.7971831 Z" id="Shape"></path>
                        <path d="M20.0281848,5.88169014 L16.9003575,5.88169014 C16.6144808,5.88169014 16.3622366,6.11830986 16.3622366,6.4056338 L16.3622366,20.7887324 C16.3622366,21.0760563 16.5976645,21.3295775 16.9003575,21.3295775 L20.0281848,21.3295775 C20.3308778,21.3295775 20.5663056,21.0929577 20.5663056,20.7887324 L20.5663056,6.42253521 C20.5494894,6.13521127 20.3140615,5.88169014 20.0281848,5.88169014 L20.0281848,5.88169014 Z" id="Shape"></path>
                        <path d="M20.0281848,0 L16.9003575,0 C16.6144808,0 16.3622366,0.236619718 16.3622366,0.54084507 L16.3622366,3.24507042 C16.3622366,3.54929577 16.5976645,3.78591549 16.9003575,3.78591549 L20.0281848,3.78591549 C20.3308778,3.78591549 20.5663056,3.54929577 20.5663056,3.24507042 L20.5663056,0.54084507 C20.5494894,0.236619718 20.3140615,0 20.0281848,0 L20.0281848,0 Z" id="Shape"></path>
                        <path d="M12.1413513,10.3774648 C13.4362046,9.66760563 14.007958,8.65352113 14.007958,7.11549296 L14.007958,4.98591549 C14.007958,1.89295775 12.1581676,0.388732394 8.35768921,0.388732394 L0.639018491,0.388732394 C0.353141798,0.388732394 0.117713933,0.625352113 0.117713933,0.912676056 L0.117713933,20.7887324 C0.117713933,21.0760563 0.353141798,21.3295775 0.639018491,21.3295775 L8.91262632,21.3295775 C12.5953908,21.3295775 14.7142416,19.5380282 14.7142416,16.3943662 L14.7142416,14.2140845 C14.7142416,12.3380282 13.7557138,10.9521127 12.1413513,10.3774648 L12.1413513,10.3774648 Z M4.42268061,4.03943662 L7.90364975,4.03943662 C9.4843797,4.03943662 9.70299129,4.73239437 9.70299129,5.47605634 L9.70299129,7.28450704 C9.70299129,8.46760563 9.14805418,8.95774648 7.8700172,8.95774648 L7.11328478,8.95774648 C6.81059181,8.95774648 6.57516394,9.1943662 6.57516394,9.49859155 L6.57516394,12 C6.57516394,12.3042254 6.81059181,12.5408451 7.11328478,12.5408451 L8.47540314,12.5408451 C9.8375215,12.5408451 10.3924586,13.0647887 10.3924586,14.3661972 L10.3924586,15.9042254 C10.3924586,17.2225352 9.82070523,17.6788732 8.13907762,17.6788732 L4.42268061,17.6788732 L4.42268061,4.03943662 L4.42268061,4.03943662 L4.42268061,4.03943662 Z" id="Shape"></path>
                        <path d="M31.7827618,18.2704225 C31.7659455,18.1183099 31.6818641,17.9830986 31.5641502,17.8985915 C31.4464363,17.8140845 31.2782735,17.7802817 31.1437433,17.8309859 C30.5888062,17.9661972 30.0675016,18.0507042 29.6470947,18.0507042 C28.873546,18.0507042 28.5372205,17.7126761 28.5372205,16.9521127 L28.5372205,9.34647887 L31.5809665,9.34647887 C31.8668432,9.34647887 32.102271,9.10985915 32.102271,8.8056338 L32.102271,6.42253521 C32.102271,6.13521127 31.8668432,5.89859155 31.5809665,5.89859155 L28.5372205,5.89859155 L28.5372205,2.23098592 C28.5372205,2.07887324 28.4699554,1.92676056 28.3522415,1.82535211 C28.2345275,1.72394366 28.083181,1.67323944 27.9318346,1.70704225 L24.8040072,2.14647887 C24.5349468,2.18028169 24.3499678,2.41690141 24.3499678,2.67042254 L24.3499678,5.89859155 L22.6515239,5.89859155 C22.3656472,5.89859155 22.113403,6.13521127 22.113403,6.42253521 L22.113403,8.8056338 C22.113403,9.09295775 22.3488309,9.34647887 22.6515239,9.34647887 L24.3499678,9.34647887 L24.3499678,17.4591549 C24.3499678,20.2478873 25.7961675,21.6507042 28.6717507,21.6507042 C29.4957482,21.6507042 30.8746829,21.4647887 31.7827618,21.143662 C32.0350059,21.0591549 32.1695361,20.8225352 32.1359036,20.5521127 L31.7827618,18.2704225 L31.7827618,18.2704225 Z" id="Shape"></path>
                        <path d="M111.710522,18.2704225 C111.693706,18.1183099 111.609624,17.9830986 111.475094,17.8985915 C111.35738,17.8140845 111.189217,17.7802817 111.054687,17.8309859 C110.49975,17.9661972 109.978446,18.0507042 109.558039,18.0507042 C108.78449,18.0507042 108.431348,17.7126761 108.431348,16.9521127 L108.431348,9.34647887 L111.475094,9.34647887 C111.777787,9.34647887 111.996399,9.10985915 111.996399,8.82253521 L111.996399,6.42253521 C111.996399,6.13521127 111.760971,5.89859155 111.475094,5.89859155 L108.431348,5.89859155 L108.431348,2.23098592 C108.431348,2.07887324 108.364083,1.92676056 108.246369,1.82535211 C108.128655,1.72394366 107.977309,1.67323944 107.825962,1.70704225 L104.698135,2.14647887 C104.429074,2.18028169 104.244095,2.41690141 104.244095,2.67042254 L104.244095,5.89859155 L102.545651,5.89859155 C102.259775,5.89859155 102.024347,6.13521127 102.024347,6.42253521 L102.024347,8.8056338 C102.024347,9.09295775 102.259775,9.32957746 102.545651,9.32957746 L104.244095,9.32957746 L104.244095,17.4422535 C104.244095,20.2309859 105.707111,21.6338028 108.565878,21.6338028 C109.389876,21.6338028 110.76881,21.4478873 111.676889,21.1267606 C111.912317,21.0422535 112.063664,20.8056338 112.030031,20.5352113 L111.710522,18.2704225 L111.710522,18.2704225 Z" id="Shape"></path>
                        <path d="M88.4199796,20.4507042 L84.2327268,13.5042254 L88.2686331,6.67605634 C88.3695308,6.50704225 88.3695308,6.30422535 88.2686331,6.13521127 C88.1677354,5.96619718 87.9995727,5.86478873 87.8145937,5.86478873 L84.3504408,5.86478873 C84.1654617,5.86478873 83.9804827,5.96619718 83.8964013,6.13521127 L80.0622904,12.828169 L80.0622904,0.54084507 C80.0622904,0.253521127 79.8268625,1.77635684e-15 79.5241695,1.77635684e-15 L76.3963422,1.77635684e-15 C76.1104655,1.77635684e-15 75.8582214,0.236619718 75.8582214,0.54084507 L75.8582214,20.8056338 C75.8582214,21.0929577 76.0936492,21.3295775 76.3963422,21.3295775 L79.5241695,21.3295775 C79.8100462,21.3295775 80.0622904,21.0929577 80.0622904,20.8056338 L80.0622904,14.1802817 L84.1486455,21.0591549 C84.2495431,21.228169 84.4177059,21.3126761 84.6026849,21.3126761 L87.9995727,21.3126761 L87.9995727,21.3126761 C88.2854494,21.3126761 88.5376935,21.0760563 88.5376935,20.7887324 C88.5208772,20.6535211 88.4872447,20.5352113 88.4199796,20.4507042 L88.4199796,20.4507042 Z" id="Shape"></path>
                    </g>
                </g>
            </g>
            <g id="Group-4">
                <path d="M9.80148663,0.0804828974 L9.80148663,0.0804828974 L9.80148663,0.0804828974 C4.40426278,0.0804828974 0,1.54527163 0,3.34808853 C0,3.83098592 1.16913157,10.6559356 1.64959661,13.3762575 C1.85779812,14.5995976 4.98082082,16.3702213 9.80148663,16.3702213 L9.80148663,16.3541247 L9.80148663,16.3702213 C14.6221524,16.3702213 17.7451751,14.583501 17.9533766,13.3762575 C18.4178262,10.6720322 19.6029733,3.83098592 19.6029733,3.34808853 C19.5869577,1.54527163 15.182695,0.0804828974 9.80148663,0.0804828974 L9.80148663,0.0804828974 Z M9.80148663,14.1810865 C8.08782802,14.1810865 6.69447943,12.7806841 6.69447943,11.0583501 C6.69447943,9.3360161 8.08782802,7.93561368 9.80148663,7.93561368 C11.5151452,7.93561368 12.9084938,9.3360161 12.9084938,11.0583501 C12.9084938,12.7806841 11.5151452,14.1810865 9.80148663,14.1810865 L9.80148663,14.1810865 Z M9.80148663,4.36217304 C6.3421384,4.36217304 3.52341022,3.75050302 3.52341022,3.01006036 C3.52341022,2.26961771 6.3421384,1.67404427 9.80148663,1.67404427 C13.2608348,1.67404427 16.079563,2.28571429 16.079563,3.02615694 C16.0635475,3.7665996 13.2608348,4.36217304 9.80148663,4.36217304 L9.80148663,4.36217304 Z" id="Shape"></path>
                <path d="M16.8322916,16.0965795 C16.6881521,16.0965795 16.5600281,16.2092555 16.5600281,16.2092555 C16.5600281,16.2092555 14.1416874,18.1247485 9.78547112,18.1247485 C5.42925485,18.1247485 3.01091419,16.2092555 3.01091419,16.2092555 C3.01091419,16.2092555 2.89880568,16.0965795 2.73865067,16.0965795 C2.56248016,16.0965795 2.38630965,16.2092555 2.38630965,16.4828974 L2.38630965,16.5633803 C2.75466618,18.5754527 3.02692969,20.0080483 3.0749762,20.2173038 C3.39528622,21.6981891 6.2780764,22.8249497 9.75344012,22.8249497 L9.75344012,22.8249497 L9.75344012,22.8249497 L9.75344012,22.8249497 L9.75344012,22.8249497 C13.2288038,22.8249497 16.111594,21.7142857 16.431904,20.2173038 C16.4799506,19.9919517 16.7522141,18.5754527 17.1205706,16.5633803 L17.1205706,16.4828974 C17.1846326,16.2092555 17.0084621,16.0965795 16.8322916,16.0965795 L16.8322916,16.0965795 Z" id="Shape"></path>
                <ellipse id="Oval" cx="9.80148663" cy="11.0422535" rx="1.5535036" ry="1.56136821"></ellipse>
            </g>
        </g>
    </g>
</svg>
