<?xml version="1.0" encoding="UTF-8" standalone="no"?>
<svg width="24px" height="24px" viewBox="0 0 24 24" version="1.1" xmlns="http://www.w3.org/2000/svg" xmlns:xlink="http://www.w3.org/1999/xlink">
    <!-- Generator: Sketch 42 (36781) - http://www.bohemiancoding.com/sketch -->
    <title>hipchat/chevron-double-up</title>
    <desc>Created with Sketch.</desc>
    <defs></defs>
    <g id="HipChat" stroke="none" stroke-width="1" fill-rule="evenodd">
        <g id="hipchat/chevron-double-up" fill-rule="nonzero" fill="currentColor">
            <g id="chevron-double-up">
                <path d="M16.2784747,11.7049889 C16.6722974,12.098337 17.3108102,12.098337 17.704633,11.7049889 C18.0984557,11.3116408 18.0984557,10.6738975 17.704633,10.2805494 L12.7130791,5.29501108 C12.3192564,4.90166297 11.6807436,4.90166297 11.2869209,5.29501108 L6.29536704,10.2805494 C5.90154432,10.6738975 5.90154432,11.3116408 6.29536704,11.7049889 C6.68918977,12.098337 7.32770256,12.098337 7.72152528,11.7049889 L12,7.43167036 L16.2784747,11.7049889 Z" id="Path-3"></path>
                <path d="M16.2784747,18.7049889 C16.6722974,19.098337 17.3108102,19.098337 17.704633,18.7049889 C18.0984557,18.3116408 18.0984557,17.6738975 17.704633,17.2805494 L12.7130791,12.2950111 C12.3192564,11.901663 11.6807436,11.901663 11.2869209,12.2950111 L6.29536704,17.2805494 C5.90154432,17.6738975 5.90154432,18.3116408 6.29536704,18.7049889 C6.68918977,19.098337 7.32770256,19.098337 7.72152528,18.7049889 L12,14.4316704 L16.2784747,18.7049889 Z" id="Path-3-Copy" fill-opacity="0.89"></path>
            </g>
        </g>
    </g>
</svg>