<?xml version="1.0" encoding="UTF-8" standalone="no"?>
<svg width="24px" height="24px" viewBox="0 0 24 24" version="1.1" xmlns="http://www.w3.org/2000/svg" xmlns:xlink="http://www.w3.org/1999/xlink">
    <!-- Generator: Sketch 42 (36781) - http://www.bohemiancoding.com/sketch -->
    <title>hipchat/chevron-double-down</title>
    <desc>Created with Sketch.</desc>
    <g id="HipChat" stroke="none" stroke-width="1" fill-rule="evenodd">
        <g id="hipchat/chevron-double-down">
            <g id="chevron-double-down">
                <path d="M16.278,5.295 L12,9.568 L7.721,5.295 C7.328,4.902 6.689,4.902 6.296,5.295 C5.901,5.689 5.901,6.326 6.296,6.719 L11.287,11.705 C11.681,12.098 12.319,12.098 12.713,11.705 L17.705,6.719 C18.098,6.326 18.098,5.689 17.705,5.295 C17.508,5.099 17.249,5 16.991,5 C16.734,5 16.475,5.099 16.278,5.295 Z" id="Clip-5" fill="currentColor"></path>
                <path d="M16.278,12.295 L12,16.569 L7.721,12.295 C7.328,11.901 6.689,11.901 6.296,12.295 C5.901,12.689 5.901,13.326 6.296,13.719 L11.287,18.705 C11.681,19.099 12.319,19.099 12.713,18.705 L17.705,13.719 C18.098,13.326 18.098,12.689 17.705,12.295 C17.508,12.098 17.249,11.999 16.991,11.999 C16.734,11.999 16.475,12.098 16.278,12.295 Z" id="path-1" fill="currentColor"></path>
            </g>
        </g>
    </g>
</svg>