<?xml version="1.0" encoding="UTF-8" standalone="no"?>
<svg width="24px" height="24px" viewBox="0 0 24 24" version="1.1" xmlns="http://www.w3.org/2000/svg" xmlns:xlink="http://www.w3.org/1999/xlink">
    <!-- Generator: Sketch 42 (36781) - http://www.bohemiancoding.com/sketch -->
    <title>hipchat/media-uploader</title>
    <desc>Created with Sketch.</desc>
    <defs></defs>
    <g id="HipChat" stroke="none" stroke-width="1" fill-rule="evenodd">
        <g id="hipchat/media-uploader" fill="currentColor">
            <g id="media-uploader">
                <path d="M10.6870401,9.29174159 C10.3012436,8.90289109 9.67558648,8.9027326 9.28959589,9.29138761 C8.9036053,9.68004261 8.90344798,10.3103354 9.28924451,10.6991859 L11.2536714,12.6791632 C11.6782782,13.1069161 12.3671764,13.1069161 12.7916075,12.6793402 L14.7105798,10.7461497 C15.0964734,10.3573969 15.0964734,9.72710414 14.7105798,9.33835137 C14.3246863,8.9495986 13.6990292,8.9495986 13.3131356,9.33835137 L12.0228853,10.6381615 L10.6870401,9.29174159 Z" id="Stroke-1" fill-rule="nonzero" transform="translate(12.000000, 11.000000) scale(1, -1) translate(-12.000000, -11.000000) "></path>
                <path d="M13.001,19.9934405 L13,10.0063567 C12.9999443,9.45050521 12.552184,8.99994398 11.9998992,9 C11.4476145,9.00005602 10.9999443,9.45070807 11,10.0065595 L11.001,19.9936433 C11.0010557,20.5494948 11.448816,21.000056 12.0011008,21 C12.5533855,20.999944 13.0010556,20.5492919 13.001,19.9934405 Z" id="Stroke-3" fill-rule="nonzero" transform="translate(12.000500, 15.000000) scale(1, -1) translate(-12.000500, -15.000000) "></path>
                <path d="M16.839,5.41785742 C16.578,5.41785742 16.318,5.43894338 16.062,5.48011122 C14.925,3.90067197 12.999,3.02108597 11.024,3 C8.191,3.03915965 5.845,4.88367962 5.138,7.590716 C3.312,8.00139028 2,9.6651734 2,11.6653279 C2,13.9546613 3.895,16 6.055,16 L10.019,16 L10.019,14.0068742 L6.055,14.0068742 C4.972,14.0068742 3.985,12.8712443 3.985,11.6653279 C3.985,10.465436 4.825,9.5075307 5.961,9.5075307 L6.215,9.5075307 C6.226,9.5075307 6.225,9.50150614 6.238,9.50150614 C6.832,9.50150614 6.903,8.97736927 6.903,8.97736927 L6.949,8.63698154 C7.221,6.54043408 8.936,5.027265 11.018,4.99312582 C12.533,5.01621997 14.004,5.76527381 14.734,7.11176334 L14.884,7.37885224 C14.884,7.37885224 15.154,7.8728663 15.759,7.62485518 L15.759,7.62485518 L15.929,7.56260137 C16.213,7.46319611 16.51,7.41198733 16.899,7.41198733 L16.911,7.41198733 C18.546,7.41198733 20.015,8.72032131 20.015,10.4985711 C20.015,12.3440952 18.557,14.0068742 16.9,14.0068742 L14.019,14.0068742 L14.019,16 L16.9,16 C19.615,16 22,13.4074303 22,10.4985711 C22,7.61983471 19.644,5.41886151 16.839,5.41785742" id="Fill-5"></path>
            </g>
        </g>
    </g>
</svg>