<?xml version="1.0" encoding="UTF-8" standalone="no"?>
<svg width="24px" height="24px" viewBox="0 0 24 24" version="1.1" xmlns="http://www.w3.org/2000/svg" xmlns:xlink="http://www.w3.org/1999/xlink">
    <!-- Generator: Sketch 41.2 (35397) - http://www.bohemiancoding.com/sketch -->
    <title>app-switcher</title>
    <desc>Created with Sketch.</desc>
    <defs></defs>
    <g id="Global" stroke="none" stroke-width="1" fill-rule="evenodd">
        <g id="app-switcher" fill="currentColor">
            <g>
                <path d="M8,18.0059397 C8,17.9985408 15.9914698,18 15.9914698,18 C15.9980491,18 16,5.99406028 16,5.99406028 C16,6.0014592 8.0085302,6 8.0085302,6 C8.00195089,6 8,18.0059397 8,18.0059397 Z M6,5.99406028 C6,4.8927712 6.90195036,4 8.0085302,4 L15.9914698,4 C17.1007504,4 18,4.89451376 18,5.99406028 L18,18.0059397 C18,19.1072288 17.0980496,20 15.9914698,20 L8.0085302,20 C6.8992496,20 6,19.1054862 6,18.0059397 L6,5.99406028 Z" id="Rectangle-43"></path>
                <path d="M5,6 L4.5,6 C3.12912618,6 2,7.11764104 2,8.50043583 L2,15.4995642 C2,16.871589 3.11703011,18 4.5,18 L5,18 L5,6 Z M4,8.50043583 L4,15.4995642 C4,15.7692032 4.22385763,16 4.5,16 L5,16 L5,8 L4.5,8 C4.23193359,8 4,8.22405275 4,8.50043583 Z" id="Combined-Shape"></path>
                <path d="M19,6 L19.5,6 C20.8829699,6 22,7.12841096 22,8.50043583 L22,15.4995642 C22,16.882359 20.8708738,18 19.5,18 L19,18 L19,6 Z M19,8 L19,16 L19.5,16 C19.7680664,16 20,15.7759472 20,15.4995642 L20,8.50043583 C20,8.23079681 19.7761424,8 19.5,8 L19,8 Z" id="Combined-Shape"></path>
            </g>
        </g>
    </g>
</svg>