<?xml version="1.0" encoding="UTF-8" standalone="no"?>
<svg width="24px" height="24px" viewBox="0 0 24 24" version="1.1" xmlns="http://www.w3.org/2000/svg" xmlns:xlink="http://www.w3.org/1999/xlink">
    <!-- Generator: Sketch 41.2 (35397) - http://www.bohemiancoding.com/sketch -->
    <title>arrow-right-long</title>
    <desc>Created with Sketch.</desc>
    <defs></defs>
    <g id="Global" stroke="none" stroke-width="1" fill-rule="evenodd">
        <g id="arrow-right-long" fill="currentColor">
            <path d="M13.0004702,15.5086003 L14.2166939,14.3032393 C14.6239874,13.8987742 15.2858394,13.8987742 15.69384,14.3039464 C16.1011335,14.7069972 16.1018406,15.361071 15.6973755,15.7655361 L15.6945471,15.7683645 L12.7388407,18.6972008 C12.3308401,19.1009588 11.6689882,19.1009588 11.2609876,18.6972008 L8.30528122,15.7683645 C7.89869482,15.3631923 7.89798771,14.7077044 8.30598833,14.3039464 C8.71398894,13.8987742 9.37584089,13.8987742 9.78313439,14.3032393 L10.9993581,15.5086003 L10.9993581,6.00039145 C11.0000652,5.44814105 11.4483709,4.99983536 11.9999142,4.99983536 C12.5514574,4.99983536 12.9997631,5.44814105 13.0004702,6.00039145 L13.0004702,15.5086003 Z" id="Combined-Shape" transform="translate(12.000092, 11.999927) rotate(-90.000000) translate(-12.000092, -11.999927) "></path>
        </g>
    </g>
</svg>
