<?xml version="1.0" encoding="UTF-8" standalone="no"?>
<svg width="24px" height="24px" viewBox="0 0 24 24" version="1.1" xmlns="http://www.w3.org/2000/svg" xmlns:xlink="http://www.w3.org/1999/xlink">
    <!-- Generator: Sketch 42 (36781) - http://www.bohemiancoding.com/sketch -->
    <title>atlassian</title>
    <desc>Created with Sketch.</desc>
    <defs></defs>
    <g id="Global" stroke="none" stroke-width="1" fill-rule="evenodd">
        <g id="atlassian" fill="currentColor">
            <g transform="translate(3.000000, 4.000000)">
                <g>
                    <path d="M17.4024348,0.21522408 C17.3250033,0.111143813 17.2011237,0.0491237458 17.0717324,0.0491237458 C17.0048428,0.0491237458 16.9388094,0.0659264214 16.8811237,0.0975518395 C14.454903,1.42571237 11.6423813,2.12805351 8.74755853,2.12885619 C5.85273579,2.12805351 3.04021405,1.42576589 0.614100334,0.0977123746 C0.556307692,0.0659799331 0.490381271,0.0492307692 0.423491639,0.0492307692 C0.293832776,0.0492307692 0.170167224,0.111197324 0.092735786,0.214849498 C-0.0221003344,0.367571906 -0.0257391304,0.62367893 0.169899666,0.776454849 C1.38498997,1.68235452 2.72444147,2.38951171 4.15106355,2.87320401 C5.62985953,3.37492977 7.17613378,3.62964548 8.74691639,3.63039465 L8.74804013,3.63039465 C10.3190368,3.62964548 11.865311,3.37487625 13.343893,2.87320401 C14.7707291,2.38940468 16.1101271,1.68235452 17.3267692,0.775331104 C17.5208562,0.62367893 17.5170569,0.367464883 17.4024348,0.21522408" id="Fill-13"></path>
                    <path d="M14.6141538,3.99839465 C14.5563612,3.95440803 14.486903,3.93171906 14.4164281,3.93171906 C14.3773645,3.93171906 14.3378194,3.9387291 14.3004147,3.95312375 C13.5971639,4.22212709 12.8829967,4.42632776 12.2313311,4.57808696 C12.098301,4.60923077 11.9909565,4.70785284 11.9464348,4.82643478 C11.4715184,6.12719732 10.2589431,7.36572575 8.98664883,8.66317057 C8.93565217,8.71165217 8.86416054,8.77559866 8.74766555,8.77559866 C8.63165217,8.77559866 8.56064214,8.71373913 8.50873579,8.66317057 C7.23654849,7.36572575 6.02402676,6.13158528 5.54900334,4.8306087 C5.50448161,4.7122408 5.39708361,4.61345819 5.26426756,4.58236789 C4.6121204,4.43050167 3.8962408,4.2198796 3.19395318,3.95103679 C3.15617391,3.93669565 3.11673579,3.92963211 3.07751171,3.92963211 C3.00714381,3.92963211 2.9389699,3.95183946 2.88128428,3.99577258 C2.79117057,4.06448161 2.74445485,4.176 2.75505017,4.28318395 C2.86282274,5.36481605 3.29022074,6.42231438 4.06159197,7.53043478 C4.78667559,8.57225418 5.73244147,9.53658863 6.64679599,10.4691906 C8.33155853,12.1876656 9.92310368,13.8107291 10.0628763,15.6927893 C10.075398,15.8624214 10.2167224,15.9941137 10.3873712,15.9941137 L12.3667692,15.9941137 C12.4559197,15.9941137 12.5411104,15.9574047 12.6025953,15.8928161 C12.6640268,15.8282274 12.6964548,15.7416455 12.6919599,15.6524415 C12.6297258,14.3941672 12.1560936,13.1340736 11.2443077,11.8005619 C11.0531639,11.5209097 10.8484816,11.2489632 10.6344348,10.9826355 C10.5475853,10.8742742 10.5839732,10.7395318 10.6504348,10.6717324 C10.7162007,10.6042542 10.7822341,10.537204 10.8485886,10.4691906 C11.7631037,9.53648161 12.7087625,8.57225418 13.4340067,7.53043478 C14.2052174,6.42215385 14.6325619,5.37091639 14.7403344,4.28933779 C14.7510903,4.18070903 14.7017525,4.06533779 14.6141538,3.99839465" id="Fill-14"></path>
                    <path d="M6.62357191,11.9331104 C6.57674916,11.8841472 6.50798662,11.8341137 6.39250836,11.8341137 C6.24481605,11.8341137 6.15711037,11.9363211 6.12393311,11.9869431 C5.29139799,13.2538328 4.86143144,14.4496054 4.80192642,15.6512642 C4.79764548,15.7398796 4.83023411,15.8278528 4.89161204,15.8926555 C4.95309699,15.9569766 5.03946488,15.9941137 5.12840134,15.9941137 L7.10448161,15.9941137 C7.27448829,15.9941137 7.41768562,15.8609766 7.43010033,15.6914515 C7.47317726,15.1123478 7.65345819,14.5317993 7.98175251,13.9217124 C8.09557191,13.7106622 8.00717057,13.5124013 7.94161873,13.4276923 C7.61583946,13.0041472 7.21701672,12.5523478 6.62357191,11.9331104" id="Fill-15"></path>
                    <path d="M8.74953846,4.96808027 C9.36984615,4.96808027 9.72965886,4.93083612 9.856,4.93083612 C10.0091505,4.93083612 10.1554515,5.05626756 10.1554515,5.23189298 C10.1554515,5.28310368 10.1433579,5.31981271 10.1314247,5.35213378 C10.0489632,5.57217391 9.6740602,6.36345151 8.97610702,7.04224749 C8.89771237,7.11834114 8.80898997,7.13262876 8.74793311,7.13262876 L8.74713043,7.13262876 C8.68607358,7.13262876 8.59745819,7.11834114 8.51917057,7.04224749 C7.82111037,6.36345151 7.44610033,5.57217391 7.36395987,5.35213378 C7.3517592,5.31981271 7.33971906,5.28310368 7.33971906,5.23189298 C7.33971906,5.05626756 7.48623411,4.93083612 7.63938462,4.93083612 C7.76572575,4.93083612 8.12537793,4.96808027 8.74547157,4.96808027 L8.74953846,4.96808027" id="Fill-16"></path>
                </g>
            </g>
        </g>
    </g>
</svg>