<?xml version="1.0" encoding="UTF-8" standalone="no"?>
<svg width="24px" height="24px" viewBox="0 0 24 24" version="1.1" xmlns="http://www.w3.org/2000/svg" xmlns:xlink="http://www.w3.org/1999/xlink">
    <!-- Generator: Sketch 42 (36781) - http://www.bohemiancoding.com/sketch -->
    <title>billing</title>
    <desc>Created with Sketch.</desc>
    <defs></defs>
    <g id="Global" stroke="none" stroke-width="1" fill-rule="evenodd">
        <g id="billing" fill="currentColor">
            <g transform="translate(5.000000, 2.000000)">
                <path d="M2,2 L2,18 L12,18 L12,2 L2,2 Z M0,1.99079514 C0,0.891309342 0.897060126,0 2.00585866,0 L11.9941413,0 C13.1019465,0 14,0.898212381 14,1.99079514 L14,18.0092049 C14,19.1086907 13.1029399,20 11.9941413,20 L2.00585866,20 C0.898053512,20 0,19.1017876 0,18.0092049 L0,1.99079514 Z" id="Rectangle-5" fill-rule="nonzero"></path>
                <rect id="Rectangle-33" x="3" y="4" width="8" height="2" rx="1"></rect>
                <rect id="Rectangle-33-Copy" x="3" y="7" width="5" height="2" rx="1"></rect>
                <rect id="Rectangle-33-Copy-2" x="3" y="10" width="5" height="2" rx="1"></rect>
                <rect id="Rectangle-33-Copy-5" x="3" y="13" width="5" height="2" rx="1"></rect>
                <rect id="Rectangle-33-Copy-3" x="9" y="10" width="2" height="2" rx="1"></rect>
                <rect id="Rectangle-33-Copy-6" x="9" y="13" width="2" height="2" rx="1"></rect>
                <rect id="Rectangle-33-Copy-4" x="9" y="7" width="2" height="2" rx="1"></rect>
            </g>
        </g>
    </g>
</svg>