<?xml version="1.0" encoding="UTF-8" standalone="no"?>
<svg width="24px" height="24px" viewBox="0 0 24 24" version="1.1" xmlns="http://www.w3.org/2000/svg" xmlns:xlink="http://www.w3.org/1999/xlink">
    <!-- Generator: Sketch 42 (36781) - http://www.bohemiancoding.com/sketch -->
    <title>bitbucket</title>
    <desc>Created with Sketch.</desc>
    <defs></defs>
    <g id="Global" stroke="none" stroke-width="1" fill-rule="evenodd">
        <g id="bitbucket" fill="currentColor">
            <g id="Combined-Shape">
                <path d="M17.0262704,15.2494407 C16.9198483,15.2494407 16.8345962,15.3243233 16.8345962,15.3243233 C16.8345962,15.3243233 15.1107869,16.6797105 11.9951366,16.6798241 C8.87960081,16.6797105 7.15579152,15.3243233 7.15579152,15.3243233 C7.15579152,15.3243233 7.07042499,15.2494407 6.96411727,15.2494407 C6.83698291,15.2494407 6.71648564,15.3343229 6.71648564,15.521359 C6.71648564,15.5411308 6.71843097,15.5609025 6.72197836,15.5802197 C6.98952128,17.0020809 7.18508619,18.011008 7.2193015,18.1646367 C7.45297238,19.2106074 9.5134417,19.9998864 11.9950222,20 L11.9953655,20 C14.4768316,19.9998864 16.5374153,19.2106074 16.7709718,18.1646367 C16.8053015,18.011008 17.000752,17.0020809 17.2682949,15.5802197 C17.2719567,15.5609025 17.2739021,15.5411308 17.2739021,15.521359 C17.2739021,15.3343229 17.1534048,15.2494407 17.0262704,15.2494407 Z M12.0000572,4 L12.0000572,4.00022726 L11.9999428,4 C8.14654699,4 5,5.02869886 5,6.30602173 C5,6.64248227 5.8402769,11.4665606 6.17361841,13.3796473 C6.32318154,14.2375592 8.55598604,15.4955649 11.9982263,15.4955649 L12.0017737,15.4853381 L12.0017737,15.4955649 C15.444014,15.4955649 17.6768185,14.2375592 17.8262671,13.3796473 C18.1596086,11.4665606 19,6.64248227 19,6.30602173 C19,5.02869886 15.853453,4 12.0000572,4 Z M11.9999428,13.9457555 C10.7710535,13.9457555 9.77480527,12.9563729 9.77480527,11.7362063 C9.77480527,10.5156988 10.7710535,9.5265434 11.9999428,9.5265434 C13.2289465,9.5265434 14.2251947,10.5156988 14.2251947,11.7362063 C14.2251947,12.9563729 13.2289465,13.9457555 11.9999428,13.9457555 Z M13.0664525,11.6979127 C13.0664525,12.3094733 12.5671841,12.8052441 11.9511946,12.8052441 C11.3353196,12.8052441 10.8360511,12.3094733 10.8360511,11.6979127 C10.8360511,11.0862386 11.3353196,10.5905815 11.9511946,10.5905815 C12.5671841,10.5905815 13.0664525,11.0862386 13.0664525,11.6979127 Z M11.9987985,7.0188272 C9.52293962,7.01485013 7.51648236,6.58771227 7.51739779,6.0644428 C7.51819882,5.541287 9.52602926,5.12051247 12.0018882,5.12448955 C14.477747,5.12846663 16.4840899,5.55549087 16.4832888,6.07887393 C16.4823733,6.60202973 14.4745429,7.0226906 11.9987985,7.0188272 Z"></path>
            </g>
        </g>
    </g>
</svg>