<?xml version="1.0" encoding="UTF-8" standalone="no"?>
<svg width="24px" height="24px" viewBox="0 0 24 24" version="1.1" xmlns="http://www.w3.org/2000/svg" xmlns:xlink="http://www.w3.org/1999/xlink">
    <!-- Generator: Sketch 42 (36781) - http://www.bohemiancoding.com/sketch -->
    <title>book</title>
    <desc>Created with Sketch.</desc>
    <defs></defs>
    <g id="Global" stroke="none" stroke-width="1" fill-rule="evenodd">
        <g id="book" fill="currentColor">
            <g transform="translate(5.000000, 3.000000)">
                <path d="M2,3.00247329 L2,12.9975267 C2,13.544239 2.44565467,14 2.99539757,14 L11.0046024,14 C11.5443356,14 12,13.5511774 12,12.9975267 L12,3.00247329 C12,2.45576096 11.5543453,2 11.0046024,2 L2.99539757,2 C2.4556644,2 2,2.44882258 2,3.00247329 Z M0,3.00247329 C0,1.34778288 1.34756565,0 2.99539757,0 L11.0046024,0 C12.6618879,0 14,1.35406674 14,3.00247329 L14,12.9975267 C14,14.6522171 12.6524344,16 11.0046024,16 L2.99539757,16 C1.3381121,16 0,14.6459333 0,12.9975267 L0,3.00247329 Z" id="Rectangle-35" fill-rule="nonzero"></path>
                <rect id="Rectangle-36" x="4" y="4" width="6" height="4"></rect>
                <rect id="Rectangle-36-Copy" x="4" y="10" width="6" height="2"></rect>
                <path d="M5,17.8571429 L5,17 L2,17 L2,17.8571429 L3.5,17 L5,17.8571429 Z" id="Combined-Shape"></path>
                <rect id="Rectangle-3" x="2" y="15" width="3" height="2"></rect>
            </g>
        </g>
    </g>
</svg>