<?xml version="1.0" encoding="UTF-8" standalone="no"?>
<svg width="24px" height="24px" viewBox="0 0 24 24" version="1.1" xmlns="http://www.w3.org/2000/svg" xmlns:xlink="http://www.w3.org/1999/xlink">
    <!-- Generator: Sketch 42 (36781) - http://www.bohemiancoding.com/sketch -->
    <title>calendar</title>
    <desc>Created with Sketch.</desc>
    <defs></defs>
    <g id="Global" stroke="none" stroke-width="1" fill-rule="evenodd">
        <g id="calendar" fill="currentColor">
            <g id="Group">
                <g id="calendar">
                    <path d="M4.995,5 L19.005,5 C20.107,5 21,5.895 21,6.994 L21,19.006 C21,20.107 20.108,21 19.005,21 L4.995,21 C3.893,21 3,20.106 3,19.006 L3,6.994 C3,5.893 3.892,5 4.995,5 Z M5.25,17.718 C5.25,18.273 5.694,18.714 6.243,18.714 L17.758,18.714 C18.3,18.714 18.75,18.268 18.75,17.718 L18.75,9.571 L5.25,9.571 L5.25,17.718 Z" id="Combined-Shape"></path>
                    <path d="M6,4 L6,5 L8,5 L8,4 C8,3.448 7.552,3 7,3 C6.448,3 6,3.448 6,4 Z" id="Clip-5"></path>
                    <path d="M16,4 L16,5 L18,5 L18,4 C18,3.448 17.552,3 17,3 C16.448,3 16,3.448 16,4 Z" id="Clip-8"></path>
                    <polygon id="Fill-10" points="7 13 9 13 9 10.999 7 10.999"></polygon>
                    <polygon id="Fill-11" points="15 13 17 13 17 10.999 15 10.999"></polygon>
                    <polygon id="Fill-12" points="11 13 13.001 13 13.001 10.999 11 10.999"></polygon>
                    <polygon id="Fill-13" points="7 17 9 17 9 15 7 15"></polygon>
                    <polygon id="Fill-14" points="11 17 13.001 17 13.001 15 11 15"></polygon>
                    <polygon id="Fill-15" points="15 17 17 17 17 15 15 15"></polygon>
                </g>
            </g>
        </g>
    </g>
</svg>