<?xml version="1.0" encoding="UTF-8" standalone="no"?>
<svg width="24px" height="24px" viewBox="0 0 24 24" version="1.1" xmlns="http://www.w3.org/2000/svg" xmlns:xlink="http://www.w3.org/1999/xlink">
    <!-- Generator: Sketch 42 (36781) - http://www.bohemiancoding.com/sketch -->
    <title>camera-rotate</title>
    <desc>Created with Sketch.</desc>
    <defs></defs>
    <g id="Global" stroke="none" stroke-width="1" fill-rule="evenodd">
        <g id="camera-rotate">
            <g id="camera">
                <rect id="Combined-Shape" fill="currentColor" x="2" y="5" width="20" height="16" rx="2"></rect>
                <path d="M8,4 C8,3.44771525 8.45303631,3 8.99703014,3 L15.0029699,3 C15.5536144,3 16,3.44386482 16,4 L16,5 L8,5 L8,4 Z" id="Rectangle-12" fill="currentColor"></path>
                <g id="Group" transform="translate(15.000000, 15.000000) scale(-1, 1) translate(-15.000000, -15.000000) translate(11.000000, 12.000000)" fill="inherit">
                    <ellipse id="Oval-11" cx="7" cy="5" rx="1" ry="1"></ellipse>
                    <path d="M0.291457421,0.29489048 C-0.0963472154,0.686131314 -0.0973119035,1.31970789 0.289528045,1.70997549 L2.24977437,3.68661761 C2.66362558,4.10510905 3.33697791,4.10413582 3.7527585,3.68564438 L5.70818138,1.71094872 C6.09695071,1.32068113 6.09695071,0.686131314 5.71011076,0.295863716 C5.32327081,-0.0944038829 4.69525883,-0.093430647 4.30745419,0.297810187 L3.00319581,1.61362513 L1.69411399,0.292944008 C1.50117636,0.0973235906 1.24746338,0 0.993750394,0 C0.740037411,0 0.485359739,0.0982968266 0.291457421,0.29489048 Z" id="Clip-2"></path>
                </g>
                <path d="M16.8999819,14 C16.9655697,13.6768901 17,13.3424658 17,13 C17,10.2385763 14.7614237,8 12,8 C9.23857625,8 7,10.2385763 7,13 C7,15.7614237 9.23857625,18 12,18 L12,16 C10.3431458,16 9,14.6568542 9,13 C9,11.3431458 10.3431458,10 12,10 C13.6568542,10 15,11.3431458 15,13 C15,13.3506354 14.9398458,13.6872211 14.8292943,14 L16.8999819,14 Z" id="Combined-Shape" fill="inherit" fill-rule="nonzero"></path>
            </g>
        </g>
    </g>
</svg>