<?xml version="1.0" encoding="UTF-8" standalone="no"?>
<svg width="24px" height="24px" viewBox="0 0 24 24" version="1.1" xmlns="http://www.w3.org/2000/svg" xmlns:xlink="http://www.w3.org/1999/xlink">
    <!-- Generator: Sketch 42 (36781) - http://www.bohemiancoding.com/sketch -->
    <title>editor/cancel</title>
    <desc>Created with Sketch.</desc>
    <defs></defs>
    <g id="Editor" stroke="none" stroke-width="1" fill-rule="evenodd">
        <g id="editor/cancel" fill-rule="nonzero" fill="currentColor">
            <g id="cross">
                <path d="M5.29289322,6.70710678 L17.2928932,18.7071068 C17.6834175,19.0976311 18.3165825,19.0976311 18.7071068,18.7071068 C19.0976311,18.3165825 19.0976311,17.6834175 18.7071068,17.2928932 L6.70710678,5.29289322 C6.31658249,4.90236893 5.68341751,4.90236893 5.29289322,5.29289322 C4.90236893,5.68341751 4.90236893,6.31658249 5.29289322,6.70710678 Z" id="Stroke-1"></path>
                <path d="M17.2928932,5.29289322 L5.29289322,17.2928932 C4.90236893,17.6834175 4.90236893,18.3165825 5.29289322,18.7071068 C5.68341751,19.0976311 6.31658249,19.0976311 6.70710678,18.7071068 L18.7071068,6.70710678 C19.0976311,6.31658249 19.0976311,5.68341751 18.7071068,5.29289322 C18.3165825,4.90236893 17.6834175,4.90236893 17.2928932,5.29289322 Z" id="Stroke-3"></path>
            </g>
        </g>
    </g>
</svg>