<?xml version="1.0" encoding="UTF-8" standalone="no"?>
<svg width="24px" height="24px" viewBox="0 0 24 24" version="1.1" xmlns="http://www.w3.org/2000/svg" xmlns:xlink="http://www.w3.org/1999/xlink">
    <!-- Generator: Sketch 42 (36781) - http://www.bohemiancoding.com/sketch -->
    <title>chevron-left-circle</title>
    <desc>Created with Sketch.</desc>
    <defs></defs>
    <g id="Global" stroke="none" stroke-width="1" fill-rule="evenodd">
        <g id="chevron-left-circle" fill="currentColor">
            <g id="Combined-Shape">
                <path d="M12,21 C7.02943725,21 3,16.9705627 3,12 C3,7.02943725 7.02943725,3 12,3 C16.9705627,3 21,7.02943725 21,12 C21,16.9705627 16.9705627,21 12,21 Z M13.7061747,9.69776905 C14.0979418,9.30938089 14.0979418,8.67967927 13.7061747,8.29129112 C13.3144076,7.90290296 12.6792276,7.90290296 12.2874605,8.29129112 L9.32205321,11.231122 C8.89264893,11.667624 8.89264893,12.3531225 9.32205321,12.7788233 L12.2774286,15.7087089 C12.6691958,16.097097 13.3043757,16.097097 13.6961428,15.7087089 C14.08791,15.3203207 14.08791,14.6906191 13.6961428,14.3022309 L11.3788538,12.0049283 L13.7061747,9.69776905 Z"></path>
            </g>
        </g>
    </g>
</svg>