<?xml version="1.0" encoding="UTF-8" standalone="no"?>
<svg width="24px" height="24px" viewBox="0 0 24 24" version="1.1" xmlns="http://www.w3.org/2000/svg" xmlns:xlink="http://www.w3.org/1999/xlink">
    <!-- Generator: Sketch 42 (36781) - http://www.bohemiancoding.com/sketch -->
    <title>chevron-right-circle</title>
    <desc>Created with Sketch.</desc>
    <defs></defs>
    <g id="Global" stroke="none" stroke-width="1" fill-rule="evenodd">
        <g id="chevron-right-circle" fill="currentColor">
            <g id="Combined-Shape">
                <path d="M12,21 C7.02943725,21 3,16.9705627 3,12 C3,7.02943725 7.02943725,3 12,3 C16.9705627,3 21,7.02943725 21,12 C21,16.9705627 16.9705627,21 12,21 Z M10.2938253,9.69776905 L12.6211462,12.0049283 L10.3038572,14.3022309 C9.91209005,14.6906191 9.91209005,15.3203207 10.3038572,15.7087089 C10.6956243,16.097097 11.3308042,16.097097 11.7225714,15.7087089 L14.6779468,12.7788233 C15.1073511,12.3531225 15.1073511,11.667624 14.6779468,11.231122 L11.7125395,8.29129112 C11.3207724,7.90290296 10.6855924,7.90290296 10.2938253,8.29129112 C9.90205822,8.67967927 9.90205822,9.30938089 10.2938253,9.69776905 Z"></path>
            </g>
        </g>
    </g>
</svg>