<?xml version="1.0" encoding="UTF-8" standalone="no"?>
<svg width="24px" height="24px" viewBox="0 0 24 24" version="1.1" xmlns="http://www.w3.org/2000/svg" xmlns:xlink="http://www.w3.org/1999/xlink">
    <!-- Generator: Sketch 42 (36781) - http://www.bohemiancoding.com/sketch -->
    <title>chevron-down</title>
    <desc>Created with Sketch.</desc>
    <defs></defs>
    <g id="Global" stroke="none" stroke-width="1" fill-rule="evenodd">
        <g id="chevron-down" fill="currentColor">
            <g id="expand">
                <path d="M4.292,8.292 C3.902,8.679 3.902,9.317 4.292,9.705 L11.289,16.702 C11.29,16.705 11.291,16.706 11.294,16.708 C11.488,16.904 11.745,17.001 12.001,17.001 C12.259,17.001 12.515,16.904 12.71,16.708 C12.712,16.706 12.712,16.704 12.715,16.702 L19.709,9.708 C20.098,9.318 20.098,8.683 19.709,8.294 C19.319,7.904 18.684,7.904 18.295,8.294 L12.001,14.587 L5.707,8.292 C5.512,8.097 5.256,8 4.999,8 C4.743,8 4.486,8.097 4.292,8.292 Z"></path>
            </g>
        </g>
    </g>
</svg>