<?xml version="1.0" encoding="UTF-8" standalone="no"?>
<svg width="24px" height="24px" viewBox="0 0 24 24" version="1.1" xmlns="http://www.w3.org/2000/svg" xmlns:xlink="http://www.w3.org/1999/xlink">
    <!-- Generator: Sketch 42 (36781) - http://www.bohemiancoding.com/sketch -->
    <title>chevron-right</title>
    <desc>Created with Sketch.</desc>
    <defs></defs>
    <g id="Global" stroke="none" stroke-width="1" fill-rule="evenodd">
        <g id="chevron-right" fill="currentColor">
            <g id="arrow-right" transform="translate(12.000000, 12.000000) rotate(180.000000) translate(-12.000000, -12.000000) translate(-0.000000, 0.000000)">
                <path d="M9.4139,12.0013 L15.7089,5.7063 C16.0979,5.3173 16.0979,4.6803 15.7089,4.2913 C15.3209,3.9023 14.6839,3.9023 14.2949,4.2913 L7.2989,11.2883 C7.2959,11.2903 7.2939,11.2913 7.2919,11.2933 C7.0969,11.4873 6.9999,11.7443 6.9999,12.0013 C6.9999,12.2583 7.0969,12.5153 7.2919,12.7093 C7.2939,12.7113 7.2969,12.7123 7.2989,12.7143 L14.2929,19.7083 C14.6819,20.0973 15.3179,20.0973 15.7069,19.7083 C16.0959,19.3193 16.0959,18.6833 15.7069,18.2943 L9.4139,12.0013 Z" id="Fill-1"></path>
            </g>
        </g>
    </g>
</svg>