<?xml version="1.0" encoding="UTF-8" standalone="no"?>
<svg width="24px" height="24px" viewBox="0 0 24 24" version="1.1" xmlns="http://www.w3.org/2000/svg" xmlns:xlink="http://www.w3.org/1999/xlink">
    <!-- Generator: Sketch 42 (36781) - http://www.bohemiancoding.com/sketch -->
    <title>code</title>
    <desc>Created with Sketch.</desc>
    <defs></defs>
    <g id="Global" stroke="none" stroke-width="1" fill-rule="evenodd">
        <g id="code" fill-rule="nonzero" fill="currentColor">
            <g>
                <path d="M14.3037889,19.3022309 C13.9121098,19.6906191 13.9121098,20.3203207 14.3037889,20.7087089 C14.6954679,21.097097 15.3305052,21.097097 15.7221842,20.7087089 L18.6768954,17.7788233 C19.1062032,17.3531225 19.1062032,16.667624 18.6858151,16.2400794 L15.7121546,13.2912911 C15.3204756,12.902903 14.6854384,12.902903 14.2937593,13.2912911 C13.9020802,13.6796793 13.9020802,14.3093809 14.2937593,14.6977691 L16.6205124,17.0049727 L14.3037889,19.3022309 Z" id="Stroke-1"></path>
                <path d="M9.70743634,4.69756905 C10.0992034,4.30918089 10.0992034,3.67947927 9.70743634,3.29109112 C9.31566923,2.90270296 8.68048925,2.90270296 8.28872214,3.29109112 L5.32331488,6.23092205 C4.8939106,6.66742404 4.8939106,7.35292254 5.32331488,7.77862325 L8.27869032,10.7085089 C8.67045742,11.096897 9.30563741,11.096897 9.69740451,10.7085089 C10.0891716,10.3201207 10.0891716,9.69041911 9.69740451,9.30203095 L7.38011549,7.00472831 L9.70743634,4.69756905 Z" id="Stroke-3"></path>
                <path d="M6.70710678,18.7071068 L18.7071068,6.70710678 C19.0976311,6.31658249 19.0976311,5.68341751 18.7071068,5.29289322 C18.3165825,4.90236893 17.6834175,4.90236893 17.2928932,5.29289322 L5.29289322,17.2928932 C4.90236893,17.6834175 4.90236893,18.3165825 5.29289322,18.7071068 C5.68341751,19.0976311 6.31658249,19.0976311 6.70710678,18.7071068 Z" id="Stroke-5"></path>
            </g>
        </g>
    </g>
</svg>