<?xml version="1.0" encoding="UTF-8" standalone="no"?>
<svg width="24px" height="24px" viewBox="0 0 24 24" version="1.1" xmlns="http://www.w3.org/2000/svg" xmlns:xlink="http://www.w3.org/1999/xlink">
    <!-- Generator: Sketch 42 (36781) - http://www.bohemiancoding.com/sketch -->
    <title>confluence</title>
    <desc>Created with Sketch.</desc>
    <defs></defs>
    <g id="Global" stroke="none" stroke-width="1" fill-rule="evenodd">
        <g id="confluence" fill="currentColor">
            <g id="Fill-14">
                <path d="M9.7823756,13.2685727 C10.4019708,13.9074741 10.8184517,14.3736493 11.1585513,14.8106709 C11.2270154,14.8980752 11.3192883,15.1026565 11.2005297,15.3204075 C10.8578101,15.9498537 10.6687077,16.5489081 10.6237674,17.146443 C10.6107808,17.3214768 10.4612646,17.4586898 10.2837248,17.4586898 L8.21652795,17.4586898 C8.1236855,17.4586898 8.03352011,17.4204187 7.96938478,17.3540635 C7.90524944,17.2871454 7.87118823,17.196308 7.87574491,17.1049077 C7.89397165,16.7408262 7.94688615,16.3765759 8.03334923,16.0105808 L8.03192527,16.0090612 C8.03471624,15.9983116 8.03659587,15.9873931 8.03659587,15.9757992 C8.03659587,15.9006078 7.97741593,15.8383611 7.90006621,15.8383611 C7.89397165,15.8383611 7.88810492,15.8393742 7.88212427,15.8402747 C6.19877112,16.0847028 5.13450051,16.4739419 5.13296263,16.9028591 L5.13296263,16.9038158 C5.13296263,17.3083633 6.09225862,17.9193494 7.651613,18.3665579 L7.65263825,18.3686965 C7.79053491,18.4080932 7.89180722,18.530448 7.89180722,18.6770599 C7.89180722,18.8551891 7.74297452,19 7.55899838,19 C7.53251266,19 7.50710914,18.996398 7.48238913,18.9906011 C7.48159171,18.9907136 7.4795412,18.9908825 7.47925641,18.9907699 C5.37953621,18.5119878 4,17.7086898 4,16.7989081 C4,15.7205088 5.87507565,14.7575979 8.6679245,14.3224336 C8.83794579,13.990995 9.03496543,13.6562922 9.26063523,13.3169181 C9.29515211,13.2647456 9.38679843,13.1663665 9.54098524,13.1663665 C9.65507323,13.1663665 9.74005539,13.2248424 9.7823756,13.2685727 Z M15.3248987,14.3211954 C18.1216777,14.7556281 20,15.7196083 20,16.7989081 C20,17.707733 18.6106669,18.5127758 16.514649,18.9918393 C16.4909543,18.9971297 16.4664051,19 16.4410016,19 C16.2569116,19 16.1081358,18.8551891 16.1081358,18.6770599 C16.1081358,18.530054 16.2092373,18.4061796 16.3478744,18.3671769 L16.348444,18.3665579 C17.9076275,17.9193494 18.8670374,17.3083633 18.8670374,16.9038158 L18.8670374,16.9028591 C18.8653856,16.4732665 17.7982101,16.0834647 16.1108129,15.839149 L16.110699,15.8392616 C16.1042626,15.8382485 16.0979972,15.8371792 16.0915039,15.8371792 C16.0147238,15.8371792 15.9562843,15.8986943 15.9562843,15.9732665 C15.9562843,15.984579 15.9582209,15.9954412 15.960841,16.0062472 L15.9600436,16.0069788 C16.0470762,16.374606 16.1008451,16.7404885 16.1190719,17.1061459 C16.1236855,17.1982215 16.0899091,17.2875957 16.0258307,17.3542323 C15.9615815,17.420869 15.8726691,17.4586898 15.7795419,17.4586898 L13.7125159,17.4586898 C13.5344635,17.4586898 13.386713,17.3228838 13.3737264,17.1476249 C13.2277417,15.2057632 11.5658049,13.5311234 9.80652603,11.7588924 C8.8516728,10.7966569 7.86418232,9.80160964 7.10703225,8.72669968 C6.30146739,7.58323953 5.85525407,6.48514183 5.74270397,5.36903422 C5.73102746,5.25320801 5.7808662,5.13952049 5.87456302,5.06894417 C5.9346543,5.02352544 6.00739037,5 6.08092387,5 C6.12170619,5 6.16300115,5.00737281 6.20241647,5.0221747 C6.93570091,5.29958352 7.68185799,5.52819676 8.36285448,5.68488294 C8.5014916,5.7169068 8.613643,5.81888789 8.6602351,5.94107384 C9.15617324,7.28331833 10.4223619,8.55678748 11.7508633,9.89548627 C11.8050309,9.94765871 11.87902,10.0115376 12.0003418,10.0115376 C12.1218344,10.0115376 12.1966209,9.94552004 12.2499911,9.89548627 C13.5783785,8.55678748 14.8446242,7.27881585 15.3405623,5.93668393 C15.3870405,5.81438541 15.4991919,5.71251688 15.6379429,5.68049302 C16.3186546,5.52391941 17.0641852,5.31314723 17.7984949,5.03568213 C17.8376824,5.02082395 17.8789773,5.01339487 17.9197027,5.01339487 C17.9932931,5.01339487 18.0659153,5.03697659 18.1261774,5.08233904 C18.2177668,5.15145205 18.2693712,5.27042999 18.2580935,5.38259793 C18.1454294,6.49848041 17.6992161,7.58312697 16.8938221,8.72669968 C16.1366721,9.80160964 15.1491246,10.7965443 14.1941575,11.7588924 C14.1248389,11.8290185 14.0558621,11.8983003 13.987227,11.9678073 C13.9177946,12.0369203 13.8797462,12.1760468 13.9705382,12.2878771 C14.1940436,12.5625844 14.407866,12.8432013 14.6072779,13.1316974 C14.8858052,13.5341625 15.1239489,13.9298176 15.3248987,14.3211954 Z M11.7617424,8.22298514 C11.0328437,7.52262494 10.6411397,6.70615714 10.5554741,6.47917605 C10.5428293,6.44580144 10.5301275,6.40803692 10.5301275,6.35507654 C10.5301275,6.17385187 10.6831182,6.04446195 10.8430009,6.04446195 C10.9748599,6.04446195 11.3505585,6.08290185 11.9980065,6.08290185 L12.0023923,6.08290185 C12.6499541,6.08290185 13.0256527,6.04446195 13.1576826,6.04446195 C13.3175083,6.04446195 13.4703282,6.17385187 13.4703282,6.35507654 C13.4703282,6.40803692 13.4576834,6.44580144 13.4451525,6.47917605 C13.359259,6.70615714 12.9676689,7.52262494 12.2387703,8.22298514 C12.1569778,8.30155335 12.0644201,8.31629896 12.0004557,8.31629896 L11.9998291,8.31629896 C11.9360355,8.31629896 11.8434779,8.30155335 11.7617424,8.22298514 Z"></path>
            </g>
        </g>
    </g>
</svg>