<?xml version="1.0" encoding="UTF-8" standalone="no"?>
<svg width="24px" height="24px" viewBox="0 0 24 24" version="1.1" xmlns="http://www.w3.org/2000/svg" xmlns:xlink="http://www.w3.org/1999/xlink">
    <!-- Generator: Sketch 42 (36781) - http://www.bohemiancoding.com/sketch -->
    <title>copy</title>
    <desc>Created with Sketch.</desc>
    <defs></defs>
    <g id="Global" stroke="none" stroke-width="1" fill-rule="evenodd">
        <g id="copy" fill-rule="nonzero" fill="currentColor">
            <g transform="translate(5.000000, 3.000000)">
                <path d="M5,16 L13,16 L13,5 L5,5 L5,16 Z M3,4.99188419 C3,3.89179693 3.90195036,3 5.0085302,3 L12.9914698,3 C14.1007504,3 15,3.89339733 15,4.99188419 L15,16.0081158 C15,17.1082031 14.0980496,18 12.9914698,18 L5.0085302,18 C3.8992496,18 3,17.1066027 3,16.0081158 L3,4.99188419 Z" id="Rectangle-3"></path>
                <path d="M0,13 L0,1.99188419 C0,0.891796927 0.901950359,0 2.0085302,0 L9.9914698,0 C9.99431459,0 9.99715799,5.87571512e-06 10,1.76155361e-05 L10,13 L-1.11022302e-16,13 Z M2,13 L10,13 L10,2 L2,2 L2,13 Z" id="Combined-Shape"></path>
            </g>
        </g>
    </g>
</svg>