<?xml version="1.0" encoding="UTF-8" standalone="no"?>
<svg width="24px" height="24px" viewBox="0 0 24 24" version="1.1" xmlns="http://www.w3.org/2000/svg" xmlns:xlink="http://www.w3.org/1999/xlink">
    <!-- Generator: Sketch 42 (36781) - http://www.bohemiancoding.com/sketch -->
    <title>cross-circle</title>
    <desc>Created with Sketch.</desc>
    <defs></defs>
    <g id="Global" stroke="none" stroke-width="1" fill-rule="evenodd">
        <g id="cross-circle" fill="currentColor">
            <g id="crosscircle">
                <path d="M13.4127981,12.0138248 L14.8949914,10.5227004 C15.2843409,10.1310048 15.282439,9.49784266 14.8907434,9.10849317 C14.4990479,8.71914368 13.8658858,8.72104555 13.4765363,9.11274112 L12.0015689,10.5965961 L10.5014961,9.09014593 C10.111801,8.69879415 9.47863748,8.69745111 9.0872857,9.08714616 C8.69593392,9.4768412 8.69459088,10.1100048 9.08428593,10.5013565 L10.5915912,12.0150698 L9.11693012,13.4986167 C8.72758063,13.8903122 8.7294825,14.5234743 9.12117807,14.9128238 C9.51287364,15.3021733 10.1460358,15.3002715 10.5353853,14.9085759 L12.0028203,13.4322986 L13.4424471,14.8780457 C13.8321421,15.2693975 14.4653057,15.2707406 14.8566575,14.8810455 C15.2480092,14.4913505 15.2493523,13.8581869 14.8596572,13.4668351 L13.4127981,12.0138248 Z M12,21 C7.02943725,21 3,16.9705627 3,12 C3,7.02943725 7.02943725,3 12,3 C16.9705627,3 21,7.02943725 21,12 C21,16.9705627 16.9705627,21 12,21 Z" id="Combined-Shape"></path>
            </g>
        </g>
    </g>
</svg>