<?xml version="1.0" encoding="UTF-8" standalone="no"?>
<svg width="24px" height="24px" viewBox="0 0 24 24" version="1.1" xmlns="http://www.w3.org/2000/svg" xmlns:xlink="http://www.w3.org/1999/xlink">
    <!-- Generator: Sketch 42 (36781) - http://www.bohemiancoding.com/sketch -->
    <title>download</title>
    <desc>Created with Sketch.</desc>
    <defs></defs>
    <g id="Global" stroke="none" stroke-width="1" fill-rule="evenodd">
        <g id="download" fill="currentColor">
            <g id="downloads">
                <path d="M10.6870401,17.2917416 C10.3012436,16.9028911 9.67558648,16.9027326 9.28959589,17.2913876 C8.9036053,17.6800426 8.90344798,18.3103354 9.28924451,18.6991859 L11.2536714,20.6791632 C11.6782782,21.1069161 12.3671764,21.1069161 12.7916075,20.6793402 L14.7105798,18.7461497 C15.0964734,18.3573969 15.0964734,17.7271041 14.7105798,17.3383514 C14.3246863,16.9495986 13.6990292,16.9495986 13.3131356,17.3383514 L12.0228853,18.6381615 L10.6870401,17.2917416 Z" id="Stroke-1" fill-rule="nonzero"></path>
                <path d="M13.001,19.9934405 L13,10.0063567 C12.9999443,9.45050521 12.552184,8.99994398 11.9998992,9 C11.4476145,9.00005602 10.9999443,9.45070807 11,10.0065595 L11.001,19.9936433 C11.0010557,20.5494948 11.448816,21.000056 12.0011008,21 C12.5533855,20.999944 13.0010556,20.5492919 13.001,19.9934405 Z" id="Stroke-3" fill-rule="nonzero"></path>
                <path d="M16.8389,5.41805742 C16.5779,5.41805742 16.3179,5.43914338 16.0619,5.48031122 C14.9249,3.90087197 12.9989,3.02128597 11.0239,3.0002 C8.1909,3.03935965 5.8449,4.88387962 5.1379,7.590916 C3.3119,8.00159028 1.9999,9.6653734 1.9999,11.6655279 C1.9999,13.9548613 3.8949,16.0002 6.0549,16.0002 L10.0189,16.0002 L10.0189,14.0070742 L6.0549,14.0070742 C4.9719,14.0070742 3.9849,12.8714443 3.9849,11.6655279 C3.9849,10.465636 4.8249,9.5077307 5.9609,9.5077307 L6.2149,9.5077307 C6.2259,9.5077307 6.2249,9.50170614 6.2379,9.50170614 C6.8319,9.50170614 6.9029,8.97756927 6.9029,8.97756927 L6.9489,8.63718154 C7.2209,6.54063408 8.9359,5.027465 11.0179,4.99332582 C12.5329,5.01641997 14.0039,5.76547381 14.7339,7.11196334 L14.8839,7.37905224 C14.8839,7.37905224 15.1539,7.8730663 15.7589,7.62505518 L15.7589,7.62505518 L15.9289,7.56280137 C16.2129,7.46339611 16.5099,7.41218733 16.8989,7.41218733 L16.9109,7.41218733 C18.5459,7.41218733 20.0149,8.72052131 20.0149,10.4987711 C20.0149,12.3442952 18.5569,14.0070742 16.8999,14.0070742 L14.0189,14.0070742 L14.0189,16.0002 L16.8999,16.0002 C19.6149,16.0002 21.9999,13.4076303 21.9999,10.4987711 C21.9999,7.62003471 19.6439,5.41906151 16.8389,5.41805742" id="Fill-5"></path>
            </g>
        </g>
    </g>
</svg>