<?xml version="1.0" encoding="UTF-8" standalone="no"?>
<svg width="24px" height="24px" viewBox="0 0 24 24" version="1.1" xmlns="http://www.w3.org/2000/svg" xmlns:xlink="http://www.w3.org/1999/xlink">
    <!-- Generator: Sketch 42 (36781) - http://www.bohemiancoding.com/sketch -->
    <title>error</title>
    <desc>Created with Sketch.</desc>
    <defs></defs>
    <g id="Global" stroke="none" stroke-width="1" fill-rule="evenodd">
        <g id="error" fill="currentColor">
            <g transform="translate(3.000000, 3.000000)" id="Combined-Shape">
                <path d="M10.4161506,1.41651608 L16.5838494,7.58446189 C17.3671375,8.36778127 17.3659678,9.63465419 16.5838494,10.4167144 L10.4161506,16.5839547 C9.63286252,17.3671845 8.3659678,17.3660149 7.58384945,16.5839547 L1.41615055,10.4167144 C0.632862523,9.6334846 0.634032199,8.36661155 1.41615055,7.58446189 L7.58384945,1.41651608 C8.36713748,0.63319669 9.6340322,0.634366413 10.4161506,1.41651608 Z M9,11 C9.552,11 10,10.552 10,10 L10,5 C10,4.448 9.552,4 9,4 C8.448,4 8,4.448 8,5 L8,10 C8,10.552 8.448,11 9,11 Z M9,14 C9.552,14 10,13.552 10,13 C10,12.448 9.552,12 9,12 C8.448,12 8,12.448 8,13 C8,13.552 8.448,14 9,14 Z"></path>
            </g>
        </g>
    </g>
</svg>