<?xml version="1.0" encoding="UTF-8" standalone="no"?>
<svg width="24px" height="24px" viewBox="0 0 24 24" version="1.1" xmlns="http://www.w3.org/2000/svg" xmlns:xlink="http://www.w3.org/1999/xlink">
    <!-- Generator: Sketch 42 (36781) - http://www.bohemiancoding.com/sketch -->
    <title>export</title>
    <desc>Created with Sketch.</desc>
    <defs></defs>
    <g id="Global" stroke="none" stroke-width="1" fill-rule="evenodd">
        <g id="export" fill="currentColor">
            <g>
                <path d="M14.2163884,7.69669914 C14.6244142,8.10110029 15.2859548,8.10110029 15.6939806,7.69669914 C16.1020065,7.292298 16.1020065,6.63663419 15.6939806,6.23223305 L12.7387961,3.30330086 C12.3307703,2.89889971 11.6692297,2.89889971 11.2612039,3.30330086 L8.30601937,6.23223305 C7.89799354,6.63663419 7.89799354,7.292298 8.30601937,7.69669914 C8.71404521,8.10110029 9.37558579,8.10110029 9.78361162,7.69669914 L12,5.5 L14.2163884,7.69669914 Z" id="Rectangle-7-Copy" fill-rule="nonzero"></path>
                <path d="M11,6 L11,16 C11,16.5522847 11.4477153,17 12,17 C12.5522847,17 13,16.5522847 13,16 L13,6 C13,5.44771525 12.5522847,5 12,5 C11.4477153,5 11,5.44771525 11,6 Z" id="Line" fill-rule="nonzero"></path>
                <path d="M9,9 L9,11 L7,11 C6.99806845,11 7,18.9914698 7,18.9914698 C7,18.9954232 16.9941413,19 16.9941413,19 C16.9972775,19 17,11.0085302 17,11.0085302 C17,11.0032726 15,11 15,11 L15,9 L17,9 C18.1045695,9 19,9.90195036 19,11.0085302 L19,18.9914698 C19,20.1007504 18.1029399,21 16.9941413,21 L7.00585866,21 C5.89805351,21 5,20.0980496 5,18.9914698 L5,11.0085302 C5,9.8992496 5.88772964,9 7,9 L9,9 Z" id="Path"></path>
            </g>
        </g>
    </g>
</svg>