<?xml version="1.0" encoding="UTF-8" standalone="no"?>
<svg width="24px" height="24px" viewBox="0 0 24 24" version="1.1" xmlns="http://www.w3.org/2000/svg" xmlns:xlink="http://www.w3.org/1999/xlink">
    <!-- Generator: Sketch 42 (36781) - http://www.bohemiancoding.com/sketch -->
    <title>editor/help</title>
    <desc>Created with Sketch.</desc>
    <defs></defs>
    <g id="Editor" stroke="none" stroke-width="1" fill-rule="evenodd">
        <g id="editor/help">
            <g id="question-mark-circle">
                <path d="M21,12 C21,16.971 16.971,21 12,21 C7.029,21 3,16.971 3,12 C3,7.029 7.029,3 12,3 C16.971,3 21,7.029 21,12" id="Combined-Shape" fill="currentColor"></path>
                <path d="M12,19 L12,19 C11.448,19 11,18.552 11,18 L11,18 C11,17.448 11.448,17 12,17 L12,17 C12.552,17 13,17.448 13,18 L13,18 C13,18.552 12.552,19 12,19" id="Fill-3" fill="inherit"></path>
                <path d="M10,10 C10,10.552 9.552,11 9,11 C8.448,11 8,10.552 8,10 C8,9.448 8.448,9 9,9 C9.552,9 10,9.448 10,10" id="Fill-5" fill="inherit"></path>
                <path d="M15.8899485,9.04813239 C15.5569485,7.60513239 14.3829485,6.43513239 12.9389485,6.10713239 C10.2909485,5.50413239 7.94594849,7.53013239 8.00094849,10.0881324 C8.00394849,10.0911324 8.00594849,10.0931324 8.00994849,10.0961324 L9.88794849,10.1181324 C9.93194849,10.0721324 9.95594849,10.0481324 9.99994849,10.0021324 C9.99894849,8.89813239 10.8959485,8.00013239 11.9999485,8.00013239 C13.1029485,8.00013239 13.9999485,8.89713239 13.9999485,10.0001324 C13.9999485,11.1021324 13.1029485,12.0001324 11.9999485,12.0001324 L12.0079485,12.0001324 C11.4599485,12.0001324 11.0179485,12.4411324 11.0099485,12.9871324 L11.0099485,13.0261324 L11.0099485,13.8611324 L11.0099485,15.0001324 C11.0099485,15.5521324 11.4579485,16.0001324 12.0099485,16.0001324 L12.0099485,16.0001324 C12.5629485,16.0001324 13.0099485,15.5521324 13.0099485,15.0001324 L13.0099485,14.2191324 C13.0099485,14.0021324 13.1549485,13.8201324 13.3589485,13.7471324 C15.1719485,13.0911324 16.3809485,11.1771324 15.8899485,9.04813239" id="Fill-7" fill="inherit"></path>
            </g>
        </g>
    </g>
</svg>