<?xml version="1.0" encoding="UTF-8" standalone="no"?>
<svg width="24px" height="24px" viewBox="0 0 24 24" version="1.1" xmlns="http://www.w3.org/2000/svg" xmlns:xlink="http://www.w3.org/1999/xlink">
    <!-- Generator: Sketch 42 (36781) - http://www.bohemiancoding.com/sketch -->
    <title>hipchat</title>
    <desc>Created with Sketch.</desc>
    <defs></defs>
    <g id="Global" stroke="none" stroke-width="1" fill-rule="evenodd">
        <g id="hipchat" fill="currentColor">
            <g>
                <path d="M16.4508766,18.356039 C16.4760065,18.3894481 16.4893506,18.4177922 16.4893506,18.4486688 C16.4893506,18.4950325 16.4453247,18.5269805 16.39,18.5269805 C15.9887013,18.5269805 14.7522727,17.8606494 14.1014286,17.3115909 C14.0123052,17.2364935 13.8876299,17.2089286 13.7106494,17.2475 C13.1677273,17.3656494 12.5982143,17.4294481 12.0103896,17.4294481 C8.32818182,17.4294481 5.34298701,14.9648701 5.34298701,11.9237662 C5.34298701,8.88422078 8.32818182,6.42012987 12.0103896,6.42012987 C15.6923052,6.42012987 18.6773052,8.88422078 18.6773052,11.9237662 C18.6773052,13.7383766 17.6142532,15.3474675 15.9746753,16.3503247 C15.8650974,16.4174351 15.7483117,16.543474 15.7483117,16.7010714 C15.7483117,17.0247403 16.0525,17.8271429 16.4508766,18.356039 L16.4508766,18.356039 Z M18.5946104,19.0277273 C18.0287987,18.7055195 17.4918182,18.1604545 17.2457792,17.4135714 C17.1975649,17.2671753 17.2404221,17.1488312 17.3533117,17.0616558 C18.9902597,15.7960065 20.0202922,13.9587013 20.0202922,11.9123701 C20.0202922,8.09603896 16.434026,5.00214286 12.010487,5.00214286 C7.58646104,5.00214286 4,8.09603896 4,11.9123701 C4,15.7306494 7.58646104,18.8250325 12.010487,18.8250325 C12.588474,18.8250325 13.1520455,18.7721429 13.6953571,18.6717208 C13.8287013,18.6470779 13.9371104,18.6784416 14.0258442,18.7328896 C15.1221104,19.4056494 16.7545779,19.9698052 18.1862013,19.9698052 C18.6474026,19.9698052 18.8247727,19.6773052 18.8247727,19.4109091 C18.8247727,19.2390909 18.7316558,19.1058442 18.5946104,19.0277273 L18.5946104,19.0277273 Z" id="Fill-16"></path>
                <path d="M16.3849351,13.4564935 C16.3847403,13.2888636 16.2487662,13.1380844 16.0659416,13.1380844 C15.9921104,13.1380844 15.9166234,13.1632143 15.8546753,13.2188312 C15.0476948,13.9439935 13.6744156,14.5852922 12.0135065,14.5894805 L12.0067857,14.5894805 C10.3487013,14.5852922 9.01477273,13.9183766 8.16551948,13.219026 C8.11175325,13.1748052 8.01220779,13.144513 7.94772727,13.144513 C7.75038961,13.144513 7.63564935,13.3124351 7.63545455,13.4971104 C7.63535714,13.6396104 7.73519481,13.7586364 7.8174026,13.8820455 C8.29350649,14.5968831 9.77032468,15.8106169 11.9927597,15.8106169 L12.0275325,15.8106169 C14.2498701,15.8106169 15.7266883,14.5968831 16.2028896,13.8820455 C16.2850974,13.7586364 16.3850325,13.5989935 16.3849351,13.4564935" id="Fill-14"></path>
            </g>
        </g>
    </g>
</svg>