<?xml version="1.0" encoding="UTF-8" standalone="no"?>
<svg width="24px" height="24px" viewBox="0 0 24 24" version="1.1" xmlns="http://www.w3.org/2000/svg" xmlns:xlink="http://www.w3.org/1999/xlink">
    <!-- Generator: Sketch 42 (36781) - http://www.bohemiancoding.com/sketch -->
    <title>home-circle-2-colour</title>
    <desc>Created with Sketch.</desc>
    <defs></defs>
    <g id="Global" stroke="none" stroke-width="1" fill-rule="evenodd">
        <g id="home-circle-2-colour">
            <g id="home">
                <path d="M12,21 C16.9705627,21 21,16.9705627 21,12 C21,7.02943728 16.9705627,3 12,3 C7.02943728,3 3,7.02943728 3,12 C3,16.9705627 7.02943728,21 12,21 Z" id="Combined-Shape" fill="currentColor"></path>
                <path d="M11.6426411,6.35735893 C11.840005,6.15999504 12.1604855,6.16048551 12.3573589,6.35735893 L17.2881596,11.2881596 C17.6812982,11.6812982 17.544239,12 16.9975267,12 L7.00247329,12 C6.44882258,12 6.32258606,11.6774139 6.71184039,11.2881596 L11.6426411,6.35735893 Z" id="Triangle-2" fill="inherit"></path>
                <path d="M8,12.0029293 C8,11.4490268 8.45303631,11 8.99703014,11 L15.0029699,11 C15.5536144,11 16,11.4378814 16,12.0029293 L16,16.9970707 C16,17.5509732 15.5469637,18 15.0029699,18 L8.99703014,18 C8.4463856,18 8,17.5621186 8,16.9970707 L8,12.0029293 Z M10.6666667,15.5172329 L10.6666667,18 L13.3333333,18 L13.3333333,15.5172329 C13.3333333,14.7784091 12.7363797,14.1818182 12,14.1818182 C11.2584864,14.1818182 10.6666667,14.7797037 10.6666667,15.5172329 Z" id="Combined-Shape" fill="inherit"></path>
            </g>
        </g>
    </g>
</svg>