<?xml version="1.0" encoding="UTF-8" standalone="no"?>
<svg width="24px" height="24px" viewBox="0 0 24 24" version="1.1" xmlns="http://www.w3.org/2000/svg" xmlns:xlink="http://www.w3.org/1999/xlink">
    <!-- Generator: Sketch 42 (36781) - http://www.bohemiancoding.com/sketch -->
    <title>jira</title>
    <desc>Created with Sketch.</desc>
    <defs></defs>
    <g id="Global" stroke="none" stroke-width="1" fill-rule="evenodd">
        <g id="jira" fill="currentColor">
            <g id="Fill-13">
                <path d="M9.87384664,15.8981603 C10.467879,16.523613 10.8671811,16.9799514 11.1931966,17.4077507 C11.2587437,17.4933684 11.3472227,17.6936251 11.2333275,17.9068016 C10.9047321,18.5229983 10.7242388,19.1094024 10.6811459,19.6943602 C10.6686289,19.8655956 10.5253043,20 10.3551304,20 L8.37715648,20 C8.28810418,20 8.20172727,19.962494 8.14009773,19.8975094 C8.07875483,19.8321392 8.04607684,19.7432433 8.05037658,19.653769 C8.10990403,18.4399839 8.54035533,17.2321765 9.37373963,15.9524426 C9.40689536,15.901342 9.49460997,15.7981765 9.64252087,15.7981765 C9.75813598,15.7981765 9.8270273,15.8486987 9.87384664,15.8981603 Z M17.8722147,7.88355318 C17.9599293,7.95123744 18.0093285,8.06770836 17.9985313,8.17752656 C17.8906558,9.26992353 17.4629754,10.3317565 16.690934,11.4511501 C15.9649475,12.5034378 15.0184324,13.4774356 14.1030665,14.4194231 C14.0365639,14.4881679 13.9704436,14.5559486 13.9046098,14.6239221 C13.8380117,14.6925705 13.8016073,14.828614 13.888653,14.9381429 C14.1028754,15.207048 14.3077339,15.4818346 14.4990244,15.764238 C15.4118105,17.111174 15.8858324,18.383966 15.9481308,19.654926 C15.9526216,19.7449788 15.9201347,19.8325248 15.8587919,19.8977023 C15.7971623,19.9629761 15.711932,20 15.6226886,20 L13.6413705,20 C13.4706232,20 13.3290186,19.8670419 13.316406,19.6956137 C13.1766168,17.794573 11.583517,16.1552062 9.89706521,14.4194231 C8.98179484,13.477532 8.03508863,12.5034378 7.30929327,11.4511501 C6.53715632,10.3318529 6.10928486,9.26375288 6.00150482,8.17116308 C5.99080326,8.06298396 6.0376226,7.9503697 6.1278215,7.88094994 C6.18553351,7.83650202 6.25375598,7.81413343 6.32427164,7.81413343 C6.36354256,7.81413343 6.40310012,7.82136465 6.4407467,7.8358271 C7.14380123,8.10743189 7.86042382,8.32002989 8.51321922,8.47342826 C8.64603327,8.50485999 8.75352666,8.60455447 8.79814836,8.72420713 C9.27369911,10.0381688 10.4874667,11.2849283 11.7607617,12.5953226 C11.8128363,12.6463268 11.8837341,12.708901 12.0000181,12.708901 C12.1165887,12.708901 12.1881554,12.6443021 12.2392745,12.5953226 C13.5127606,11.2849283 14.7265282,10.0338301 15.2018878,8.71996481 C15.246414,8.60021573 15.3539073,8.50052125 15.4870081,8.46918594 C16.1394213,8.31578757 16.8542284,8.10955305 17.5581429,7.83794826 C17.5955984,7.8233894 17.6351559,7.81615817 17.6743313,7.81615817 C17.744847,7.81615817 17.8143116,7.83920167 17.8722147,7.88355318 Z M12.0018335,8.86304664 C12.6228109,8.86304664 12.9829376,8.82544427 13.1094454,8.82544427 C13.2627071,8.82544427 13.4091847,8.95213532 13.4091847,9.12954136 C13.4091847,9.18131693 13.3970499,9.2183408 13.3850107,9.25102593 C13.3026469,9.47316914 12.9273277,10.2724605 12.2285729,10.958077 C12.1502222,11.0350172 12.061361,11.0493832 12.0002092,11.0493832 L11.9994448,11.0493832 C11.9383885,11.0493832 11.8496229,11.0350172 11.7712722,10.958077 C11.0725174,10.2724605 10.6971027,9.47316914 10.6149299,9.25102593 C10.6027951,9.2183408 10.5906603,9.18131693 10.5906603,9.12954136 C10.5906603,8.95213532 10.7373291,8.82544427 10.8905908,8.82544427 C11.0170985,8.82544427 11.3770342,8.86304664 11.9977249,8.86304664 L12.0018335,8.86304664 Z M15.4145814,4.95799261 C15.9876884,4.95876394 16.4539708,5.42676879 16.4539708,6.00786998 C16.4539708,6.58752493 15.9876884,7.05794019 15.4145814,7.05794019 C14.8398501,7.05794019 14.3752875,6.58752493 14.3752875,6.00786998 C14.3752875,5.42676879 14.8398501,4.95799261 15.4145814,4.95799261 Z M11.9996359,4 C12.5744628,4 13.0390253,4.46867976 13.0390253,5.04997379 C13.0390253,5.62962874 12.5744628,6.10014041 11.9996359,6.10014041 C11.4251912,6.10014041 10.9600554,5.62962874 10.9600554,5.04997379 C10.9600554,4.46867976 11.4251912,4 11.9996359,4 Z M8.58469038,4.95799261 C9.1596128,4.95799261 9.62427088,5.42676879 9.62427088,6.00786998 C9.62427088,6.58752493 9.1596128,7.05794019 8.58469038,7.05794019 C8.01024571,7.05794019 7.54510988,6.58752493 7.54510988,6.00786998 C7.54510988,5.42676879 8.01024571,4.95799261 8.58469038,4.95799261 Z"></path>
            </g>
        </g>
    </g>
</svg>