<?xml version="1.0" encoding="UTF-8" standalone="no"?>
<svg width="24px" height="24px" viewBox="0 0 24 24" version="1.1" xmlns="http://www.w3.org/2000/svg" xmlns:xlink="http://www.w3.org/1999/xlink">
    <!-- Generator: Sketch 42 (36781) - http://www.bohemiancoding.com/sketch -->
    <title>link-filled</title>
    <desc>Created with Sketch.</desc>
    <defs></defs>
    <g id="Global" stroke="none" stroke-width="1" fill-rule="evenodd">
        <g id="link-filled" fill="currentColor">
            <g id="link-enclosed" transform="translate(3.000000, 3.000000)">
                <path d="M9,18 C4.02943725,18 0,13.9705627 0,9 C0,4.02943725 4.02943725,0 9,0 C13.9705627,0 18,4.02943725 18,9 C18,13.9705627 13.9705627,18 9,18 Z M8.75073299,13.1503381 L9.29751596,12.6133097 C9.53348962,12.3815458 9.53348962,12.0063372 9.29751596,11.7751661 C9.06214581,11.5434022 8.67951843,11.5434022 8.44414828,11.7751661 L7.8696037,12.3388681 C7.30592236,12.8924933 6.38677174,13.0009659 5.76877421,12.5066153 C5.05843916,11.9375786 5.01860729,10.9044214 5.65048562,10.2838158 L7.34394369,8.62056903 C7.93900772,8.0355282 8.90462886,8.0355282 9.49969288,8.62056903 L10.146659,9.25599332 L11.0000267,8.41725697 L10.3536641,7.78242543 C9.29087731,6.73919152 7.55275926,6.73919152 6.49057601,7.78242543 L4.79651443,9.44567221 C3.66915175,10.5535155 3.73855577,12.4088121 5.00472649,13.4247797 C6.10855215,14.3091575 7.74346944,14.139632 8.75073299,13.1503381 Z M9.24929374,4.84966194 L8.70251077,5.3866903 C8.4665371,5.6184542 8.4665371,5.99366275 8.70251077,6.2248339 C8.93788092,6.4565978 9.3205083,6.4565978 9.55587845,6.2248339 L10.130423,5.66113195 C10.6941044,5.10750668 11.613255,4.99903407 12.2312525,5.49338468 C12.9415876,6.06242135 12.9814194,7.09557857 12.3495411,7.71618419 L10.656083,9.37943097 C10.061019,9.9644718 9.09539787,9.9644718 8.50033384,9.37943097 L7.85336768,8.74400668 L7,9.58274303 L7.64636265,10.2175746 C8.70914941,11.2608085 10.4472675,11.2608085 11.5094507,10.2175746 L13.2035123,8.55432779 C14.330875,7.44648451 14.261471,5.59118786 12.9953002,4.57522029 C11.8914746,3.69084246 10.2565573,3.86036797 9.24929374,4.84966194 Z" id="Combined-Shape"></path>
            </g>
        </g>
    </g>
</svg>