<?xml version="1.0" encoding="UTF-8" standalone="no"?>
<svg width="24px" height="24px" viewBox="0 0 24 24" version="1.1" xmlns="http://www.w3.org/2000/svg" xmlns:xlink="http://www.w3.org/1999/xlink">
    <!-- Generator: Sketch 42 (36781) - http://www.bohemiancoding.com/sketch -->
    <title>lock-circle</title>
    <desc>Created with Sketch.</desc>
    <defs></defs>
    <g id="Global" stroke="none" stroke-width="1" fill-rule="evenodd">
        <g id="lock-circle" fill="currentColor">
            <g id="Combined-Shape">
                <path d="M10,12 L11,12 L11,11 L10,11 L10,12 C9.44809179,12.0001082 9.0002,12.4480667 9.0002,13 L9.0002,15.0010434 C9.0002,15.5527519 9.45117518,16 9.99097797,16 L14.009422,16 C14.5566136,16 15.0002,15.5573397 15.0002,15.0010434 L15.0002,13 C15.0002,12.448 14.5522,12 14.0002,12 L13.0002,12 L11.0002,12 L10.0002,12 C10.0001333,12 10.0000667,12 10,12 Z M12,21 C7.02943725,21 3,16.9705627 3,12 C3,7.02943725 7.02943725,3 12,3 C16.9705627,3 21,7.02943725 21,12 C21,16.9705627 16.9705627,21 12,21 Z M12.02,8 L11.98,8 C10.886,8 10,8.886 10,9.98 L10,11 L11,11 L11,9.99 C11,9.443 11.443,9 11.99,9 L12.01,9 C12.557,9 13,9.443 13,9.99 L13,11 L14,11 L14,9.98 C14,8.886 13.114,8 12.02,8 Z M13,11 L13,12 L14,12 L14,11 L13,11 Z"></path>
            </g>
        </g>
    </g>
</svg>