<?xml version="1.0" encoding="UTF-8" standalone="no"?>
<svg width="24px" height="24px" viewBox="0 0 24 24" version="1.1" xmlns="http://www.w3.org/2000/svg" xmlns:xlink="http://www.w3.org/1999/xlink">
    <!-- Generator: Sketch 42 (36781) - http://www.bohemiancoding.com/sketch -->
    <title>lock-filled</title>
    <desc>Created with Sketch.</desc>
    <defs></defs>
    <g id="Global" stroke="none" stroke-width="1" fill-rule="evenodd">
        <g id="lock-filled" fill="currentColor">
            <g id="Combined-Shape">
                <path d="M5,11.0085302 C5,9.8992496 5.89706013,9 7.00585866,9 L16.9941413,9 C18.1019465,9 19,9.90195036 19,11.0085302 L19,18.9914698 C19,20.1007504 18.1029399,21 16.9941413,21 L7.00585866,21 C5.89805351,21 5,20.0980496 5,18.9914698 L5,11.0085302 Z M12,17 C13.1045695,17 14,16.1045695 14,15 C14,13.8954305 13.1045695,13 12,13 C10.8954305,13 10,13.8954305 10,15 C10,16.1045695 10.8954305,17 12,17 Z"></path>
                <path d="M16,10 L14,10 L14,7.00236948 C14,5.89616855 13.1043465,5 12,5 C10.8982909,5 10,5.89812584 10,7.00236948 L10,10 L8,10 L8,7.00236948 C8,4.79192185 9.79535615,3 12,3 C14.209139,3 16,4.79182182 16,7.00236948 L16,10 Z M8,10 L10,10 L10,11 L8,11 L8,10 Z M14,10 L16,10 L16,11 L14,11 L14,10 Z" fill-rule="nonzero"></path>
            </g>
        </g>
    </g>
</svg>
