<?xml version="1.0" encoding="UTF-8" standalone="no"?>
<svg width="24px" height="24px" viewBox="0 0 24 24" version="1.1" xmlns="http://www.w3.org/2000/svg" xmlns:xlink="http://www.w3.org/1999/xlink">
    <!-- Generator: Sketch 43.1 (39012) - http://www.bohemiancoding.com/sketch -->
    <title>icon/global/log-in</title>
    <desc>Created with Sketch.</desc>
    <path d="M10.8 13H4.3c-.54 0-.98-.45-.98-1s.44-1 .98-1h6.53L9.6 9.78c-.4-.4-.4-1.07 0-1.47.4-.4 1.06-.4 1.47 0L14 11.27c.4.4.4 1.07 0 1.48l-2.93 2.95c-.2.2-.47.3-.74.3-.26 0-.53-.1-.73-.3-.4-.4-.4-1.08 0-1.48L10.8 13z" fill="currentColor"></path>
    <path d="M7 8V5h10v14H7v-3c0-.55-.45-1-1-1s-1 .45-1 1v3c0 1.1.9 2 2 2h10c1.1 0 2-.9 2-2V5c0-1.1-.9-2-2-2H7c-1.1 0-2 .9-2 2v3c0 .55.45 1 1 1s1-.45 1-1z" fill="currentColor"></path>
</svg>
