<?xml version="1.0" encoding="UTF-8" standalone="no"?>
<svg width="24px" height="24px" viewBox="0 0 24 24" version="1.1" xmlns="http://www.w3.org/2000/svg" xmlns:xlink="http://www.w3.org/1999/xlink">
    <!-- Generator: Sketch 42 (36781) - http://www.bohemiancoding.com/sketch -->
    <title>page-filled</title>
    <desc>Created with Sketch.</desc>
    <defs></defs>
    <g id="Global" stroke="none" stroke-width="1" fill-rule="evenodd">
        <g id="page-filled" fill="currentColor">
            <g id="page">
                <path d="M5,3.99079514 C5,2.89130934 5.89706013,2 7.00585866,2 L16.9941413,2 C18.1019465,2 19,2.89821238 19,3.99079514 L19,20.0092049 C19,21.1086907 18.1029399,22 16.9941413,22 L7.00585866,22 C5.89805351,22 5,21.1017876 5,20.0092049 L5,3.99079514 Z M8,7 C8,7.55613518 8.4463856,8 8.99703014,8 L15.0029699,8 C15.5469637,8 16,7.55228475 16,7 C16,6.44386482 15.5536144,6 15.0029699,6 L8.99703014,6 C8.45303631,6 8,6.44771525 8,7 Z M8,10 C8,10.5561352 8.4463856,11 8.99703014,11 L15.0029699,11 C15.5469637,11 16,10.5522847 16,10 C16,9.44386482 15.5536144,9 15.0029699,9 L8.99703014,9 C8.45303631,9 8,9.44771525 8,10 Z M8,13 C8,13.5561352 8.45190985,14 9.0093689,14 L10.9906311,14 C11.5566468,14 12,13.5522847 12,13 C12,12.4438648 11.5480902,12 10.9906311,12 L9.0093689,12 C8.44335318,12 8,12.4477153 8,13 Z" id="Combined-Shape"></path>
            </g>
        </g>
    </g>
</svg>