<?xml version="1.0" encoding="UTF-8" standalone="no"?>
<svg width="24px" height="24px" viewBox="0 0 24 24" version="1.1" xmlns="http://www.w3.org/2000/svg" xmlns:xlink="http://www.w3.org/1999/xlink">
    <!-- Generator: Sketch 42 (36781) - http://www.bohemiancoding.com/sketch -->
    <title>person</title>
    <desc>Created with Sketch.</desc>
    <defs></defs>
    <g id="Global" stroke="none" stroke-width="1" fill-rule="evenodd">
        <g id="person" fill="currentColor">
            <g>
                <path d="M12,3 C7.029,3 3,7.029 3,12 C3,16.971 7.029,21 12,21 C16.971,21 21,16.971 21,12 C21,7.029 16.971,3 12,3 M12,5 C15.86,5 19,8.14 19,12 C19,15.86 15.86,19 12,19 C8.14,19 5,15.86 5,12 C5,8.14 8.14,5 12,5" id="Fill-3"></path>
                <path d="M14.4996,13.0089 L9.5006,13.0089 C8.1196,13.0089 7.0006,14.1279 7.0006,15.5089 L7.0006,19.4829 C8.4306,20.4399 10.1496,20.9999 11.9996,20.9999 C13.8506,20.9999 15.5686,20.4399 16.9996,19.4829 L16.9996,15.5089 C16.9996,14.1279 15.8796,13.0089 14.4996,13.0089" id="Fill-5"></path>
                <circle id="Oval-2" cx="12" cy="9" r="3"></circle>
            </g>
        </g>
    </g>
</svg>