<?xml version="1.0" encoding="UTF-8" standalone="no"?>
<svg width="24px" height="24px" viewBox="0 0 24 24" version="1.1" xmlns="http://www.w3.org/2000/svg" xmlns:xlink="http://www.w3.org/1999/xlink">
    <!-- Generator: Sketch 42 (36781) - http://www.bohemiancoding.com/sketch -->
    <title>redo</title>
    <desc>Created with Sketch.</desc>
    <defs></defs>
    <g id="Global" stroke="none" stroke-width="1" fill-rule="evenodd">
        <g id="redo" fill-rule="nonzero" fill="currentColor">
            <g transform="translate(12.000000, 12.000000) scale(-1, -1) rotate(-90.000000) translate(-12.000000, -12.000000) ">
                <path d="M12,6 L12,8.99 C12,9.54228475 12.4477153,9.99 13,9.99 C13.5522847,9.99 14,9.54228475 14,8.99 L14,5.1 C14,4.49271525 13.5072847,4 12.9,4 L9,4 C8.44771525,4 8,4.44771525 8,5 C8,5.55228475 8.44771525,6 9,6 L12,6 Z" id="Stroke-1"></path>
                <path d="M13.4281997,17.4226854 C11.3512797,16.435182 9.9998,14.3395969 9.9998,11.9998 C9.9998,9.82399456 11.1673307,7.8524432 13.0209152,6.79048454 C13.5001242,6.51593538 13.6660337,5.90489371 13.3914845,5.42568477 C13.1169354,4.94647584 12.5058937,4.78056631 12.0266848,5.05511546 C9.55716372,6.46995745 7.9998,9.09980067 7.9998,11.9998 C7.9998,15.1187954 9.80186113,17.9130457 12.5694003,19.2289146 C13.0681768,19.4660655 13.6647637,19.2539761 13.9019146,18.7551997 C14.1390655,18.2564232 13.9269761,17.6598363 13.4281997,17.4226854 Z" id="Stroke-3"></path>
            </g>
        </g>
    </g>
</svg>