<?xml version="1.0" encoding="UTF-8" standalone="no"?>
<svg width="24px" height="24px" viewBox="0 0 24 24" version="1.1" xmlns="http://www.w3.org/2000/svg" xmlns:xlink="http://www.w3.org/1999/xlink">
    <!-- Generator: Sketch 42 (36781) - http://www.bohemiancoding.com/sketch -->
    <title>sign-out</title>
    <desc>Created with Sketch.</desc>
    <defs></defs>
    <g id="Global" stroke="none" stroke-width="1" fill-rule="evenodd">
        <g id="sign-out" fill="currentColor">
            <g transform="translate(3.000000, 3.000000)">
                <path d="M13.3036972,5.3051102 C12.8987676,5.71366531 12.8987676,6.37508571 13.3036972,6.78259592 L15.5002589,8.99986939 L13.3036972,11.2171429 C12.8987676,11.6236082 12.8987676,12.2860735 13.3036972,12.6935837 C13.7075911,13.1021388 14.3631421,13.1021388 14.7680717,12.6935837 L17.6978563,9.73861224 C18.1007146,9.33005714 18.1007146,8.66968163 17.6978563,8.26112653 L14.7680717,5.3051102 C14.5650891,5.1013551 14.2999689,5 14.0348488,5 C13.7707643,5 13.5046085,5.1013551 13.3036972,5.3051102 Z" id="Clip-2"></path>
                <path d="M4.9764158,8 C4.43743428,8 4,8.44877561 4,9.00049975 C4,9.55222389 4.43743428,10 4.9764158,10 L16.0235842,10 C16.5635421,10 17,9.55222389 17,9.00049975 C17,8.44877561 16.5635421,8 16.0235842,8 L4.9764158,8 Z" id="Clip-5"></path>
                <path d="M5.49703014,0 L1.99406028,0 C0.894513756,0 0,0.893231902 0,1.99508929 L0,16.0049107 C0,17.1073772 0.892771196,18 1.99406028,18 L5.49703014,18 L9,18 L9,16 L2,16 L2,2 L9,2 L9,0 L5.49703014,0 Z" id="Combined-Shape" fill-rule="nonzero"></path>
            </g>
        </g>
    </g>
</svg>