<?xml version="1.0" encoding="UTF-8" standalone="no"?>
<svg width="24px" height="24px" viewBox="0 0 24 24" version="1.1" xmlns="http://www.w3.org/2000/svg" xmlns:xlink="http://www.w3.org/1999/xlink">
    <!-- Generator: Sketch 42 (36781) - http://www.bohemiancoding.com/sketch -->
    <title>star</title>
    <desc>Created with Sketch.</desc>
    <defs></defs>
    <g id="Global" stroke="none" stroke-width="1" fill-rule="evenodd">
        <g id="star" fill-rule="nonzero" fill="currentColor">
            <g id="Star">
                <path d="M14.8517132,19.6909281 L12.0000669,18.130055 L9.14842051,19.6909281 C7.56021858,20.560244 6.16812034,19.5042971 6.47101208,17.6656535 L7.01562808,14.3596713 L4.7085977,12.0183617 C3.42371535,10.7143878 3.9581176,9.00965308 5.73127672,8.7413986 L8.91951428,8.25906229 L10.3453375,5.2511803 C11.1415616,3.57148519 12.8671199,3.58951723 13.661847,5.26605439 L15.0806195,8.25906229 L18.268857,8.7413986 C20.0445208,9.010032 20.574606,10.7162271 19.2915361,12.0183617 L16.9845057,14.3596713 L17.5291217,17.6656535 C17.8324413,19.5068942 16.437675,20.5590178 14.8517132,19.6909281 Z M14.8457036,13.6807351 L17.7908391,10.6918391 L13.729225,10.077373 L12.0000669,6.42958299 L10.2709088,10.077373 L6.20929471,10.6918391 L9.15443012,13.6807351 L8.47962617,17.7769972 L12.0000669,15.8500538 L15.5205076,17.7769972 L14.8457036,13.6807351 Z"></path>
            </g>
        </g>
    </g>
</svg>