
<svg width="24px" height="24px" viewBox="0 0 24 24" version="1.1" xmlns="http://www.w3.org/2000/svg" xmlns:xlink="http://www.w3.org/1999/xlink">
    <!-- Generator: Sketch 43 (38999) - http://www.bohemiancoding.com/sketch -->
    <desc>Created with Sketch.</desc>
    <defs></defs>
    <g id="Symbols" stroke="none" stroke-width="1" fill="none" fill-rule="evenodd">
        <g id="scope_icon_24x24">
            <g>
                <g id="icon_container_transparent">
                    <rect x="0" y="0" width="24" height="24"></rect>
                </g>
                <path d="M20.0092049,13 C20.003053,13 20.0009754,12.9996458 20.0002941,13 L20.0092049,13 Z M5,5 C5,3.8954305 5.89451376,3 6.99406028,3 L17.0059397,3 C18.1072288,3 19,3.89444002 19,5 L5,5 Z M5,19 L19,19 C19,20.10556 18.1072288,21 17.0059397,21 L6.99406028,21 C5.89451376,21 5,20.1045695 5,19 Z" id="Combined-Shape" fill="currentColor" fill-rule="nonzero"></path>
                <rect id="Rectangle-12" stroke="currentColor" stroke-width="2" x="4" y="8" width="16" height="8" rx="2"></rect>
            </g>
            <path d="M9,8.5 L9,15.5" id="Line" stroke="currentColor" stroke-width="2" stroke-linecap="square"></path>
            <path d="M15,8.5 L15,15.5" id="Line-Copy" stroke="currentColor" stroke-width="2" stroke-linecap="square"></path>
        </g>
    </g>
</svg>
