<?xml version="1.0" encoding="UTF-8" standalone="no"?>
<svg width="24px" height="24px" viewBox="0 0 24 24" version="1.1" xmlns="http://www.w3.org/2000/svg" xmlns:xlink="http://www.w3.org/1999/xlink">
    <!-- Generator: Sketch 42 (36781) - http://www.bohemiancoding.com/sketch -->
    <title>time</title>
    <desc>Created with Sketch.</desc>
    <defs></defs>
    <g id="Global" stroke="none" stroke-width="1" fill-rule="evenodd">
        <g id="time" fill="currentColor">
            <g id="Combined-Shape">
                <path d="M12,21 C7.02943725,21 3,16.9705627 3,12 C3,7.02943725 7.02943725,3 12,3 C16.9705627,3 21,7.02943725 21,12 C21,16.9705627 16.9705627,21 12,21 Z M13,10.5864 L13,7.0044 C13,6.4544 12.55,6.0044 12,6.0044 C11.45,6.0044 11,6.4544 11,7.0044 L11,11.0044 C11,11.2834 11.116,11.5344 11.301,11.7164 L13.771,14.1854 C14.16,14.5744 14.796,14.5744 15.185,14.1854 C15.574,13.7964 15.574,13.1604 15.185,12.7714 L13,10.5864 Z"></path>
            </g>
        </g>
    </g>
</svg>