<?xml version="1.0" encoding="UTF-8" standalone="no"?>
<svg width="24px" height="24px" viewBox="0 0 24 24" version="1.1" xmlns="http://www.w3.org/2000/svg" xmlns:xlink="http://www.w3.org/1999/xlink">
    <!-- Generator: Sketch 42 (36781) - http://www.bohemiancoding.com/sketch -->
    <title>undo</title>
    <desc>Created with Sketch.</desc>
    <g id="Global" stroke="none" stroke-width="1" fill-rule="evenodd">
        <g id="undo">
            <g>
                <path d="M5.138,12.026 C4.852,12.506 5.025,13.117 5.524,13.392 C6.023,13.666 6.659,13.5 6.945,13.021 C8.051,11.167 10.104,10 12.37,10 C14.807,10 16.989,11.351 18.018,13.429 C18.264,13.927 18.886,14.139 19.406,13.902 C19.925,13.664 20.146,13.069 19.899,12.569 C18.528,9.802 15.618,8 12.37,8 C9.35,8 6.611,9.557 5.138,12.026 Z" id="Clip-5" fill="currentColor"></path>
                <path d="M4,9 L4,12.9 C4,13.507 4.494,14 5.102,14 L8.998,14 C9.552,14 10,13.552 10,13 C10,12.448 9.552,12 8.998,12 L6.003,12 L6.003,9 C6.003,8.448 5.555,8 5.002,8 C4.449,8 4,8.448 4,9 Z" id="path-1" fill="currentColor"></path>
            </g>
        </g>
    </g>
</svg>