<?xml version="1.0" encoding="UTF-8" standalone="no"?>
<svg width="24px" height="24px" viewBox="0 0 24 24" version="1.1" xmlns="http://www.w3.org/2000/svg" xmlns:xlink="http://www.w3.org/1999/xlink">
    <!-- Generator: Sketch 42 (36781) - http://www.bohemiancoding.com/sketch -->
    <title>user-avatar-two-color</title>
    <desc>Created with Sketch.</desc>
    <defs></defs>
    <g id="Global" stroke="none" stroke-width="1" fill-rule="evenodd">
        <g id="user-avatar-two-color">
            <g>
                <circle id="Oval-2" fill="currentColor" cx="12" cy="12" r="9"></circle>
                <path d="M17,16.913 C15.73,18.2 13.968,19 12.021,19 C10.052,19 8.273,18.18 7,16.867 L7,16 C7,14.896 7.895,14 9,14 L15,14 C16.105,14 17,14.896 17,16 L17,16.913 Z" id="Path" fill="inherit"></path>
                <path d="M11.9992,6 C10.3432,6 9.0012,7.342 9.0012,8.998 C9.0012,10.655 10.3432,11.997 11.9992,11.997 C13.6552,11.997 14.9982,10.655 14.9982,8.998 C14.9982,7.342 13.6552,6 11.9992,6" id="Fill-1" fill="inherit"></path>
            </g>
        </g>
    </g>
</svg>