<?xml version="1.0" encoding="UTF-8" standalone="no"?>
<svg width="24px" height="24px" viewBox="0 0 24 24" version="1.1" xmlns="http://www.w3.org/2000/svg" xmlns:xlink="http://www.w3.org/1999/xlink">
    <!-- Generator: Sketch 42 (36781) - http://www.bohemiancoding.com/sketch -->
    <title>vid-hd-two-color</title>
    <desc>Created with Sketch.</desc>
    <defs></defs>
    <g id="Global" stroke="none" stroke-width="1" fill-rule="evenodd">
        <g id="vid-hd-two-color">
            <g id="vid-connection-two-color" transform="translate(3.000000, 3.000000)">
                <circle id="Combined-Shape" fill="currentColor" cx="9" cy="9" r="9"></circle>
                <path d="M8.35882554,12 L8.35882554,6.00415512 L6.85933766,6.00415512 L6.85933766,8.35595568 L4.50358484,8.35595568 L4.50358484,6.00415512 L3,6.00415512 L3,12 L4.50358484,12 L4.50358484,9.58171745 L6.85933766,9.58171745 L6.85933766,12 L8.35882554,12 Z M9.75179242,6 L9.75179242,12 L12.234551,12 C14.0126323,12 15,10.9113573 15,8.94182825 C15,7.06786704 13.9962445,6 12.234551,6 L9.75179242,6 Z M11.2553773,7.22576177 L11.9641516,7.22576177 C12.9105497,7.22576177 13.4677364,7.8531856 13.4677364,8.97091413 C13.4677364,10.1592798 12.9392284,10.7742382 11.9641516,10.7742382 L11.2553773,10.7742382 L11.2553773,7.22576177 Z" id="HD" fill="inherit"></path>
            </g>
        </g>
    </g>
</svg>