<?xml version="1.0" encoding="UTF-8" standalone="no"?>
<svg width="24px" height="24px" viewBox="0 0 24 24" version="1.1" xmlns="http://www.w3.org/2000/svg" xmlns:xlink="http://www.w3.org/1999/xlink">
    <!-- Generator: Sketch 42 (36781) - http://www.bohemiancoding.com/sketch -->
    <title>vid-full-screen-on</title>
    <desc>Created with Sketch.</desc>
    <defs></defs>
    <g id="Global" stroke="none" stroke-width="1" fill-rule="evenodd">
        <g id="vid-full-screen-on" fill="currentColor">
            <g>
                <path d="M19,5.0033389 L19,7.99833055 C19,8.55153731 19.4477153,9 20,9 C20.5522847,9 21,8.55153731 21,7.99833055 L21,4.10183639 C21,3.49353781 20.5072847,3 19.9,3 L16,3 C15.4477153,3 15,3.44846269 15,4.00166945 C15,4.55487621 15.4477153,5.0033389 16,5.0033389 L19,5.0033389 Z" id="Stroke-1" fill-rule="nonzero"></path>
                <path d="M13.7395388,10.2943305 C14.1292694,10.684061 14.7613596,10.6838488 15.1466859,10.2985225 L20.2985225,5.14668591 C20.6859378,4.75927057 20.6792614,4.1244698 20.2943305,3.73953885 L20.2604612,3.70566953 C19.8707306,3.31593901 19.2386404,3.31615122 18.8533141,3.70147752 L13.7014775,8.85331409 C13.3140622,9.24072943 13.3207386,9.8755302 13.7056695,10.2604612 L13.7395388,10.2943305 Z" id="Line" fill-rule="nonzero"></path>
                <path d="M9.06688241,13.3211597 L3.3211304,19.0663491 C2.88833059,19.4990225 2.89613884,20.2071349 3.32559225,20.636463 L3.36240254,20.6732625 C3.79743327,21.1081662 4.50352161,21.1081662 4.93297502,20.677723 L10.6798425,14.9336488 C11.1115268,14.5009753 11.1037186,13.7928629 10.6742652,13.3635349 L10.6374549,13.3267353 C10.4188241,13.1092835 10.1332654,13 9.84770679,13 C9.56437909,13 9.28105138,13.1081684 9.06688241,13.3211597 Z" id="Clip-5"></path>
                <path d="M3,16.002 L3,19.898 C3,20.506 3.493,21 4.1,21 L8,21 C8.553,21 9,20.551 9,19.998 C9,19.445 8.553,18.997 8,18.997 L5,18.997 L5,16.002 C5,15.448 4.552,15 4,15 C3.448,15 3,15.448 3,16.002 Z" id="Clip-2"></path>
            </g>
        </g>
    </g>
</svg>