<?xml version="1.0" encoding="UTF-8" standalone="no"?>
<svg width="24px" height="24px" viewBox="0 0 24 24" version="1.1" xmlns="http://www.w3.org/2000/svg" xmlns:xlink="http://www.w3.org/1999/xlink">
    <!-- Generator: Sketch 42 (36781) - http://www.bohemiancoding.com/sketch -->
    <title>vid-audio-muted</title>
    <desc>Created with Sketch.</desc>
    <defs></defs>
    <g id="Global" stroke="none" stroke-width="1" fill-rule="evenodd">
        <g id="vid-audio-muted" fill="currentColor">
            <g id="vid-audio-on">
                <path d="M11.8329925,14.9954346 L15,11.8284271 L15,12.003 C15,13.658 13.654,15 12,15 C11.9439584,15 11.888276,14.9984649 11.8329925,14.9954346 Z M9.00442397,12.1671489 C9.0014873,12.1128045 9,12.0580756 9,12.003 L9,5.997 C9,4.342 10.346,3 12,3 C13.657,3 15,4.342 15,5.997 L15,6.17157288 L9.00442397,12.1671489 Z M17.9874131,8.84101404 C17.9956964,8.89279439 18,8.94589767 18,9 L18,10.503 L18,12.006 C18,14.975 15.832,17.433 13,17.91 L13,20.0052958 C13,20.5440599 12.5522847,21 12,21 C11.4438648,21 11,20.5546558 11,20.0052958 L11,17.91 C10.443112,17.8161711 9.91219435,17.645703 9.41850909,17.409918 L10.9644082,15.8640189 C11.294848,15.9526889 11.6420208,16 12,16 C14.206,16 16,14.209 16,12.006 L16,10.8284271 L17.9874131,8.84101404 Z M6.58600481,14.5855681 C6.2103917,13.8038434 6,12.9288498 6,12.006 L6,10.503 L6,9 C6,8.448 6.448,8 7,8 C7.552,8 8,8.448 8,9 L8,12.006 C8,12.3619948 8.04704367,12.7074014 8.13525469,13.0363182 L6.58600481,14.5855681 Z" id="Combined-Shape"></path>
                <path d="M3.79289322,20.2071068 C4.18341751,20.5976311 4.81323869,20.6009749 5.20529824,20.2089153 L20.2089153,5.20529824 C20.5984408,4.81577278 20.6003537,4.18614017 20.2071068,3.79289322 L20.2071068,3.79289322 C19.8165825,3.40236893 19.1867613,3.39902512 18.7947018,3.79108468 L3.79108468,18.7947018 C3.40155922,19.1842272 3.39964626,19.8138598 3.79289322,20.2071068 L3.79289322,20.2071068 Z" id="Line" fill-rule="nonzero"></path>
            </g>
        </g>
    </g>
</svg>