<?xml version="1.0" encoding="UTF-8" standalone="no"?>
<svg width="24px" height="24px" viewBox="0 0 24 24" version="1.1" xmlns="http://www.w3.org/2000/svg" xmlns:xlink="http://www.w3.org/1999/xlink">
    <!-- Generator: Sketch 42 (36781) - http://www.bohemiancoding.com/sketch -->
    <title>vid-camera-off</title>
    <desc>Created with Sketch.</desc>
    <defs></defs>
    <g id="Global" stroke="none" stroke-width="1" fill-rule="evenodd">
        <g id="vid-camera-off" fill="currentColor">
            <g>
                <path d="M17.0002,9.82822712 L17.0002,15.1174812 L20.5292,16.8881579 C20.6822,16.9652256 20.8432,17 20.9992,17 C21.5232,17 22.0002,16.6052632 22.0002,16.0592105 L22.0002,7.94078947 C22.0002,7.39473684 21.5232,7 20.9992,7 C20.8432,7 20.6832,7.03477444 20.5312,7.11090226 L18.9060057,7.92242141 L17.0002,9.82822712 Z M14.938194,6.2333789 L3.29767203,17.8739009 C2.53943905,17.589544 2,16.8570528 2,15.9977298 L2,8.00307023 C2,6.89659493 2.89436117,6.0004 3.99857245,6.0004 L14.0014276,6.0004 C14.3399874,6.0004 14.6588196,6.08464983 14.938194,6.2333789 Z M16,10.8284271 L16,15.9977298 C16,17.1042051 15.1056388,18.0004 14.0014276,18.0004 L8.82802712,18.0004 L16,10.8284271 Z" id="Combined-Shape"></path>
                <path d="M3.79289322,20.2071068 C4.18341751,20.5976311 4.81323869,20.6009749 5.20529824,20.2089153 L20.2089153,5.20529824 C20.5984408,4.81577278 20.6003537,4.18614017 20.2071068,3.79289322 L20.2071068,3.79289322 C19.8165825,3.40236893 19.1867613,3.39902512 18.7947018,3.79108468 L3.79108468,18.7947018 C3.40155922,19.1842272 3.39964626,19.8138598 3.79289322,20.2071068 L3.79289322,20.2071068 Z" id="Line" fill-rule="nonzero"></path>
            </g>
        </g>
    </g>
</svg>