<?xml version="1.0" encoding="UTF-8" standalone="no"?>
<svg width="24px" height="24px" viewBox="0 0 24 24" version="1.1" xmlns="http://www.w3.org/2000/svg" xmlns:xlink="http://www.w3.org/1999/xlink">
    <!-- Generator: Sketch 42 (36781) - http://www.bohemiancoding.com/sketch -->
    <title>video-circle</title>
    <desc>Created with Sketch.</desc>
    <defs></defs>
    <g id="Global" stroke="none" stroke-width="1" fill-rule="evenodd">
        <g id="video-circle" fill="currentColor">
            <g id="Combined-Shape">
                <path d="M12,21 C7.02943725,21 3,16.9705627 3,12 C3,7.02943725 7.02943725,3 12,3 C16.9705627,3 21,7.02943725 21,12 C21,16.9705627 16.9705627,21 12,21 Z M17.37,14.9536722 C17.6554286,15.0919557 18,14.9039523 18,14.6110711 L18,9.38892889 C18,9.09604766 17.6554286,8.90804433 17.37,9.04632777 L15,10.1937696 L15,13.8070073 L17.37,14.9536722 Z M6,9.99077797 L6,14.009222 C6,14.5490248 6.4463856,15 6.99703014,15 L13.0029699,15 C13.5469637,15 14,14.5564136 14,14.009222 L14,9.99077797 C14,9.45097518 13.5536144,9 13.0029699,9 L6.99703014,9 C6.45303631,9 6,9.44358641 6,9.99077797 Z"></path>
            </g>
        </g>
    </g>
</svg>