<?xml version="1.0" encoding="UTF-8" standalone="no"?>
<svg width="24px" height="24px" viewBox="0 0 24 24" version="1.1" xmlns="http://www.w3.org/2000/svg" xmlns:xlink="http://www.w3.org/1999/xlink">
    <!-- Generator: Sketch 42 (36781) - http://www.bohemiancoding.com/sketch -->
    <title>warning</title>
    <desc>Created with Sketch.</desc>
    <defs></defs>
    <g id="Global" stroke="none" stroke-width="1" fill-rule="evenodd">
        <g id="warning" fill="currentColor">
            <g id="Combined-Shape">
                <path d="M12.9376881,4.96728867 L20.0623119,18.4249113 C20.5779827,19.3989562 20.1067681,20.1961 19.0049107,20.1961 L4.99508929,20.1961 C3.8926228,20.1961 3.41981727,19.4031118 3.93768812,18.4249113 L11.0623119,4.96728867 C11.5779827,3.99324377 12.4198173,3.98908818 12.9376881,4.96728867 Z M12,15 C12.552,15 13,14.552 13,14 L13,9 C13,8.448 12.552,8 12,8 C11.448,8 11,8.448 11,9 L11,14 C11,14.552 11.448,15 12,15 Z M12,18 C12.552,18 13,17.552 13,17 C13,16.448 12.552,16 12,16 C11.448,16 11,16.448 11,17 C11,17.552 11.448,18 12,18 Z"></path>
            </g>
        </g>
    </g>
</svg>