<?xml version="1.0" encoding="UTF-8" standalone="no"?>
<svg width="24px" height="24px" viewBox="0 0 24 24" version="1.1" xmlns="http://www.w3.org/2000/svg" xmlns:xlink="http://www.w3.org/1999/xlink">
    <!-- Generator: Sketch 42 (36781) - http://www.bohemiancoding.com/sketch -->
    <title>emoji/atlassian</title>
    <desc>Created with Sketch.</desc>
    <defs></defs>
    <g id="Emoji" stroke="none" stroke-width="1" fill-rule="evenodd">
        <g id="emoji/atlassian" fill="currentColor">
            <g id="atlassian">
                <path d="M19.9271666,4.15625629 C19.8562454,4.05834441 19.7427811,4 19.6242687,4 C19.563003,4 19.5025213,4.01580686 19.4496858,4.04555797 C17.2274541,5.29500423 14.6514005,5.95572066 11.9999655,5.95647577 C9.34853045,5.95572066 6.77247682,5.29505456 4.55034322,4.04570899 C4.49740961,4.01585719 4.43702607,4.00010068 4.37576032,4.00010068 C4.25700276,4.00010068 4.14373463,4.05839475 4.07281338,4.15590391 C3.96763233,4.29957512 3.96429947,4.54050381 4.14348957,4.68422536 C5.25641884,5.53643631 6.48325342,6.20168338 7.78992954,6.65670935 C9.14439294,7.12870001 10.5606612,7.36831983 11.9993773,7.3690246 L12.0004066,7.3690246 C13.4393187,7.36831983 14.8555871,7.12864967 16.2098544,6.65670935 C17.5167265,6.2015827 18.7435122,5.53643631 19.8578628,4.68316821 C20.0356315,4.54050381 20.0321515,4.29947444 19.9271666,4.15625629 Z M17.3733157,7.71521485 C17.320382,7.67383512 17.2567637,7.65249083 17.1922141,7.65249083 C17.1564349,7.65249083 17.1202145,7.65908542 17.0859548,7.67262695 C16.4418311,7.92568764 15.7877088,8.11778623 15.1908333,8.26055132 C15.0689879,8.28984938 14.9706686,8.38262655 14.9298902,8.49418065 C14.4949033,9.71785269 13.3842776,10.8829789 12.2189538,12.1035299 C12.1722448,12.1491381 12.1067639,12.2092948 12.0000635,12.2092948 C11.8938042,12.2092948 11.8287644,12.1511014 11.7812222,12.1035299 C10.6159965,10.8829789 9.50541981,9.72198055 9.0703349,8.4981072 C9.02955641,8.38675446 8.9311881,8.29382626 8.8095388,8.26457854 C8.21222217,8.12171278 7.5565315,7.92357335 6.91329004,7.67066368 C6.87868714,7.65717248 6.84256484,7.65052756 6.80663861,7.65052756 C6.74218703,7.65052756 6.67974496,7.67141879 6.62690938,7.71274817 C6.54437214,7.77738512 6.50158413,7.8822943 6.51128863,7.98312592 C6.61000003,9.00065442 7.00146372,9.99547944 7.70798046,11.0379263 C8.37210129,12.0180016 9.23835012,12.9251842 10.0758285,13.8025149 C11.6189414,15.4191434 13.0766744,16.946015 13.2046954,18.7165338 C13.2161644,18.8761125 13.3456066,19 13.5019078,19 L15.3148841,19 C15.3965392,19 15.4745673,18.9654665 15.5308828,18.9047058 C15.5871492,18.843945 15.6168509,18.7624945 15.6127338,18.6785771 C15.5557321,17.4948754 15.1219216,16.3094619 14.2867957,15.0549816 C14.1117227,14.7919033 13.9242495,14.5360739 13.728199,14.2855302 C13.6486515,14.1835911 13.6819801,14.0568342 13.7428538,13.993053 C13.8030903,13.9295739 13.8635718,13.8664975 13.9243475,13.8025149 C14.7619729,12.9250836 15.6281237,12.0180016 16.2923916,11.0379263 C16.9987613,9.99532839 17.390176,9.00639321 17.4888874,7.98891506 C17.4987389,7.88672425 17.4535493,7.77819056 17.3733157,7.71521485 Z M10.0545571,15.1796745 C10.011671,15.1336132 9.94868983,15.086545 9.84292062,15.086545 C9.70764583,15.086545 9.62731416,15.182695 9.59692635,15.230317 C8.8343882,16.4221236 8.44057189,17.5470278 8.38606988,18.6774697 C8.38214887,18.7608333 8.41199755,18.8435926 8.46821501,18.9045548 C8.5245305,18.9650638 8.60363684,19 8.6850958,19 L10.4950333,19 C10.6507464,19 10.7819042,18.8747533 10.7932751,18.7152752 C10.8327302,18.1704925 10.9978537,17.6243506 11.2985461,17.0504208 C11.4027958,16.8518787 11.3218271,16.6653679 11.2617866,16.5856792 C10.9633978,16.1872357 10.5981069,15.7622125 10.0545571,15.1796745 Z M12.0017789,8.62743143 C12.5699331,8.62743143 12.8994939,8.59239458 13.0152126,8.59239458 C13.1554867,8.59239458 13.2894871,8.71039225 13.2894871,8.87560911 C13.2894871,8.92378478 13.2784103,8.95831822 13.2674805,8.98872377 C13.1919521,9.19572307 12.8485697,9.9401051 12.2092983,10.5786718 C12.1374948,10.6502557 12.056232,10.6636966 12.0003086,10.6636966 L11.9995734,10.6636966 C11.94365,10.6636966 11.8624851,10.6502557 11.7907796,10.5786718 C11.1514102,9.9401051 10.8079299,9.19572307 10.7326955,8.98872377 C10.7215206,8.95831822 10.7104928,8.92378478 10.7104928,8.87560911 C10.7104928,8.71039225 10.8446893,8.59239458 10.9849634,8.59239458 C11.1006821,8.59239458 11.4300959,8.62743143 11.998054,8.62743143 L12.0017789,8.62743143 Z" id="Shape"></path>
            </g>
        </g>
    </g>
</svg>