<?xml version="1.0" encoding="UTF-8" standalone="no"?>
<svg width="24px" height="24px" viewBox="0 0 24 24" version="1.1" xmlns="http://www.w3.org/2000/svg" xmlns:xlink="http://www.w3.org/1999/xlink">
    <!-- Generator: Sketch 41.2 (35397) - http://www.bohemiancoding.com/sketch -->
    <title>editor/add</title>
    <desc>Created with Sketch.</desc>
    <defs></defs>
    <g id="Editor" stroke="none" stroke-width="1" fill-rule="evenodd">
        <g id="editor/add" fill="currentColor">
            <g id="add" transform="translate(6.000000, 6.000000)">
                <path d="M7,5 L7,0.500347316 C7,0.229000568 6.77404508,0 6.49531555,0 L5.50468445,0 C5.21403503,0 5,0.224013124 5,0.500347316 L5,5 L0.500347316,5 C0.229000568,5 0,5.22595492 0,5.50468445 L0,6.49531555 C0,6.78596497 0.224013124,7 0.500347316,7 L5,7 L5,11.4996527 C5,11.7709994 5.22595492,12 5.50468445,12 L6.49531555,12 C6.78596497,12 7,11.7759869 7,11.4996527 L7,7 L11.4996527,7 C11.7709994,7 12,6.77404508 12,6.49531555 L12,5.50468445 C12,5.21403503 11.7759869,5 11.4996527,5 L7,5 Z" id="Shape"></path>
            </g>
        </g>
    </g>
</svg>