<?xml version="1.0" encoding="UTF-8" standalone="no"?>
<svg width="24px" height="24px" viewBox="0 0 24 24" version="1.1" xmlns="http://www.w3.org/2000/svg" xmlns:xlink="http://www.w3.org/1999/xlink">
    <!-- Generator: Sketch 41.2 (35397) - http://www.bohemiancoding.com/sketch -->
    <title>editor/addon</title>
    <desc>Created with Sketch.</desc>
    <defs></defs>
    <g id="Editor" stroke="none" stroke-width="1" fill-rule="evenodd">
        <g id="editor/addon" fill="currentColor">
            <g id="addon" transform="translate(5.000000, 6.000000)">
                <path d="M3.69133243,8.93164979 C3.50673463,9.47763335 3.35494747,9.72875046 2.97241075,9.94335031 C2.12093526,10.421173 1.43234552,10.2418911 0.938581845,9.41051365 C0.441194,8.57351614 0.629411612,7.89108056 1.48649029,7.41039847 C1.87368701,7.19318439 2.15878516,7.19391868 2.73718219,7.31193504 C2.81459306,7.3277408 2.87569577,7.339717 2.92742838,7.34882084 L1.49281172,4.93496704 C1.39708588,4.77390088 1.4528746,4.56560308 1.61628858,4.47394275 L3.63896283,3.33940701 C3.8351552,3.22936098 4.08178306,3.34124928 4.12819349,3.56135755 C4.15204218,3.67446345 4.19406295,3.78123184 4.25642896,3.88606362 C4.69484288,4.62342211 5.26169864,4.77095811 6.02488802,4.34300503 C6.78232479,3.91817105 6.93054443,3.38083205 6.49543714,2.64903459 C6.43275175,2.54336493 6.35816825,2.45399596 6.26925308,2.37770779 C6.09350838,2.22692092 6.12127335,1.94728901 6.32323791,1.83400532 L8.34591215,0.699469573 C8.50363651,0.611000599 8.70313444,0.664432641 8.79552709,0.819891092 L10.2432173,3.25575246 C10.2617916,3.20599876 10.2825613,3.14620785 10.3086907,3.0687437 C10.4934678,2.5225846 10.6451529,2.27163644 11.0275893,2.05734246 C11.879011,1.57954995 12.567594,1.75875338 13.0614182,2.5899482 C13.5588129,3.42695733 13.3705761,4.10961913 12.5135907,4.59024888 C12.2545334,4.73567265 11.992603,4.78295286 11.6980502,4.75903694 C11.5712224,4.74873928 11.4762067,4.7322911 11.2632797,4.68898866 C11.1859194,4.67319323 11.1248242,4.66121263 11.0730154,4.65208485 L12.5067313,7.06457927 C12.6024476,7.22563992 12.5466641,7.43392514 12.3832626,7.5255881 L10.2735295,8.70908 C10.0554113,8.83143727 9.7852403,8.67893744 9.77728306,8.42897034 C9.77157763,8.24974139 9.72593783,8.08474901 9.62692127,7.91851891 C9.18870196,7.18116729 8.62164627,7.03349151 7.85869452,7.46141875 C7.10120648,7.88617484 6.95296091,8.42369341 7.38771235,9.15521007 C7.48727442,9.3225205 7.61313443,9.44493346 7.77226272,9.54076983 C7.99130202,9.6726881 7.98637666,9.99193289 7.76337207,10.1170312 L5.653639,11.3005231 C5.49591195,11.3890029 5.29640298,11.3355712 5.20400864,11.1801048 L3.75672831,8.7448539 C3.73817228,8.79456634 3.71742452,8.85429598 3.69133243,8.93164979 Z" id="Shape"></path>
            </g>
        </g>
    </g>
</svg>