<?xml version="1.0" encoding="UTF-8" standalone="no"?>
<svg width="24px" height="24px" viewBox="0 0 24 24" version="1.1" xmlns="http://www.w3.org/2000/svg" xmlns:xlink="http://www.w3.org/1999/xlink">
    <!-- Generator: Sketch 41.2 (35397) - http://www.bohemiancoding.com/sketch -->
    <title>editor/advanced</title>
    <desc>Created with Sketch.</desc>
    <defs></defs>
    <g id="Editor" stroke="none" stroke-width="1" fill-rule="evenodd">
        <g id="editor/advanced" fill="currentColor">
            <g id="advanced" transform="translate(5.000000, 5.000000)">
                <path d="M9.2,12 L10,14 L12,14 L11.2371134,12 L9.2,12 Z M10.0927835,9 L8.18556701,4 L5.81443299,4 L3.90721649,9 L5.8333333,9 L7,5.5 L8.1666667,9 L10.0927835,9 Z M2.7628866,12 L2,14 L4,14 L4.8,12 L2.7628866,12 Z M0,10 L14,10 L14,11 L0,11 L0,10 Z M13,0 L10,4.4408921e-16 L10,4 L13,4 L13,3 L11,3 L11,1 L13,1 L13,0 Z M13,1 L14,1 L14,3 L13,3 L13,1 Z" id="Shape"></path>
            </g>
        </g>
    </g>
</svg>