<?xml version="1.0" encoding="UTF-8" standalone="no"?>
<svg width="24px" height="24px" viewBox="0 0 24 24" version="1.1" xmlns="http://www.w3.org/2000/svg" xmlns:xlink="http://www.w3.org/1999/xlink">
    <!-- Generator: Sketch 41.2 (35397) - http://www.bohemiancoding.com/sketch -->
    <title>editor/align-center</title>
    <desc>Created with Sketch.</desc>
    <defs></defs>
    <g id="Editor" stroke="none" stroke-width="1" fill-rule="evenodd">
        <g id="editor/align-center" fill="currentColor">
            <g id="align-center" transform="translate(6.000000, 7.000000)">
                <path d="M3,0.504684448 C3,0.225954924 3.22788048,0 3.49100518,0 L8.50899482,0 C8.78016949,0 9,0.214035034 9,0.504684448 L9,1.49531555 C9,1.77404508 8.77211952,2 8.50899482,2 L3.49100518,2 C3.21983051,2 3,1.78596497 3,1.49531555 L3,0.504684448 Z M0,4.50468445 C0,4.22595492 0.229000568,4 0.500347316,4 L11.4996527,4 C11.7759869,4 12,4.21403503 12,4.50468445 L12,5.49531555 C12,5.77404508 11.7709994,6 11.4996527,6 L0.500347316,6 C0.224013124,6 0,5.78596497 0,5.49531555 L0,4.50468445 Z M3,8.50468445 C3,8.22595492 3.22788048,8 3.49100518,8 L8.50899482,8 C8.78016949,8 9,8.21403503 9,8.50468445 L9,9.49531555 C9,9.77404508 8.77211952,10 8.50899482,10 L3.49100518,10 C3.21983051,10 3,9.78596497 3,9.49531555 L3,8.50468445 Z" id="Shape"></path>
            </g>
        </g>
    </g>
</svg>