<?xml version="1.0" encoding="UTF-8" standalone="no"?>
<svg width="24px" height="24px" viewBox="0 0 24 24" version="1.1" xmlns="http://www.w3.org/2000/svg" xmlns:xlink="http://www.w3.org/1999/xlink">
    <!-- Generator: Sketch 41.2 (35397) - http://www.bohemiancoding.com/sketch -->
    <title>editor/attachment</title>
    <desc>Created with Sketch.</desc>
    <defs></defs>
    <g id="Editor" stroke="none" stroke-width="1" fill-rule="evenodd">
        <g id="editor/attachment" fill="currentColor">
            <g id="attachment" transform="translate(5.000000, 5.000000)">
                <path d="M7.07662452,12.4160162 C5.90414286,13.5884978 4.00014469,13.5889795 2.83058262,12.4194174 C1.66145889,11.2502937 1.66348257,9.34387673 2.83181516,8.17554415 L8.30859582,2.69876349 C8.99596705,2.01139226 10.0981163,2.00928148 10.7855339,2.69669914 C11.4697639,3.38092918 11.4709782,4.48612854 10.7883126,5.16879413 L5.65226202,10.3048448 C5.46015225,10.4969545 5.149985,10.4961791 4.95190296,10.298097 C4.75360062,10.0997947 4.7527623,9.79013092 4.95190296,9.59099026 L9.72487373,4.81801948 C10.017767,4.52512626 10.017767,4.05025253 9.72487373,3.75735931 C9.43198052,3.46446609 8.95710678,3.46446609 8.66421356,3.75735931 L3.89124279,8.53033008 C3.10502627,9.3165466 3.10843572,10.5759501 3.89124279,11.3587572 C4.67392731,12.1414417 5.93383546,12.1445917 6.71292219,11.3655049 L11.8489728,6.2294543 C13.1179472,4.96047989 13.1156894,2.90553433 11.8461941,1.63603896 C10.5720786,0.361923497 8.5201858,0.365853168 7.24793565,1.63810332 L1.77115499,7.11488398 C0.0175394562,8.86849951 0.0145076045,11.7246627 1.76992245,13.4800776 C3.52539111,15.2355462 6.37913668,15.2348244 8.1372847,13.4766763 L13.2604076,8.35355339 C13.5533009,8.06066017 13.5533009,7.58578644 13.2604076,7.29289322 C12.9675144,7 12.4926407,7 12.1997475,7.29289322 L7.07662452,12.4160162 Z" id="Shape"></path>
            </g>
        </g>
    </g>
</svg>