<?xml version="1.0" encoding="UTF-8" standalone="no"?>
<svg width="24px" height="24px" viewBox="0 0 24 24" version="1.1" xmlns="http://www.w3.org/2000/svg" xmlns:xlink="http://www.w3.org/1999/xlink">
    <!-- Generator: Sketch 41.2 (35397) - http://www.bohemiancoding.com/sketch -->
    <title>editor/bullet-list</title>
    <desc>Created with Sketch.</desc>
    <defs></defs>
    <g id="Editor" stroke="none" stroke-width="1" fill-rule="evenodd">
        <g id="editor/bullet-list" fill="currentColor">
            <g id="bullet-list" transform="translate(6.000000, 7.000000)">
                <path d="M0,1 C0,0.44771525 0.443864822,0 1,0 C1.55228475,0 2,0.443864822 2,1 C2,1.55228475 1.55613518,2 1,2 C0.44771525,2 0,1.55613518 0,1 Z M4,0.504684448 C4,0.225954924 4.23079681,0 4.50043583,0 L11.4995642,0 C11.7759472,0 12,0.214035034 12,0.504684448 L12,1.49531555 C12,1.77404508 11.7692032,2 11.4995642,2 L4.50043583,2 C4.22405275,2 4,1.78596497 4,1.49531555 L4,0.504684448 Z M0,5 C0,4.44771525 0.443864822,4 1,4 C1.55228475,4 2,4.44386482 2,5 C2,5.55228475 1.55613518,6 1,6 C0.44771525,6 0,5.55613518 0,5 Z M4,4.50468445 C4,4.22595492 4.23079681,4 4.50043583,4 L11.4995642,4 C11.7759472,4 12,4.21403503 12,4.50468445 L12,5.49531555 C12,5.77404508 11.7692032,6 11.4995642,6 L4.50043583,6 C4.22405275,6 4,5.78596497 4,5.49531555 L4,4.50468445 Z M0,9 C0,8.44771525 0.443864822,8 1,8 C1.55228475,8 2,8.44386482 2,9 C2,9.55228475 1.55613518,10 1,10 C0.44771525,10 0,9.55613518 0,9 Z M4,8.50468445 C4,8.22595492 4.23079681,8 4.50043583,8 L11.4995642,8 C11.7759472,8 12,8.21403503 12,8.50468445 L12,9.49531555 C12,9.77404508 11.7692032,10 11.4995642,10 L4.50043583,10 C4.22405275,10 4,9.78596497 4,9.49531555 L4,8.50468445 Z" id="Shape"></path>
            </g>
        </g>
    </g>
</svg>