<?xml version="1.0" encoding="UTF-8" standalone="no"?>
<svg width="24px" height="24px" viewBox="0 0 24 24" version="1.1" xmlns="http://www.w3.org/2000/svg" xmlns:xlink="http://www.w3.org/1999/xlink">
    <!-- Generator: Sketch 41.2 (35397) - http://www.bohemiancoding.com/sketch -->
    <title>editor/code</title>
    <desc>Created with Sketch.</desc>
    <defs></defs>
    <g id="Editor" stroke="none" stroke-width="1" fill-rule="evenodd">
        <g id="editor/code" fill="currentColor">
            <g id="code" transform="translate(5.000000, 7.000000)">
                <path d="M8.29431314,8.64502668 C8.0982668,8.84107303 8.09584389,9.15650406 8.29843098,9.35909115 L8.64090885,9.70156902 C8.83922942,9.89988959 9.15700483,9.90365534 9.34783967,9.7128205 L13.7128205,5.34783967 C13.904927,5.15573312 13.9036553,4.84299517 13.7128205,4.65216033 L9.34783967,0.287179496 C9.15573312,0.0950729523 8.84349594,0.0958438894 8.64090885,0.298430978 L8.29843098,0.640908851 C8.10011041,0.839229416 8.09126015,1.15192032 8.29431314,1.35497332 L11.5843665,4.64502668 C11.7804129,4.84107303 11.7874195,5.15192032 11.5843665,5.35497332 L8.29431314,8.64502668 Z M5.70568686,1.35497332 C5.9017332,1.15892697 5.90415611,0.843495939 5.70156902,0.640908851 L5.35909115,0.298430978 C5.16077058,0.100110412 4.84299517,0.0963446605 4.65216033,0.287179496 L0.287179496,4.65216033 C0.0950729523,4.84426688 0.0963446605,5.15700483 0.287179496,5.34783967 L4.65216033,9.7128205 C4.84426688,9.90492705 5.15650406,9.90415611 5.35909115,9.70156902 L5.70156902,9.35909115 C5.89988959,9.16077058 5.90873985,8.84807968 5.70568686,8.64502668 L2.41563349,5.35497332 C2.21958714,5.15892697 2.21258049,4.84807968 2.41563349,4.64502668 L5.70568686,1.35497332 Z" id="Shape"></path>
            </g>
        </g>
    </g>
</svg>