<?xml version="1.0" encoding="UTF-8" standalone="no"?>
<svg width="24px" height="24px" viewBox="0 0 24 24" version="1.1" xmlns="http://www.w3.org/2000/svg" xmlns:xlink="http://www.w3.org/1999/xlink">
    <!-- Generator: Sketch 41.2 (35397) - http://www.bohemiancoding.com/sketch -->
    <title>editor/date</title>
    <desc>Created with Sketch.</desc>
    <defs></defs>
    <g id="Editor" stroke="none" stroke-width="1" fill-rule="evenodd">
        <g id="editor/date" fill="currentColor">
            <g id="date" transform="translate(6.000000, 6.000000)">
                <path d="M0,2.50964952 C0,2.22817786 0.229000568,2 0.500347316,2 L11.4996527,2 C11.7759869,2 12,2.22765279 12,2.50964952 L12,11.4903505 C12,11.7718221 11.7709994,12 11.4996527,12 L0.500347316,12 C0.224013124,12 0,11.7723472 0,11.4903505 L0,2.50964952 Z M2,5.50468445 C2,5.22595492 2.21403503,5 2.50468445,5 L3.49531555,5 C3.77404508,5 4,5.21403503 4,5.50468445 L4,6.49531555 C4,6.77404508 3.78596497,7 3.49531555,7 L2.50468445,7 C2.22595492,7 2,6.78596497 2,6.49531555 L2,5.50468445 Z M5,5.50468445 C5,5.22595492 5.21403503,5 5.50468445,5 L6.49531555,5 C6.77404508,5 7,5.21403503 7,5.50468445 L7,6.49531555 C7,6.77404508 6.78596497,7 6.49531555,7 L5.50468445,7 C5.22595492,7 5,6.78596497 5,6.49531555 L5,5.50468445 Z M2,8.50468445 C2,8.22595492 2.21403503,8 2.50468445,8 L3.49531555,8 C3.77404508,8 4,8.21403503 4,8.50468445 L4,9.49531555 C4,9.77404508 3.78596497,10 3.49531555,10 L2.50468445,10 C2.22595492,10 2,9.78596497 2,9.49531555 L2,8.50468445 Z M1.5,2 L4.5,2 L4.5,3 L1.5,3 L1.5,2 Z M7.5,2 L10.5,2 L10.5,3 L7.5,3 L7.5,2 Z M8,0.504684448 C8,0.225954924 8.21403503,0 8.50468445,0 L9.49531555,0 C9.77404508,0 10,0.214035034 10,0.504684448 L10,2 L8,2 L8,0.504684448 Z M2,0.504684448 C2,0.225954924 2.21403503,0 2.50468445,0 L3.49531555,0 C3.77404508,0 4,0.214035034 4,0.504684448 L4,2 L2,2 L2,0.504684448 Z" id="Shape"></path>
            </g>
        </g>
    </g>
</svg>