<?xml version="1.0" encoding="UTF-8" standalone="no"?>
<svg width="24px" height="24px" viewBox="0 0 24 24" version="1.1" xmlns="http://www.w3.org/2000/svg" xmlns:xlink="http://www.w3.org/1999/xlink">
    <!-- Generator: Sketch 41.2 (35397) - http://www.bohemiancoding.com/sketch -->
    <title>editor/decision</title>
    <desc>Created with Sketch.</desc>
    <defs></defs>
    <g id="Editor" stroke="none" stroke-width="1" fill-rule="evenodd">
        <g id="editor/decision" fill="currentColor">
            <g id="decision" transform="translate(6.000000, 6.000000)">
                <path d="M3.7171993,2.2828007 L7,5.5 L7,6 L7,11.5089948 C7,11.7721195 6.77404508,12 6.49531555,12 L5.50468445,12 C5.21403503,12 5,11.7727539 5,11.4924316 L5,6.5 L2.28145503,3.71854497 L0.357358932,5.64264107 C0.160485506,5.83951449 0,5.78016949 0,5.50899482 L0,0.491005182 C0,0.227880478 0.219830508,0 0.491005182,0 L5.50899482,0 C5.77211952,0 5.84000496,0.159995044 5.64264107,0.357358932 L3.7171993,2.2828007 Z M9.6440798,0.355920196 C9.8406491,0.159350899 10.1605263,0.160526276 10.3479004,0.347900391 L11.1520996,1.15209961 C11.3442397,1.34423969 11.338707,1.66129303 11.1440798,1.8559202 L8.5,4.5 L7,3 L9.6440798,0.355920196 Z" id="Shape"></path>
            </g>
        </g>
    </g>
</svg>