<?xml version="1.0" encoding="UTF-8" standalone="no"?>
<svg width="24px" height="24px" viewBox="0 0 24 24" version="1.1" xmlns="http://www.w3.org/2000/svg" xmlns:xlink="http://www.w3.org/1999/xlink">
    <!-- Generator: Sketch 41.2 (35397) - http://www.bohemiancoding.com/sketch -->
    <title>editor/error</title>
    <desc>Created with Sketch.</desc>
    <defs></defs>
    <g id="Editor" stroke="none" stroke-width="1" fill-rule="evenodd">
        <g id="editor/error" fill="currentColor">
            <g id="error" transform="translate(3.000000, 3.000000)">
                <path d="M9.70610419,0.706214905 C9.31606727,0.316183183 8.67956937,0.320314765 8.29367439,0.706214905 L0.706205478,8.2937851 C0.316178962,8.68381682 0.320310489,9.32031476 0.706205478,9.7062149 L8.29367439,17.2937851 C8.6837009,17.6838168 9.3201989,17.6796852 9.70610419,17.2937851 L17.2937757,9.7062149 C17.6838126,9.31618318 17.679681,8.67968524 17.2937757,8.2937851 L9.70610419,0.706214905 Z M10,9.20802184 L10,5.49769878 C10,5.21484375 9.77404508,5 9.49531555,5 L8.50468445,5 C8.21403503,5 8,5.22282734 8,5.49769878 L8,9.20802184 C8.30623117,9.07422375 8.64444764,9 9,9 C9.35555236,9 9.69376883,9.07422375 10,9.20802184 Z M9,13 C9.55228475,13 10,12.5522847 10,12 C10,11.4477153 9.55228475,11 9,11 C8.44771525,11 8,11.4477153 8,12 C8,12.5522847 8.44771525,13 9,13 Z" id="Shape"></path>
            </g>
        </g>
    </g>
</svg>