<?xml version="1.0" encoding="UTF-8" standalone="no"?>
<svg width="24px" height="24px" viewBox="0 0 24 24" version="1.1" xmlns="http://www.w3.org/2000/svg" xmlns:xlink="http://www.w3.org/1999/xlink">
    <!-- Generator: Sketch 41.2 (35397) - http://www.bohemiancoding.com/sketch -->
    <title>editor/feedback</title>
    <desc>Created with Sketch.</desc>
    <defs></defs>
    <g id="Editor" stroke="none" stroke-width="1" fill-rule="evenodd">
        <g id="editor/feedback" fill="currentColor">
            <g id="feedback" transform="translate(4.000000, 6.000000)">
                <path d="M1.8701895,6.68006891 L0.937853813,6.34103775 C0.417780876,6.15192032 0,5.55228475 0,5 C0,4.44386482 0.419891455,3.8473122 0.937853813,3.65896225 L10.0621462,0.34103775 C10.5822191,0.151920319 11,0.445654671 11,0.995397568 L11,9.00460243 C11,9.5443356 10.5801085,9.8473122 10.0621462,9.65896225 L6.922259,8.51718509 L1.8701895,6.68006891 Z M4,8.95454545 L4,11.0001925 C4,11.5523709 3.59527016,12.2023649 3.10529494,12.4473525 L2.89470506,12.5526475 C2.4005731,12.7997135 2,12.5490248 2,12.009222 L2,8.22727273 L4,8.95454545 Z M13.2236068,3.4472136 L15.2236068,2.4472136 C15.470596,2.32371897 15.5707082,2.02338245 15.4472136,1.7763932 C15.323719,1.52940395 15.0233825,1.42929178 14.7763932,1.5527864 L12.7763932,2.5527864 C12.529404,2.67628103 12.4292918,2.97661755 12.5527864,3.2236068 C12.676281,3.47059605 12.9766175,3.57070822 13.2236068,3.4472136 Z M12.7763932,7.4472136 L14.7763932,8.4472136 C15.0233825,8.57070822 15.323719,8.47059605 15.4472136,8.2236068 C15.5707082,7.97661755 15.470596,7.67628103 15.2236068,7.5527864 L13.2236068,6.5527864 C12.9766175,6.42929178 12.676281,6.52940395 12.5527864,6.7763932 C12.4292918,7.02338245 12.529404,7.32371897 12.7763932,7.4472136 Z M13,5.5 L16,5.5 C16.2761424,5.5 16.5,5.27614237 16.5,5 C16.5,4.72385763 16.2761424,4.5 16,4.5 L13,4.5 C12.7238576,4.5 12.5,4.72385763 12.5,5 C12.5,5.27614237 12.7238576,5.5 13,5.5 Z" id="Shape"></path>
            </g>
        </g>
    </g>
</svg>