<?xml version="1.0" encoding="UTF-8" standalone="no"?>
<svg width="24px" height="24px" viewBox="0 0 24 24" version="1.1" xmlns="http://www.w3.org/2000/svg" xmlns:xlink="http://www.w3.org/1999/xlink">
    <!-- Generator: Sketch 41.2 (35397) - http://www.bohemiancoding.com/sketch -->
    <title>editor/image-border</title>
    <desc>Created with Sketch.</desc>
    <defs></defs>
    <g id="Editor" stroke="none" stroke-width="1" fill-rule="evenodd">
        <g id="editor/image-border" fill="currentColor">
            <g id="image-border" transform="translate(6.000000, 6.000000)">
                <path d="M11,3 L12,3 L12,6 L11,6 L11,3 Z M11,7 L12,7 L12,9 L11,9 L11,7 Z M0,3 L1,3 L1,5 L0,5 L0,3 Z M0,6 L1,6 L1,9 L0,9 L0,6 Z M3,11 L5,11 L5,12 L3,12 L3,11 Z M6,11 L9,11 L9,12 L6,12 L6,11 Z M3,0 L6,0 L6,1 L3,1 L3,0 Z M7,0 L9,0 L9,1 L7,1 L7,0 Z M0,0.504684448 C0,0.225954924 0.214035034,0 0.504684448,0 L2,0 L2,1 L1,1 L1,2 L0,2 L0,0.504684448 Z M12,0.504684448 C12,0.225954924 11.785965,0 11.4953156,0 L10,0 L10,1 L11,1 L11,2 L12,2 L12,0.504684448 Z M0,11.4953156 C0,11.7740451 0.214035034,12 0.504684448,12 L2,12 L2,11 L1,11 L1,10 L0,10 L0,11.4953156 Z M12,11.4953156 C12,11.7740451 11.785965,12 11.4953156,12 L10,12 L10,11 L11,11 L11,10 L12,10 L12,11.4953156 Z" id="Combined-Shape"></path>
            </g>
        </g>
    </g>
</svg>