<?xml version="1.0" encoding="UTF-8" standalone="no"?>
<svg width="24px" height="24px" viewBox="0 0 24 24" version="1.1" xmlns="http://www.w3.org/2000/svg" xmlns:xlink="http://www.w3.org/1999/xlink">
    <!-- Generator: Sketch 41.2 (35397) - http://www.bohemiancoding.com/sketch -->
    <title>editor/info</title>
    <desc>Created with Sketch.</desc>
    <defs></defs>
    <g id="Editor" stroke="none" stroke-width="1" fill-rule="evenodd">
        <g id="editor/info" fill="currentColor">
            <g id="info" transform="translate(4.000000, 4.000000)">
                <path d="M9,7.79197816 L9,12.5089948 C9,12.7801695 8.78596497,13 8.49531555,13 L7.50468445,13 C7.22595492,13 7,12.7721195 7,12.5089948 L7,7.79197816 C7.30623117,7.92577625 7.64444764,8 8,8 C8.35555236,8 8.69376883,7.92577625 9,7.79197816 Z M8,16 C12.418278,16 16,12.418278 16,8 C16,3.581722 12.418278,0 8,0 C3.581722,0 0,3.581722 0,8 C0,12.418278 3.581722,16 8,16 Z M8,6 C8.82842712,6 9.5,5.32842712 9.5,4.5 C9.5,3.67157288 8.82842712,3 8,3 C7.17157288,3 6.5,3.67157288 6.5,4.5 C6.5,5.32842712 7.17157288,6 8,6 Z" id="Shape"></path>
            </g>
        </g>
    </g>
</svg>