<?xml version="1.0" encoding="UTF-8" standalone="no"?>
<svg width="24px" height="24px" viewBox="0 0 24 24" version="1.1" xmlns="http://www.w3.org/2000/svg" xmlns:xlink="http://www.w3.org/1999/xlink">
    <!-- Generator: Sketch 41.2 (35397) - http://www.bohemiancoding.com/sketch -->
    <title>editor/link</title>
    <desc>Created with Sketch.</desc>
    <defs></defs>
    <g id="Editor" stroke="none" stroke-width="1" fill-rule="evenodd">
        <g id="editor/link" fill="currentColor">
            <g id="link" transform="translate(5.000000, 4.000000)">
                <path d="M5.5,5.75 L5.5,4.24916726 C5.5,3.28282956 6.28289421,2.5 7.25,2.5 C8.21839511,2.5 9,3.28033121 9,4.24916726 L9,5.75 L9,6.74359751 C9,7.71441665 8.21661971,8.5 7.25,8.5 C6.83578644,8.5 6.5,8.83578644 6.5,9.25 C6.5,9.66421356 6.83578644,10 7.25,10 C9.04599128,10 10.5,8.54190225 10.5,6.74359751 L10.5,5.75 L10.5,4.24916726 C10.5,2.45135596 9.0462751,1 7.25,1 C5.45449481,1 4,2.45437471 4,4.24916726 L4,5.75 C4,6.16421356 4.33578644,6.5 4.75,6.5 C5.16421356,6.5 5.5,6.16421356 5.5,5.75 Z M9,10.25 L9,11.7508327 C9,12.7171704 8.21710579,13.5 7.25,13.5 C6.28160489,13.5 5.5,12.7196688 5.5,11.7508327 L5.5,10.25 L5.5,9.25640249 C5.5,8.28558335 6.28338029,7.5 7.25,7.5 C7.66421356,7.5 8,7.16421356 8,6.75 C8,6.33578644 7.66421356,6 7.25,6 C5.45400872,6 4,7.45809775 4,9.25640249 L4,10.25 L4,11.7508327 C4,13.548644 5.4537249,15 7.25,15 C9.04550519,15 10.5,13.5456253 10.5,11.7508327 L10.5,10.25 C10.5,9.83578644 10.1642136,9.5 9.75,9.5 C9.33578644,9.5 9,9.83578644 9,10.25 Z" id="Shape" transform="translate(7.250000, 8.000000) rotate(45.000000) translate(-7.250000, -8.000000) "></path>
            </g>
        </g>
    </g>
</svg>