<?xml version="1.0" encoding="UTF-8" standalone="no"?>
<svg width="24px" height="24px" viewBox="0 0 24 24" version="1.1" xmlns="http://www.w3.org/2000/svg" xmlns:xlink="http://www.w3.org/1999/xlink">
    <!-- Generator: Sketch 41.2 (35397) - http://www.bohemiancoding.com/sketch -->
    <title>editor/mention</title>
    <desc>Created with Sketch.</desc>
    <defs></defs>
    <g id="Editor" stroke="none" stroke-width="1" fill-rule="evenodd">
        <g id="editor/mention" fill="currentColor">
            <g id="mention" transform="translate(5.000000, 5.000000)">
                <path d="M4.5,5 C5.88106061,5 7,3.88106061 7,2.5 C7,1.11893939 5.88106061,0 4.5,0 C3.11893939,0 2,1.11893939 2,2.5 C2,3.88106061 3.11893939,5 4.5,5 Z M5.99963381,7 L1.74900625,7 C0.783077797,7 0,7.76753247 0,8.71428571 L0,11.1711688 C1.11300398,12.2971429 2.66882453,13 4.39080068,13 C4.90115571,13 5.39598372,12.9359916 5.86974674,12.8188307 C5.32096522,12.0162852 5,11.0456253 5,10 C5,8.87439408 5.37194482,7.83566053 5.99963381,7 L5.99963381,7 Z M13.3842293,7.54404796 C12.6522066,6.59201839 11.3625666,6 10.0185248,6 C7.80245598,6 6,7.79445573 6,10.0001242 C6,12.2057927 7.80245598,14.0002485 10.0185248,14.0002485 C10.3657356,14.0002485 10.6473443,13.7202398 10.6473443,13.374629 C10.6473443,13.0290183 10.3657356,12.7490096 10.0185248,12.7490096 C8.49607752,12.7490096 7.25763906,11.5153713 7.25763906,10.0001242 C7.25763906,8.48407715 8.49607752,7.25203889 10.0185248,7.25203889 C10.9649542,7.25203889 11.8945831,7.66485171 12.3857983,8.30407156 C12.730609,8.75368552 12.827412,9.26970155 12.6738073,9.83611914 C12.5338029,10.3489351 12.3273965,10.6785453 12.0777888,10.7905488 C11.8073804,10.9081524 11.5033709,10.7689481 11.5001708,10.7689481 C11.4993708,10.7689481 11.5001708,10.7697481 11.5001708,10.7697481 C11.2217622,10.604143 11.4617696,9.95772292 11.7801795,9.19289917 L11.8329812,9.06729526 C11.9657853,8.74728533 11.8121805,8.38167397 11.4905705,8.2504699 C11.2897643,8.16726731 11.0721575,8.20726855 10.9025523,8.32327216 C10.8641511,8.29767136 10.8377503,8.25847014 10.796149,8.2376695 C10.023325,7.84005715 8.96889221,8.27207057 8.44647598,9.20889966 C8.12886612,9.77931738 8.03446319,10.4041368 8.18726793,10.9233529 C8.29367124,11.2849641 8.52247834,11.5745731 8.82888786,11.7385782 C9.01849375,11.8401814 9.22410014,11.8881829 9.43450667,11.8881829 C9.78171745,11.8881829 10.1393286,11.7481785 10.4649387,11.5097711 C10.5737421,11.6369751 10.7065462,11.7569788 10.8833517,11.860182 C10.9673543,11.9057834 11.7385782,12.2969956 12.5666039,11.9433846 C13.1946235,11.6753763 13.6386372,11.0761577 13.8866449,10.1641293 C14.1418529,9.22810026 13.9626473,8.29767136 13.3842293,7.54404796 Z M10.5489413,10.2761328 C10.2481319,10.8121495 9.71531539,11.0929582 9.35850431,10.9033523 C9.0008932,10.7137464 8.95529179,10.1257281 9.25610113,9.58971149 C9.52010933,9.11929688 10.0673263,8.83128793 10.4465381,9.02569397 C10.8065493,9.21049971 10.8497506,9.74011616 10.5489413,10.2761328 Z" id="Shape"></path>
            </g>
        </g>
    </g>
</svg>