<?xml version="1.0" encoding="UTF-8" standalone="no"?>
<svg width="24px" height="24px" viewBox="0 0 24 24" version="1.1" xmlns="http://www.w3.org/2000/svg" xmlns:xlink="http://www.w3.org/1999/xlink">
    <!-- Generator: Sketch 41.2 (35397) - http://www.bohemiancoding.com/sketch -->
    <title>editor/note</title>
    <desc>Created with Sketch.</desc>
    <defs></defs>
    <g id="Editor" stroke="none" stroke-width="1" fill-rule="evenodd">
        <g id="editor/note" fill="currentColor">
            <g id="note" transform="translate(6.000000, 4.000000)">
                <path d="M0,0.496393204 C0,0.222242807 0.229000568,0 0.500347316,0 L11.4996527,0 C11.7759869,0 12,0.22618103 12,0.496393204 L12,15.5036068 C12,15.7777572 11.7709994,16 11.4996527,16 L0.500347316,16 C0.224013124,16 0,15.773819 0,15.5036068 L0,0.496393204 Z M2,3.5 C2,3.22385763 2.23079681,3 2.50043583,3 L9.49956417,3 C9.77594725,3 10,3.23193359 10,3.5 C10,3.77614237 9.76920319,4 9.49956417,4 L2.50043583,4 C2.22405275,4 2,3.76806641 2,3.5 Z M2,6.5 C2,6.22385763 2.23079681,6 2.50043583,6 L9.49956417,6 C9.77594725,6 10,6.23193359 10,6.5 C10,6.77614237 9.76920319,7 9.49956417,7 L2.50043583,7 C2.22405275,7 2,6.76806641 2,6.5 Z M2,9.5 C2,9.22385763 2.21505737,9 2.49047852,9 L5.50952148,9 C5.78040529,9 6,9.23193359 6,9.5 C6,9.77614237 5.78494263,10 5.50952148,10 L2.49047852,10 C2.21959471,10 2,9.76806641 2,9.5 Z" id="Shape"></path>
            </g>
        </g>
    </g>
</svg>