<?xml version="1.0" encoding="UTF-8" standalone="no"?>
<svg width="24px" height="24px" viewBox="0 0 24 24" version="1.1" xmlns="http://www.w3.org/2000/svg" xmlns:xlink="http://www.w3.org/1999/xlink">
    <!-- Generator: Sketch 41.2 (35397) - http://www.bohemiancoding.com/sketch -->
    <title>editor/number-list</title>
    <desc>Created with Sketch.</desc>
    <defs></defs>
    <g id="Editor" stroke="none" stroke-width="1" fill-rule="evenodd">
        <g id="editor/number-list" fill="currentColor">
            <g id="number-list" transform="translate(6.000000, 7.000000)">
                <path d="M4,0.504684448 C4,0.225954924 4.23079681,0 4.50043583,0 L11.4995642,0 C11.7759472,0 12,0.214035034 12,0.504684448 L12,1.49531555 C12,1.77404508 11.7692032,2 11.4995642,2 L4.50043583,2 C4.22405275,2 4,1.78596497 4,1.49531555 L4,0.504684448 Z M4,4.50468445 C4,4.22595492 4.23079681,4 4.50043583,4 L11.4995642,4 C11.7759472,4 12,4.21403503 12,4.50468445 L12,5.49531555 C12,5.77404508 11.7692032,6 11.4995642,6 L4.50043583,6 C4.22405275,6 4,5.78596497 4,5.49531555 L4,4.50468445 Z M4,8.50468445 C4,8.22595492 4.23079681,8 4.50043583,8 L11.4995642,8 C11.7759472,8 12,8.21403503 12,8.50468445 L12,9.49531555 C12,9.77404508 11.7692032,10 11.4995642,10 L4.50043583,10 C4.22405275,10 4,9.78596497 4,9.49531555 L4,8.50468445 Z M0,8 L0,9 L2.5,9 L2.5,8 L0,8 Z M0,10 L0,11 L2.5,11 L2.5,10 L0,10 Z M1,1 L1,3 L2,3 L2,0 L0,0 L0,1 L1,1 Z M0,4 L0,5 L1,5 L1,5.5 L2,5.5 L2,5 L2.5,5 L2.5,4 L0,4 Z M0,6 L0,7 L3,7 L3,6 L0,6 Z M1.5,9 L3,9 L3,10 L1.5,10 L1.5,9 Z" id="Shape"></path>
            </g>
        </g>
    </g>
</svg>