<?xml version="1.0" encoding="UTF-8" standalone="no"?>
<svg width="24px" height="24px" viewBox="0 0 24 24" version="1.1" xmlns="http://www.w3.org/2000/svg" xmlns:xlink="http://www.w3.org/1999/xlink">
    <!-- Generator: Sketch 41.2 (35397) - http://www.bohemiancoding.com/sketch -->
    <title>editor/outdent</title>
    <desc>Created with Sketch.</desc>
    <defs></defs>
    <g id="Editor" stroke="none" stroke-width="1" fill-rule="evenodd">
        <g id="editor/outdent" fill="currentColor">
            <g id="outdent" transform="translate(6.000000, 7.000000)">
                <path d="M3,2.00004182 L3,0 L0,3 L3,6 L3,3.99995907 C3.00311919,3.99998634 3.00624217,4 3.0093689,4 L5.50952148,4 C5.78040529,4 6,3.78596497 6,3.49531555 L6,2.50468445 C6,2.22595492 5.78494263,2 5.50952148,2 L3.0093689,2 C3.00624259,2 3.00311961,2.00001396 3,2.00004182 Z M7,0.504684448 C7,0.225954924 7.22788048,0 7.49100518,0 L12.5089948,0 C12.7801695,0 13,0.214035034 13,0.504684448 L13,1.49531555 C13,1.77404508 12.7721195,2 12.5089948,2 L7.49100518,2 C7.21983051,2 7,1.78596497 7,1.49531555 L7,0.504684448 Z M7,4.50468445 C7,4.22595492 7.22788048,4 7.49100518,4 L12.5089948,4 C12.7801695,4 13,4.21403503 13,4.50468445 L13,5.49531555 C13,5.77404508 12.7721195,6 12.5089948,6 L7.49100518,6 C7.21983051,6 7,5.78596497 7,5.49531555 L7,4.50468445 Z M1,8.50468445 C1,8.22595492 1.22900057,8 1.50034732,8 L12.4996527,8 C12.7759869,8 13,8.21403503 13,8.50468445 L13,9.49531555 C13,9.77404508 12.7709994,10 12.4996527,10 L1.50034732,10 C1.22401312,10 1,9.78596497 1,9.49531555 L1,8.50468445 Z" id="Shape"></path>
            </g>
        </g>
    </g>
</svg>