<?xml version="1.0" encoding="UTF-8" standalone="no"?>
<svg width="24px" height="24px" viewBox="0 0 24 24" version="1.1" xmlns="http://www.w3.org/2000/svg" xmlns:xlink="http://www.w3.org/1999/xlink">
    <!-- Generator: Sketch 41.2 (35397) - http://www.bohemiancoding.com/sketch -->
    <title>editor/panel</title>
    <desc>Created with Sketch.</desc>
    <defs></defs>
    <g id="Editor" stroke="none" stroke-width="1" fill-rule="evenodd">
        <g id="editor/panel" fill="currentColor">
            <g id="panel" transform="translate(5.000000, 5.000000)">
                <path d="M7,14 C10.8659932,14 14,10.8659932 14,7 C14,3.13400675 10.8659932,0 7,0 C3.13400675,0 0,3.13400675 0,7 C0,10.8659932 3.13400675,14 7,14 Z M8,7.79197816 L8,10.5023012 C8,10.7771727 7.78596497,11 7.49531555,11 L6.50468445,11 C6.22595492,11 6,10.7851562 6,10.5023012 L6,7.79197816 C6.30623117,7.92577625 6.64444764,8 7,8 C7.35555236,8 7.69376883,7.92577625 8,7.79197816 Z M7,6 C7.82842712,6 8.5,5.32842712 8.5,4.5 C8.5,3.67157288 7.82842712,3 7,3 C6.17157288,3 5.5,3.67157288 5.5,4.5 C5.5,5.32842712 6.17157288,6 7,6 Z" id="Shape"></path>
            </g>
        </g>
    </g>
</svg>