<?xml version="1.0" encoding="UTF-8" standalone="no"?>
<svg width="24px" height="24px" viewBox="0 0 24 24" version="1.1" xmlns="http://www.w3.org/2000/svg" xmlns:xlink="http://www.w3.org/1999/xlink">
    <!-- Generator: Sketch 41.2 (35397) - http://www.bohemiancoding.com/sketch -->
    <title>editor/photo</title>
    <desc>Created with Sketch.</desc>
    <defs></defs>
    <g id="Editor" stroke="none" stroke-width="1" fill-rule="evenodd">
        <g id="editor/photo" fill="currentColor">
            <g id="photo" transform="translate(5.000000, 7.000000)">
                <path d="M0,1.50964952 C0,1.22817786 0.219906569,1 0.498267412,1 L13.5017326,1 C13.7769181,1 14,1.22765279 14,1.50964952 L14,10.4903505 C14,10.7718221 13.7800934,11 13.5017326,11 L0.498267412,11 C0.223081919,11 0,10.7723472 0,10.4903505 L0,1.50964952 Z M5,0.5 C5,0.223857625 5.21505737,0 5.49047852,0 L8.50952148,0 C8.78040529,0 9,0.231933594 9,0.5 L9,1 L5,1 L5,0.5 Z M7,9.5 C8.93299662,9.5 10.5,7.93299662 10.5,6 C10.5,4.06700338 8.93299662,2.5 7,2.5 C5.06700338,2.5 3.5,4.06700338 3.5,6 C3.5,7.93299662 5.06700338,9.5 7,9.5 Z M7,8 C8.1045695,8 9,7.1045695 9,6 C9,4.8954305 8.1045695,4 7,4 C5.8954305,4 5,4.8954305 5,6 C5,7.1045695 5.8954305,8 7,8 Z" id="Shape"></path>
            </g>
        </g>
    </g>
</svg>