<?xml version="1.0" encoding="UTF-8" standalone="no"?>
<svg width="24px" height="24px" viewBox="0 0 24 24" version="1.1" xmlns="http://www.w3.org/2000/svg" xmlns:xlink="http://www.w3.org/1999/xlink">
    <!-- Generator: Sketch 41.2 (35397) - http://www.bohemiancoding.com/sketch -->
    <title>editor/recent</title>
    <desc>Created with Sketch.</desc>
    <defs></defs>
    <g id="Editor" stroke="none" stroke-width="1" fill-rule="evenodd">
        <g id="editor/recent" fill="currentColor">
            <g id="recent" transform="translate(6.000000, 6.000000)">
                <path d="M6.75,5.68933983 L8.53033009,7.46966991 C8.8232233,7.76256313 8.8232233,8.23743687 8.53033009,8.53033009 C8.23743687,8.8232233 7.76256313,8.8232233 7.46966991,8.53033009 L5.46966991,6.53033009 C5.39644661,6.45710678 5.34152913,6.37250969 5.30491748,6.28222572 C5.27098665,6.20220509 5.25,6.10355339 5.25,6 L5.25,3 C5.25,2.58578644 5.58578644,2.25 6,2.25 C6.41421356,2.25 6.75,2.58578644 6.75,3 L6.75,5.68933983 Z M6,0 C2.68666667,0 -1.13686838e-12,2.686 -1.13686838e-12,6 C-1.13686838e-12,9.31333333 2.68666667,12 6,12 C9.314,12 12,9.31333333 12,6 C12,2.686 9.314,0 6,0 Z" id="Shape"></path>
            </g>
        </g>
    </g>
</svg>