<?xml version="1.0" encoding="UTF-8" standalone="no"?>
<svg width="24px" height="24px" viewBox="0 0 24 24" version="1.1" xmlns="http://www.w3.org/2000/svg" xmlns:xlink="http://www.w3.org/1999/xlink">
    <!-- Generator: Sketch 41.2 (35397) - http://www.bohemiancoding.com/sketch -->
    <title>editor/redo</title>
    <desc>Created with Sketch.</desc>
    <defs></defs>
    <g id="Editor" stroke="none" stroke-width="1" fill-rule="evenodd">
        <g id="editor/redo" fill="currentColor">
            <g id="redo" transform="translate(6.000000, 9.000000)">
                <path d="M2.84619175,2.65834975 C3.83353,1.05503613 5.51127915,0 7.41491046,0 C10.4524766,0 12.9068538,2.6862915 12.9149105,6 L11.4149105,6 C11.4149105,3.48698616 9.59350648,1.5 7.41491046,1.5 C6.07752136,1.5 4.8747381,2.24878474 4.14528563,3.40838194 L6.17420698,4.57978024 C6.41499037,4.71879659 6.39400426,4.90514441 6.14588904,4.98967774 L3.41552804,5.91991695 C3.41511691,5.9465505 3.41491046,5.97324544 3.41491046,6 L3.41491046,5.92012736 L2.04338978,6.38740708 C1.78696682,6.47477087 1.53479035,6.32154979 1.48394075,6.06440904 L0.643160238,1.81267579 C0.590608024,1.5469251 0.749705542,1.44794287 0.983982916,1.58320297 L2.84619175,2.65834975 Z" id="Shape" transform="translate(6.774003, 3.206045) scale(-1, 1) translate(-6.774003, -3.206045) "></path>
            </g>
        </g>
    </g>
</svg>