<?xml version="1.0" encoding="UTF-8" standalone="no"?>
<svg width="24px" height="24px" viewBox="0 0 24 24" version="1.1" xmlns="http://www.w3.org/2000/svg" xmlns:xlink="http://www.w3.org/1999/xlink">
    <!-- Generator: Sketch 41.2 (35397) - http://www.bohemiancoding.com/sketch -->
    <title>editor/table</title>
    <desc>Created with Sketch.</desc>
    <defs></defs>
    <g id="Editor" stroke="none" stroke-width="1" fill-rule="evenodd">
        <g id="editor/table" fill="currentColor">
            <g id="table" transform="translate(6.000000, 6.000000)">
                <path d="M0,0.500347316 C0,0.224013124 0.229000568,0 0.500347316,0 L11.4996527,0 C11.7759869,0 12,0.229000568 12,0.500347316 L12,11.4996527 C12,11.7759869 11.7709994,12 11.4996527,12 L0.500347316,12 C0.224013124,12 0,11.7709994 0,11.4996527 L0,0.500347316 Z M2,7 L5,7 L5,10 L2,10 L2,7 Z M7,2 L10,2 L10,5 L7,5 L7,2 Z M7,7 L10,7 L10,10 L7,10 L7,7 Z M2,2 L5,2 L5,5 L2,5 L2,2 Z" id="Shape"></path>
            </g>
        </g>
    </g>
</svg>