<?xml version="1.0" encoding="UTF-8" standalone="no"?>
<svg width="24px" height="24px" viewBox="0 0 24 24" version="1.1" xmlns="http://www.w3.org/2000/svg" xmlns:xlink="http://www.w3.org/1999/xlink">
    <!-- Generator: Sketch 41.2 (35397) - http://www.bohemiancoding.com/sketch -->
    <title>editor/task</title>
    <desc>Created with Sketch.</desc>
    <defs></defs>
    <g id="Editor" stroke="none" stroke-width="1" fill-rule="evenodd">
        <g id="editor/task" fill="currentColor">
            <g id="task" transform="translate(6.000000, 6.000000)">
                <path d="M0,0.500347316 C0,0.224013124 0.229000568,0 0.500347316,0 L11.4996527,0 C11.7759869,0 12,0.229000568 12,0.500347316 L12,11.4996527 C12,11.7759869 11.7709994,12 11.4996527,12 L0.500347316,12 C0.224013124,12 0,11.7709994 0,11.4996527 L0,0.500347316 Z M4.46966991,9.03033009 L5.06218917,9.62284934 L5.58565161,8.96852129 L9.58565161,3.96852129 C9.84440877,3.64507483 9.79196774,3.17310555 9.46852129,2.91434839 C9.14507483,2.65559123 8.67310555,2.70803226 8.41434839,3.03147871 L4.93896046,7.37830029 L3.53033009,5.96966991 C3.23743687,5.6767767 2.76256313,5.6767767 2.46966991,5.96966991 C2.1767767,6.26256313 2.1767767,6.73743687 2.46966991,7.03033009 L4.46966991,9.03033009 Z" id="Shape"></path>
            </g>
        </g>
    </g>
</svg>