<?xml version="1.0" encoding="UTF-8" standalone="no"?>
<svg width="24px" height="24px" viewBox="0 0 24 24" version="1.1" xmlns="http://www.w3.org/2000/svg" xmlns:xlink="http://www.w3.org/1999/xlink">
    <!-- Generator: Sketch 41.2 (35397) - http://www.bohemiancoding.com/sketch -->
    <title>editor/text-color</title>
    <desc>Created with Sketch.</desc>
    <defs></defs>
    <g id="Editor" stroke="none" stroke-width="1" fill-rule="evenodd">
        <g id="editor/text-color" fill="currentColor">
            <g id="text-color" transform="translate(6.000000, 6.000000)">
                <path d="M0,11.5046844 C0,11.2259549 0.229000568,11 0.500347316,11 L11.4996527,11 C11.7759869,11 12,11.214035 12,11.5046844 L12,12.4953156 C12,12.7740451 11.7709994,13 11.4996527,13 L0.500347316,13 C0.224013124,13 0,12.785965 0,12.4953156 L0,11.5046844 Z M8,7.5 L9,10 L11,10 L7.18556701,0 L4.81443299,0 L1,10 L3,10 L4,7.5 L8,7.5 Z M7.5,5.99999987 L4.5,5.99999987 C4.5,5.99999987 5.57290133,2.89911635 6,1.5 L7.5,5.99999987 Z" id="Shape"></path>
            </g>
        </g>
    </g>
</svg>