<?xml version="1.0" encoding="UTF-8" standalone="no"?>
<svg width="24px" height="24px" viewBox="0 0 24 24" version="1.1" xmlns="http://www.w3.org/2000/svg" xmlns:xlink="http://www.w3.org/1999/xlink">
    <!-- Generator: Sketch 41.2 (35397) - http://www.bohemiancoding.com/sketch -->
    <title>editor/underline</title>
    <desc>Created with Sketch.</desc>
    <defs></defs>
    <g id="Editor" stroke="none" stroke-width="1" fill-rule="evenodd">
        <g id="editor/underline" fill="currentColor">
            <g id="underline" transform="translate(6.000000, 6.000000)">
                <path d="M1,0 L1,5 C1,7.91606658 2.73661118,10 6,10 C9.26338882,10 11,7.91606658 11,5 L11,0 L9,0 L9,5 C9,6.88393342 8.06994452,8 6,8 C3.93005548,8 3,6.88393342 3,5 L3,0 L1,0 Z M0,11.5046844 C0,11.2259549 0.229000568,11 0.500347316,11 L11.4996527,11 C11.7759869,11 12,11.214035 12,11.5046844 L12,12.4953156 C12,12.7740451 11.7709994,13 11.4996527,13 L0.500347316,13 C0.224013124,13 0,12.785965 0,12.4953156 L0,11.5046844 Z" id="Shape"></path>
            </g>
        </g>
    </g>
</svg>