<?xml version="1.0" encoding="UTF-8" standalone="no"?>
<svg width="24px" height="24px" viewBox="0 0 24 24" version="1.1" xmlns="http://www.w3.org/2000/svg" xmlns:xlink="http://www.w3.org/1999/xlink">
    <!-- Generator: Sketch 41.2 (35397) - http://www.bohemiancoding.com/sketch -->
    <title>editor/unlink</title>
    <desc>Created with Sketch.</desc>
    <defs></defs>
    <g id="Editor" stroke="none" stroke-width="1" fill-rule="evenodd">
        <g id="editor/unlink" fill="currentColor">
            <g id="unlink" transform="translate(4.000000, 4.000000)">
                <path d="M1,6 L3,6 L3,5 L1,5 L1,6 Z M5,1 L5,3 L6,3 L6,1 L5,1 Z M12.6464466,13.3535534 L14.6464466,15.3535534 L15.3535534,14.6464466 L13.3535534,12.6464466 L12.6464466,13.3535534 Z M13,11 L15,11 L15,10 L13,10 L13,11 Z M10,13 L10,15 L11,15 L11,13 L10,13 Z M3.35355339,2.64644661 L1.35355339,0.646446609 L0.646446609,1.35355339 L2.64644661,3.35355339 L3.35355339,2.64644661 Z M6.92099194,11.6825503 C6.237688,12.3658542 5.13055411,12.3658085 4.44670704,11.6819614 C3.76194829,10.9972027 3.76104767,9.89274708 4.44611821,9.20767654 L5.50736722,8.14642753 L6.20994675,7.443848 C6.92158078,6.73221397 5.94150322,5.75213642 5.14928658,6.38318782 L4.44670704,7.08576736 L3.38545804,8.14701636 C2.11421348,9.41826092 2.11588857,11.4724633 3.38604687,12.7426216 C4.65566077,14.0122355 6.71254213,14.0123204 7.98165212,12.7432104 L9.04290112,11.6819614 C9.33579434,11.3890682 9.33579434,10.9141945 9.04290112,10.6213013 C8.7500079,10.328408 8.27513417,10.328408 7.98224095,10.6213013 L6.92099194,11.6825503 Z M9.57900806,4.07478669 C10.262312,3.39148275 11.3694459,3.39152846 12.053293,4.07537552 C12.7380517,4.76013427 12.7389523,5.86458988 12.0538818,6.54966042 L10.9926328,7.61090943 L10.2900532,8.31348897 C9.76991427,8.92372509 10.7855259,9.93933669 11.3507134,9.37414914 L12.053293,8.6715696 L13.114542,7.6103206 C14.3857865,6.33907604 14.3841114,4.28487366 13.1139531,3.01471535 C11.8443392,1.74510145 9.78745787,1.74501653 8.51834788,3.01412652 L7.45709888,4.07537552 C7.16420566,4.36826874 7.16420566,4.84314248 7.45709888,5.1360357 C7.7499921,5.42892891 8.22486583,5.42892891 8.51775905,5.1360357 L9.57900806,4.07478669 Z" id="Shape"></path>
            </g>
        </g>
    </g>
</svg>