<?xml version="1.0" encoding="UTF-8" standalone="no"?>
<svg width="24px" height="24px" viewBox="0 0 24 24" version="1.1" xmlns="http://www.w3.org/2000/svg" xmlns:xlink="http://www.w3.org/1999/xlink">
    <!-- Generator: Sketch 41.2 (35397) - http://www.bohemiancoding.com/sketch -->
    <title>editor/warning</title>
    <desc>Created with Sketch.</desc>
    <defs></defs>
    <g id="Editor" stroke="none" stroke-width="1" fill-rule="evenodd">
        <g id="editor/warning" fill="currentColor">
            <g id="warning" transform="translate(3.000000, 4.000000)">
                <path d="M10,10.2080218 L10,6.49769878 C10,6.21484375 9.77404508,6 9.49531555,6 L8.50468445,6 C8.21403503,6 8,6.22282734 8,6.49769878 L8,10.2080218 C8.30623117,10.0742238 8.64444764,10 9,10 C9.35555236,10 9.69376883,10.0742238 10,10.2080218 Z M8.50972949,0.871592015 C8.78049842,0.390225037 9.22247314,0.395507813 9.49027051,0.871592015 L17.5097295,15.128408 C17.7804984,15.609775 17.5550537,16 17.0066023,16 L0.993397683,16 C0.444759292,16 0.222473145,15.6044922 0.490270508,15.128408 L8.50972949,0.871592015 Z M9,14 C9.55228475,14 10,13.5522847 10,13 C10,12.4477153 9.55228475,12 9,12 C8.44771525,12 8,12.4477153 8,13 C8,13.5522847 8.44771525,14 9,14 Z" id="Shape"></path>
            </g>
        </g>
    </g>
</svg>