<?xml version="1.0" encoding="UTF-8" standalone="no"?>
<svg viewBox="0 0 137 40" version="1.1" xmlns="http://www.w3.org/2000/svg" xmlns:xlink="http://www.w3.org/1999/xlink">
    <!-- Generator: Sketch 42 (36781) - http://www.bohemiancoding.com/sketch -->
    <title>template</title>
    <desc>Created with Sketch.</desc>
    <defs></defs>
    <g id="Page-1" stroke="none" stroke-width="1" fill="none" fill-rule="evenodd">
        <g id="template" fill-rule="nonzero" fill="currentColor">
            <g id="logo_template" transform="translate(5.000000, 6.000000)">
                <g id="template">
                    <g id="Page-1">
                        <g id="template">
                            <g id="logo" transform="translate(0.280645, 0.000000)">
                                <g class="logo-type" transform="translate(25.520000, 6.735484)">
                                    <path d="M11.6812,0.754636129 C11.61508,0.538876129 11.4202,0.391556129 11.1998,0.391556129 L6.48092,0.391556129 C6.26052,0.391556129 6.06564,0.538876129 5.99952,0.754636129 L0.0464,20.1301161 C6.92848556e-15,20.2878761 0.02552,20.4595561 0.1218,20.5941161 C0.21692,20.7263561 0.36772,20.8052361 0.5278,20.8052361 L3.7758,20.8052361 C4.00084,20.8052361 4.19804,20.6544361 4.263,20.4340361 L8.36128,6.18343613 C8.36128,6.18343613 8.468,5.82731613 8.8392,5.82731613 C9.21736,5.82731613 9.309,6.19851613 9.309,6.19851613 L11.2114,12.9543561 L8.6536,12.9543561 C8.4274,12.9543561 8.22788,13.1086361 8.1664,13.3325161 L7.43328,16.0086361 C7.39036,16.1652361 7.42168,16.3334361 7.51796,16.4610361 C7.61308,16.5909561 7.76156,16.6675161 7.92048,16.6675161 L12.27048,16.6675161 L13.41888,20.4409961 C13.48268,20.6567561 13.67872,20.8052361 13.90028,20.8052361 L17.14828,20.8052361 C17.31068,20.8052361 17.46148,20.7263561 17.55776,20.5929561 C17.65288,20.4583961 17.67956,20.2867161 17.632,20.1289561 L11.6812,0.754636129" id="Shape"></path>
                                    <path d="M25.8332,17.8193961 C25.81,17.6743961 25.73228,17.5456361 25.6128,17.4644361 C25.49448,17.3832361 25.34948,17.3577161 25.21028,17.3925161 C24.68364,17.5270761 24.17788,17.6013161 23.78812,17.6013161 C23.0492,17.6013161 22.72092,17.2730361 22.72092,16.5341161 L22.72092,9.11011613 L25.62092,9.11011613 C25.89932,9.11011613 26.12552,8.87811613 26.12552,8.59275613 L26.12552,6.27739613 C26.12552,5.99087613 25.89932,5.75887613 25.61976,5.75887613 L22.71976,5.75887613 L22.71976,2.18491613 C22.71976,2.03411613 22.65596,1.89143613 22.54576,1.79283613 C22.43556,1.69423613 22.28824,1.64899613 22.1444,1.66987613 L19.15856,2.09675613 C18.908,2.13155613 18.7224,2.35195613 18.7224,2.61063613 L18.7224,5.75887613 L17.09608,5.75887613 C16.81768,5.75887613 16.59032,5.99087613 16.59032,6.27855613 L16.59032,8.59391613 C16.59032,8.88043613 16.81652,9.11243613 17.09608,9.11243613 L18.7224,9.11243613 L18.7224,17.0166761 C18.7224,19.7310761 20.11208,21.1068361 22.852,21.1068361 C23.63384,21.1068361 24.95856,20.9212361 25.82508,20.6138361 C26.05476,20.5326361 26.19628,20.2925161 26.15916,20.0454361 L25.83436,17.8217161" id="Shape"></path>
                                    <path d="M31.36176,0.013396129 L28.3736,0.013396129 C28.0952,0.013396129 27.869,0.245396129 27.869,0.533076129 L27.869,20.2855561 C27.869,20.5732361 28.09636,20.8052361 28.37476,20.8052361 L31.36292,20.8052361 C31.64132,20.8052361 31.86752,20.5732361 31.86752,20.2855561 L31.86752,0.533076129 C31.86752,0.245396129 31.64248,0.013396129 31.36408,0.013396129" id="Shape"></path>
                                    <path d="M41.04428,15.2882761 L41.04428,17.0932361 C40.54896,17.3635161 39.65228,17.7521161 38.57348,17.7521161 C37.642,17.7521161 37.35896,17.4621161 37.35896,16.5051161 C37.35896,15.5771161 37.53296,15.2871161 38.63148,15.2871161 L41.04428,15.2871161 L41.04428,15.2882761 Z M39.0398,5.45843613 C37.52832,5.45843613 35.6874,5.70203613 34.3534,6.08251613 C34.104,6.15211613 33.9474,6.40383613 33.98916,6.66483613 L34.33948,8.88971613 C34.36268,9.02891613 34.43692,9.15187613 34.54828,9.23307613 C34.6608,9.31427613 34.8,9.34327613 34.93572,9.31659613 C36.17692,9.06835613 37.45872,8.93147613 38.54332,8.93147613 C40.70092,8.93147613 41.04544,9.39895613 41.04544,10.8976761 L41.04544,12.2061561 L37.84384,12.2061561 C34.78492,12.2061561 33.47876,13.5007161 33.47876,16.5364361 C33.47876,19.4410761 34.9102,21.1068361 37.40536,21.1068361 C38.84956,21.1068361 40.29376,20.6961961 41.50944,19.9433561 L41.63704,20.4247561 C41.69736,20.6509561 41.89688,20.8075561 42.12424,20.8075561 L44.53704,20.8075561 C44.81544,20.8075561 45.0428,20.5755561 45.0428,20.2878761 L45.0428,10.9614761 C45.0428,6.95135613 43.41532,5.46075613 39.0398,5.46075613 L39.0398,5.45843613 Z" id="Shape"></path>
                                    <path d="M52.5248,11.4927561 C50.67112,11.0020761 50.67112,10.9823561 50.67112,9.93835613 C50.67112,9.23771613 50.74072,8.90131613 52.26612,8.90131613 C53.31244,8.90131613 54.85524,9.08923613 55.84588,9.26323613 C55.98276,9.28643613 56.12196,9.25163613 56.23332,9.16811613 C56.34352,9.08343613 56.4166,8.95583613 56.43284,8.81547613 L56.71356,6.47923613 C56.74488,6.21591613 56.579,5.96883613 56.32612,5.91083613 C55.18004,5.63591613 53.5862,5.45843613 52.26612,5.45843613 C47.67252,5.45843613 46.73292,7.23787613 46.73292,9.90819613 C46.73292,12.8453161 47.26304,13.8324761 50.78132,14.7105961 C53.10132,15.2847961 53.10132,15.7081961 53.10132,16.4157961 C53.10132,17.3414761 53.02244,17.6616361 51.50516,17.6616361 C50.28368,17.6616361 48.87196,17.4667561 47.62728,17.1257161 C47.48808,17.0885961 47.34424,17.1117961 47.22476,17.1895161 C47.10528,17.2660761 47.02408,17.3913561 46.99856,17.5340361 L46.60416,19.7496361 C46.55776,20.0071561 46.70392,20.2577161 46.9452,20.3377561 C48.3024,20.7878361 50.24772,21.1033561 51.678,21.1033561 C56.1266,21.1033561 57.0372,19.1928361 57.0372,16.3241561 C57.0372,13.1573561 56.48968,12.5692361 52.52248,11.4915961" id="Shape"></path>
                                    <path d="M64.06332,11.4927561 C62.2108,11.0020761 62.2108,10.9823561 62.2108,9.93835613 C62.2108,9.23771613 62.27808,8.90131613 63.80464,8.90131613 C64.85096,8.90131613 66.39376,9.08923613 67.38556,9.26323613 C67.52244,9.28643613 67.66396,9.25163613 67.773,9.16811613 C67.88436,9.08343613 67.95628,8.95583613 67.97368,8.81547613 L68.2544,6.47923613 C68.28572,6.21591613 68.11868,5.96883613 67.86696,5.91083613 C66.72088,5.63591613 65.12588,5.45843613 63.80464,5.45843613 C59.21104,5.45843613 58.27144,7.23787613 58.27144,9.90819613 C58.27144,12.8453161 58.80272,13.8324761 62.32332,14.7105961 C64.63984,15.2847961 64.63984,15.7081961 64.63984,16.4157961 C64.63984,17.3414761 64.56328,17.6616361 63.046,17.6616361 C61.82452,17.6616361 60.41048,17.4667561 59.16696,17.1257161 C59.03124,17.0885961 58.88508,17.1117961 58.76676,17.1895161 C58.64844,17.2660761 58.56608,17.3913561 58.54056,17.5340361 L58.14616,19.7496361 C58.09976,20.0071561 58.24592,20.2577161 58.4872,20.3377561 C59.84208,20.7878361 61.78972,21.1033561 63.22,21.1033561 C67.66744,21.1033561 68.5792,19.1928361 68.5792,16.3241561 C68.5792,13.1573561 68.03052,12.5692361 64.06332,11.4915961" id="Shape"></path>
                                    <path d="M73.7296,0.013396129 L70.74144,0.013396129 C70.46304,0.013396129 70.23568,0.245396129 70.23568,0.531916129 L70.23568,3.24051613 C70.23568,3.52819613 70.46304,3.76019613 70.74144,3.76019613 L73.72844,3.76019613 C74.00684,3.76019613 74.23304,3.52819613 74.23304,3.24167613 L74.23304,0.533076129 C74.23304,0.246556129 74.00568,0.014556129 73.72728,0.014556129" id="Shape"></path>
                                    <path d="M73.7296,5.75771613 L70.74144,5.75771613 C70.46304,5.75771613 70.23568,5.98971613 70.23568,6.27739613 L70.23568,20.2855561 C70.23568,20.5732361 70.46304,20.8052361 70.74144,20.8052361 L73.72844,20.8052361 C74.00684,20.8052361 74.23304,20.5732361 74.23304,20.2855561 L74.23304,6.27739613 C74.23304,5.99087613 74.00568,5.75887613 73.72728,5.75887613" id="Shape"></path>
                                    <path d="M83.4852,15.2882761 L83.4852,17.0932361 C82.99104,17.3635161 82.0932,17.7521161 81.0144,17.7521161 C80.08408,17.7521161 79.79988,17.4621161 79.79988,16.5051161 C79.79988,15.5771161 79.9762,15.2871161 81.07356,15.2871161 L83.48636,15.2871161 L83.4852,15.2882761 Z M81.48188,5.45843613 C79.9704,5.45843613 78.12948,5.70203613 76.79548,6.08251613 C76.54608,6.15211613 76.38948,6.40383613 76.43008,6.66483613 L76.7804,8.88971613 C76.8036,9.02891613 76.87784,9.15187613 76.9892,9.23307613 C77.10172,9.31427613 77.24092,9.34327613 77.37548,9.31659613 C78.61668,9.06835613 79.89964,8.93147613 80.9854,8.93147613 C83.14068,8.93147613 83.4852,9.39895613 83.4852,10.8976761 L83.4852,12.2061561 L80.2836,12.2061561 C77.22468,12.2061561 75.91968,13.5007161 75.91968,16.5364361 C75.91968,19.4410761 77.35112,21.1068361 79.84628,21.1068361 C81.28932,21.1068361 82.73468,20.6961961 83.95036,19.9433561 L84.07796,20.4247561 C84.13944,20.6509561 84.33896,20.8075561 84.56516,20.8075561 L86.97796,20.8075561 C87.25636,20.8075561 87.48488,20.5755561 87.48488,20.2878761 L87.48488,10.9614761 C87.48488,6.95135613 85.8574,5.46075613 81.48304,5.46075613 L81.48188,5.45843613 Z" id="Shape"></path>
                                    <path d="M98.52808,5.45843613 C96.94584,5.45843613 94.7894,6.01871613 92.9682,6.89683613 L92.75012,6.13123613 C92.68748,5.91083613 92.48912,5.76003613 92.26524,5.76003613 L90.05196,5.76003613 C89.77356,5.76003613 89.5462,5.99203613 89.5462,6.27739613 L89.5462,20.2855561 C89.5462,20.5732361 89.77356,20.8052361 90.05196,20.8052361 L93.03896,20.8052361 C93.31736,20.8052361 93.54472,20.5732361 93.54472,20.2855561 L93.54472,10.5833161 C94.62004,10.0218761 96.13152,9.44187613 97.03632,9.44187613 C97.70912,9.44187613 97.95968,9.69707613 97.95968,10.3884361 L97.95968,20.2855561 C97.95968,20.5732361 98.18588,20.8052361 98.46428,20.8052361 L101.45128,20.8052361 C101.72968,20.8052361 101.95588,20.5732361 101.95588,20.2855561 L101.95588,9.99867613 C101.95588,6.98615613 100.80284,5.45843613 98.52576,5.45843613" id="Shape"></path>
                                </g>
                                <g class="logo-icon">
                                    <path d="M29.23896,0.3074 C29.10904,0.12876 28.90024,0.02088 28.68216,0.02088 C28.56964,0.02088 28.45944,0.04988 28.362,0.1044 C24.28228,2.39656 19.55296,3.6076 14.6856,3.60992 C9.81824,3.60992 5.09008,2.39656 1.0092,0.10672 C0.91292,0.04872 0.80272,0.02088 0.6902,0.02088 C0.47212,0.02088 0.26332,0.12876 0.1334,0.3074 C-0.05916,0.57072 -0.0638,1.01268 0.26332,1.276 C2.30492,2.83968 4.5588,4.06 6.95652,4.8952 C9.44356,5.76056 12.04428,6.2002 14.6856,6.20136 C17.32808,6.20136 19.9288,5.76056 22.41468,4.8952 C24.81356,4.06 27.06628,2.83968 29.11136,1.276 C29.43616,1.01268 29.43152,0.57072 29.23896,0.3074" id="Shape"></path>
                                    <path d="M14.68908,8.50976 C15.73308,8.50976 16.33628,8.44596 16.54972,8.44596 C16.80724,8.44596 17.05316,8.66404 17.05316,8.96796 C17.05316,9.05496 17.0346,9.11876 17.01372,9.17444 C16.87452,9.55376 16.24464,10.91908 15.07188,12.09068 C14.93964,12.22176 14.79116,12.24728 14.68908,12.24728 L14.68676,12.24728 C14.58468,12.24728 14.43504,12.22176 14.30396,12.09068 C13.13004,10.91908 12.499,9.55376 12.36096,9.17444 C12.34008,9.11876 12.32036,9.05496 12.32036,8.96564 C12.32036,8.66404 12.56628,8.44712 12.8238,8.44712 C13.03608,8.44712 13.6416,8.51208 14.68328,8.51208 L14.69024,8.51208" id="Shape"></path>
                                    <path d="M24.55024,6.83704 C24.4528,6.76048 24.3368,6.72104 24.21848,6.72104 C24.15236,6.72104 24.08624,6.73264 24.02128,6.75816 C22.8404,7.22216 21.6398,7.5748 20.5436,7.83696 C20.32088,7.89032 20.13992,8.06084 20.06452,8.26616 C19.26644,10.51076 17.22716,12.64748 15.08812,14.88744 C15.00228,14.97096 14.88164,15.08116 14.68676,15.08116 C14.49188,15.08116 14.37356,14.97676 14.2854,14.8886 C12.14636,12.6498 10.1094,10.51888 9.309,8.27428 C9.23476,8.07012 9.0538,7.8996 8.82992,7.84508 C7.73488,7.58408 6.5308,7.21868 5.34992,6.75468 C5.28728,6.73148 5.22232,6.71988 5.15504,6.71988 C5.03672,6.71988 4.92304,6.757 4.82444,6.83356 C4.67364,6.95188 4.59476,7.14444 4.61216,7.32888 C4.79312,9.19648 5.51232,11.02116 6.8092,12.93168 C8.0272,14.72968 9.61872,16.39544 11.15572,18.00436 C13.9896,20.97048 16.66572,23.77188 16.90004,27.01988 C16.92092,27.3122 17.15872,27.53956 17.44524,27.53956 L20.77444,27.53956 C20.92524,27.53956 21.06676,27.47576 21.17116,27.36556 C21.27208,27.25304 21.3266,27.1034 21.31964,26.95028 C21.21524,24.77876 20.41832,22.60376 18.88596,20.30348 C18.56464,19.81976 18.22012,19.34996 17.86052,18.8906 C17.71436,18.705 17.77468,18.473 17.8872,18.35468 L18.21896,18.00436 C19.75712,16.39544 21.34632,14.73084 22.56664,12.93284 C23.86352,11.02116 24.58156,9.20692 24.76252,7.34164 C24.78108,7.15256 24.69756,6.95304 24.55024,6.8382" id="Shape"></path>
                                    <path d="M11.11512,20.52968 C11.03624,20.44616 10.92024,20.35916 10.72652,20.35916 C10.47828,20.35916 10.33212,20.53664 10.27412,20.62364 C8.87516,22.81024 8.15132,24.87388 8.05156,26.94796 C8.04576,27.10108 8.10028,27.25304 8.20236,27.36556 C8.30676,27.47576 8.45176,27.53956 8.6014,27.53956 L11.9248,27.53956 C12.209,27.53956 12.45028,27.30988 12.47,27.01756 C12.54308,26.01764 12.847,25.0154 13.398,23.96328 C13.5894,23.59904 13.44092,23.25568 13.33072,23.11068 C12.7832,22.37988 12.11272,21.60036 11.11512,20.53084" id="Shape"></path>
                                </g>
                            </g>
                        </g>
                    </g>
                </g>
            </g>
        </g>
    </g>
</svg>
