<?xml version="1.0" encoding="UTF-8" standalone="no"?>
<svg viewBox="0 0 178 40" version="1.1" xmlns="http://www.w3.org/2000/svg" xmlns:xlink="http://www.w3.org/1999/xlink">
    <!-- Generator: Sketch 42 (36781) - http://www.bohemiancoding.com/sketch -->
    <title>template</title>
    <desc>Created with Sketch.</desc>
    <defs></defs>
    <g id="Page-1" stroke="none" stroke-width="1" fill="none" fill-rule="evenodd">
        <g id="template" fill-rule="nonzero" fill="currentColor">
            <g id="bitbucket_rgb_blue" transform="translate(7.000000, 5.000000)">
                <g id="bitbucket">
                    <g id="Group">
                        <g class="logo-type" transform="translate(31.309829, 1.633803)">
                            <path d="M50.459325,6.9028169 C48.6009352,6.9028169 46.7223454,7.37253521 45.4295524,7.84225352 L45.4295524,0.796478873 C45.4295524,0.449295775 45.146754,0.163380282 44.783156,0.163380282 L41.0259764,0.163380282 C40.6825783,0.163380282 40.3997799,0.449295775 40.3997799,0.796478873 L40.3997799,25.0992958 C40.3997799,25.4056338 40.6219786,25.6711268 40.924977,25.7323944 C43.2479643,26.1612676 45.9749495,26.3042254 47.6313404,26.3042254 C54.7013019,26.3042254 56.1354941,23.2612676 56.1354941,18.7070423 L56.1354941,13.3971831 C56.1354941,9.06760563 54.2367045,6.9028169 50.459325,6.9028169 Z M47.8535392,21.8929577 C46.9041444,21.8929577 46.1163487,21.8521127 45.4497523,21.7704225 L45.4497523,12.2535211 C46.4799467,11.7838028 47.9343388,11.3140845 49.1059324,11.3140845 C50.5401246,11.3140845 51.1057215,11.8859155 51.1057215,13.2746479 L51.1057215,18.85 C51.1057215,20.8514085 50.6007243,21.8929577 47.8535392,21.8929577 Z" id="Shape"></path>
                            <path d="M73.4467998,7.27042254 L69.6896202,7.27042254 C69.3462221,7.27042254 69.0634237,7.55633803 69.0634237,7.90352113 L69.0634237,19.9323944 C67.710031,20.6267606 65.7910415,21.3415493 64.6598477,21.3415493 C63.8114523,21.3415493 63.5084539,21.0352113 63.5084539,20.1774648 L63.5084539,7.90352113 C63.5084539,7.55633803 63.2256555,7.27042254 62.8620575,7.27042254 L59.1048779,7.27042254 C58.7412799,7.27042254 58.4584814,7.55633803 58.4584814,7.90352113 L58.4584814,20.6676056 C58.4584814,24.4049296 59.9128735,26.3042254 62.7812579,26.3042254 C64.781047,26.3042254 67.4878322,25.6098592 69.7906197,24.5274648 L70.0734182,25.4669014 C70.1542177,25.7323944 70.3966164,25.9366197 70.6794149,25.9366197 L73.4669997,25.9366197 C73.8103978,25.9366197 74.1133961,25.6507042 74.1133961,25.3035211 L74.1133961,7.90352113 C74.0931963,7.55633803 73.8103978,7.27042254 73.4467998,7.27042254 Z" id="Shape"></path>
                            <path d="M88.5967172,21.9950704 C88.5765173,21.8112676 88.4755179,21.6683099 88.3341187,21.5661972 C88.1927194,21.4640845 88.0109204,21.4232394 87.8291214,21.4640845 C86.7585272,21.7091549 85.6273334,21.8521127 84.5567392,21.8521127 C82.1731522,21.8521127 81.486356,21.2394366 81.486356,19.115493 L81.486356,14.0915493 C81.486356,11.9676056 82.1731522,11.3549296 84.5567392,11.3549296 C85.1223362,11.3549296 86.5363284,11.4366197 87.8291214,11.7429577 C88.0109204,11.7838028 88.1927194,11.7429577 88.3341187,11.6408451 C88.4755179,11.5387324 88.5765173,11.3753521 88.5967172,11.2119718 L89.0411148,8.20985915 C89.0815146,7.88309859 88.8997156,7.5971831 88.5967172,7.49507042 C87.1423251,7.06619718 85.4455344,6.9028169 84.4557398,6.9028169 C78.7795707,6.9028169 76.4565834,8.98591549 76.4565834,14.1323944 L76.4565834,19.0746479 C76.4565834,24.2007042 78.7795707,26.3042254 84.4557398,26.3042254 C85.8293323,26.3042254 87.4251236,26.0795775 88.5967172,25.7119718 C88.8997156,25.6302817 89.0815146,25.3239437 89.0411148,24.9971831 L88.5967172,21.9950704 Z" id="Shape"></path>
                            <path d="M114.492976,6.9028169 C109.443004,6.9028169 106.796818,9.43521127 106.796818,14.234507 L106.796818,19.0338028 C106.796818,23.9964789 109.301604,26.3042254 114.654575,26.3042254 C116.836163,26.3042254 119.159151,25.9161972 121.03774,25.2422535 C121.340739,25.1401408 121.522538,24.8133803 121.441738,24.5070423 L120.876141,21.7908451 C120.835742,21.6070423 120.734742,21.4640845 120.573143,21.3619718 C120.411544,21.2598592 120.229745,21.2394366 120.068146,21.3007042 C118.330955,21.7908451 116.694764,22.0359155 115.038373,22.0359155 C112.291188,22.0359155 111.806391,21.1373239 111.806391,19.2584507 L111.806391,18.6049296 L121.13874,18.6049296 C121.502338,18.6049296 121.764936,18.3190141 121.764936,17.9514085 L121.764936,14.4591549 C121.785136,9.29225352 119.482349,6.9028169 114.492976,6.9028169 Z M111.826591,14.3978873 L111.826591,13.7852113 C111.826591,11.9880282 112.695186,11.1507042 114.533376,11.1507042 C116.573565,11.1507042 116.977563,12.1514085 116.977563,13.7852113 L116.977563,14.3978873 L111.826591,14.3978873 Z" id="Shape"></path>
                            <path d="M24.0580689,7.25 L20.3008894,7.25 C19.9574912,7.25 19.6544929,7.53591549 19.6544929,7.88309859 L19.6544929,25.2626761 C19.6544929,25.6098592 19.9372914,25.9161972 20.3008894,25.9161972 L24.0580689,25.9161972 C24.4216669,25.9161972 24.7044654,25.6302817 24.7044654,25.2626761 L24.7044654,7.90352113 C24.6842655,7.55633803 24.401467,7.25 24.0580689,7.25 Z" id="Shape"></path>
                            <path d="M24.0580689,0.142957746 L20.3008894,0.142957746 C19.9574912,0.142957746 19.6544929,0.428873239 19.6544929,0.796478873 L19.6544929,4.06408451 C19.6544929,4.43169014 19.9372914,4.71760563 20.3008894,4.71760563 L24.0580689,4.71760563 C24.4216669,4.71760563 24.7044654,4.43169014 24.7044654,4.06408451 L24.7044654,0.796478873 C24.6842655,0.428873239 24.401467,0.142957746 24.0580689,0.142957746 Z" id="Shape"></path>
                            <path d="M14.5843205,12.6823944 C16.1397121,11.8246479 16.8265083,10.5992958 16.8265083,8.74084507 L16.8265083,6.16760563 C16.8265083,2.43028169 14.6045204,0.612676056 10.0393453,0.612676056 L0.767595817,0.612676056 C0.424197688,0.612676056 0.141399229,0.898591549 0.141399229,1.24577465 L0.141399229,25.2626761 C0.141399229,25.6098592 0.424197688,25.9161972 0.767595817,25.9161972 L10.7059417,25.9161972 C15.1297176,25.9161972 17.6749037,23.7514085 17.6749037,19.9528169 L17.6749037,17.3183099 C17.6749037,15.0514085 16.52351,13.3767606 14.5843205,12.6823944 Z M5.31257105,5.02394366 L9.49394827,5.02394366 C11.3927379,5.02394366 11.6553365,5.86126761 11.6553365,6.75985915 L11.6553365,8.94507042 C11.6553365,10.3746479 10.9887401,10.9669014 9.45354849,10.9669014 L8.54455344,10.9669014 C8.18095542,10.9669014 7.89815696,11.2528169 7.89815696,11.6204225 L7.89815696,14.6429577 C7.89815696,15.0105634 8.18095542,15.2964789 8.54455344,15.2964789 L10.1807445,15.2964789 C11.8169356,15.2964789 12.483532,15.9295775 12.483532,17.5021127 L12.483532,19.3605634 C12.483532,20.9535211 11.7967357,21.5049296 9.77674672,21.5049296 L5.31257105,21.5049296 L5.31257105,5.02394366 L5.31257105,5.02394366 Z" id="Shape"></path>
                            <path d="M38.177792,22.2197183 C38.1575921,22.0359155 38.0565926,21.8725352 37.9151934,21.7704225 C37.7737942,21.6683099 37.5717953,21.6274648 37.4101961,21.6887324 C36.7435998,21.8521127 36.1174032,21.9542254 35.6124059,21.9542254 C34.683211,21.9542254 34.2792132,21.5457746 34.2792132,20.6267606 L34.2792132,11.4366197 L37.9353933,11.4366197 C38.2787914,11.4366197 38.5615899,11.1507042 38.5615899,10.7830986 L38.5615899,7.90352113 C38.5615899,7.55633803 38.2787914,7.27042254 37.9353933,7.27042254 L34.2792132,7.27042254 L34.2792132,2.83873239 C34.2792132,2.65492958 34.1984136,2.47112676 34.0570144,2.34859155 C33.9156152,2.22605634 33.7338162,2.16478873 33.5520172,2.2056338 L29.7948376,2.73661972 C29.4716394,2.77746479 29.2494406,3.06338028 29.2494406,3.36971831 L29.2494406,7.27042254 L27.2092517,7.27042254 C26.8658536,7.27042254 26.5628553,7.55633803 26.5628553,7.90352113 L26.5628553,10.7830986 C26.5628553,11.1302817 26.8456537,11.4366197 27.2092517,11.4366197 L29.2494406,11.4366197 L29.2494406,21.2394366 C29.2494406,24.6091549 30.9866311,26.3042254 34.4408123,26.3042254 C35.4306069,26.3042254 37.0869979,26.0795775 38.177792,25.6915493 C38.4807903,25.5894366 38.6423894,25.3035211 38.6019897,24.9767606 L38.177792,22.2197183 Z" id="Shape"></path>
                            <path d="M134.187869,22.2197183 C134.167669,22.0359155 134.066669,21.8725352 133.90507,21.7704225 C133.763671,21.6683099 133.561672,21.6274648 133.400073,21.6887324 C132.733477,21.8521127 132.10728,21.9542254 131.602283,21.9542254 C130.673088,21.9542254 130.24889,21.5457746 130.24889,20.6267606 L130.24889,11.4366197 L133.90507,11.4366197 C134.268668,11.4366197 134.531267,11.1507042 134.531267,10.8035211 L134.531267,7.90352113 C134.531267,7.55633803 134.248468,7.27042254 133.90507,7.27042254 L130.24889,7.27042254 L130.24889,2.83873239 C130.24889,2.65492958 130.168091,2.47112676 130.026691,2.34859155 C129.885292,2.22605634 129.703493,2.16478873 129.521694,2.2056338 L125.764515,2.73661972 C125.441316,2.77746479 125.219118,3.06338028 125.219118,3.36971831 L125.219118,7.27042254 L123.178929,7.27042254 C122.835531,7.27042254 122.552732,7.55633803 122.552732,7.90352113 L122.552732,10.7830986 C122.552732,11.1302817 122.835531,11.4161972 123.178929,11.4161972 L125.219118,11.4161972 L125.219118,21.2190141 C125.219118,24.5887324 126.976508,26.2838028 130.410489,26.2838028 C131.400284,26.2838028 133.056675,26.0591549 134.147469,25.6711268 C134.430267,25.5690141 134.612066,25.2830986 134.571667,24.956338 L134.187869,22.2197183 Z" id="Shape"></path>
                            <path d="M106.211021,24.8542254 L101.181249,16.4605634 L106.029222,8.20985915 C106.150422,8.0056338 106.150422,7.76056338 106.029222,7.55633803 C105.908023,7.35211268 105.706024,7.22957746 105.483825,7.22957746 L101.322648,7.22957746 C101.100449,7.22957746 100.87825,7.35211268 100.777251,7.55633803 L96.1716759,15.643662 L96.1716759,0.796478873 C96.1716759,0.449295775 95.8888775,0.142957746 95.5252795,0.142957746 L91.7680999,0.142957746 C91.4247018,0.142957746 91.1217035,0.428873239 91.1217035,0.796478873 L91.1217035,25.2830986 C91.1217035,25.6302817 91.4045019,25.9161972 91.7680999,25.9161972 L95.5252795,25.9161972 C95.8686776,25.9161972 96.1716759,25.6302817 96.1716759,25.2830986 L96.1716759,17.2774648 L101.080249,25.5894366 C101.201449,25.793662 101.403447,25.8957746 101.625646,25.8957746 L105.706024,25.8957746 L105.706024,25.8957746 C106.049422,25.8957746 106.35242,25.6098592 106.35242,25.2626761 C106.332221,25.0992958 106.291821,24.956338 106.211021,24.8542254 Z" id="Shape"></path>
                        </g>
                        <g class="logo-icon">
                            <path d="M12.3623326,0.0408450704 L12.3623326,0.0408450704 L12.3623326,0.0408450704 C5.55496973,0.0408450704 0,1.89929577 0,4.18661972 C0,4.79929577 1.47459196,13.4584507 2.08058866,16.9098592 C2.34318723,18.4619718 6.28216577,20.7084507 12.3623326,20.7084507 L12.3623326,20.6880282 L12.3623326,20.7084507 C18.4424995,20.7084507 22.381478,18.4415493 22.6440766,16.9098592 C23.2298734,13.4788732 24.7246653,4.79929577 24.7246653,4.18661972 C24.7044654,1.89929577 19.1494957,0.0408450704 12.3623326,0.0408450704 Z M12.3623326,17.9309859 C10.2009444,17.9309859 8.44355399,16.1542254 8.44355399,13.9690141 C8.44355399,11.7838028 10.2009444,10.0070423 12.3623326,10.0070423 C14.5237209,10.0070423 16.2811113,11.7838028 16.2811113,13.9690141 C16.2811113,16.1542254 14.5237209,17.9309859 12.3623326,17.9309859 Z M12.3623326,5.47323944 C7.99915641,5.47323944 4.44397578,4.6971831 4.44397578,3.75774648 C4.44397578,2.81830986 7.99915641,2.06267606 12.3623326,2.06267606 C16.7255089,2.06267606 20.2806895,2.83873239 20.2806895,3.77816901 C20.2604896,4.71760563 16.7255089,5.47323944 12.3623326,5.47323944 Z" id="Shape"></path>
                            <path d="M21.2300843,20.3612676 C21.0482853,20.3612676 20.8866862,20.5042254 20.8866862,20.5042254 C20.8866862,20.5042254 17.8365028,22.934507 12.3421327,22.934507 C6.84776269,22.934507 3.79757931,20.5042254 3.79757931,20.5042254 C3.79757931,20.5042254 3.65618008,20.3612676 3.45418118,20.3612676 C3.23198239,20.3612676 3.0097836,20.5042254 3.0097836,20.8514085 L3.0097836,20.9535211 C3.47438107,23.506338 3.8177792,25.3239437 3.87837887,25.5894366 C4.28237666,27.4683099 7.91835685,28.8978873 12.301733,28.8978873 L12.301733,28.8978873 L12.301733,28.8978873 L12.301733,28.8978873 L12.301733,28.8978873 C16.6851091,28.8978873 20.3210893,27.4887324 20.7250871,25.5894366 C20.7856867,25.3035211 21.1290849,23.506338 21.5936823,20.9535211 L21.5936823,20.8514085 C21.6744819,20.5042254 21.4522831,20.3612676 21.2300843,20.3612676 Z" id="Shape"></path>
                            <ellipse id="Oval" cx="12.3623326" cy="13.9485915" rx="1.95938932" ry="1.98098592"></ellipse>
                        </g>
                    </g>
                </g>
            </g>
        </g>
    </g>
</svg>
