<?xml version="1.0" encoding="UTF-8" standalone="no"?>
<svg viewBox="0 0 186 40" version="1.1" xmlns="http://www.w3.org/2000/svg" xmlns:xlink="http://www.w3.org/1999/xlink">
    <!-- Generator: Sketch 42 (36781) - http://www.bohemiancoding.com/sketch -->
    <title>template</title>
    <desc>Created with Sketch.</desc>
    <defs></defs>
    <g id="Page-1" stroke="none" stroke-width="1" fill="none" fill-rule="evenodd">
        <g id="template" fill-rule="nonzero" fill="currentColor">
            <g id="confluence_rgb_blue" transform="translate(5.000000, 8.000000)">
                <g id="Conf_-_Blue">
                    <g id="Group">
                        <g class="logo-type" transform="translate(32.599074, 0.000000)">
                            <path d="M23.224079,6.61455917 C18.3609806,6.61455917 15.7896872,8.96226186 15.7896872,13.3781788 L15.7896872,17.5518725 C15.7896872,21.9677895 18.3609806,24.3154922 23.224079,24.3154922 C28.0871775,24.3154922 30.6584709,21.9677895 30.6584709,17.5518725 L30.6584709,13.3781788 C30.6584709,8.9436293 28.0871775,6.61455917 23.224079,6.61455917 Z M20.4291949,13.2291183 C20.4291949,11.4031274 21.2676601,10.6391924 23.224079,10.6391924 C25.1804979,10.6391924 26.0189632,11.4217599 26.0189632,13.2291183 L26.0189632,17.6636679 C26.0189632,19.4896588 25.1804979,20.2535938 23.224079,20.2535938 C21.2676601,20.2535938 20.4291949,19.4710263 20.4291949,17.6636679 L20.4291949,13.2291183 Z" id="Shape"></path>
                            <path d="M43.2540822,6.61455917 C41.4094586,6.61455917 38.9126954,7.24806624 36.807216,8.23559198 L36.5463602,7.37849417 C36.4718299,7.13627088 36.2482392,6.94994527 35.9873834,6.94994527 L33.4160899,6.94994527 C33.0993364,6.94994527 32.819848,7.21080112 32.819848,7.54618722 L32.819848,23.3838641 C32.819848,23.7006176 33.0807038,23.9614735 33.4160899,23.9614735 L36.8817463,23.9614735 C37.1984998,23.9614735 37.4779882,23.7006176 37.4779882,23.3838641 L37.4779882,12.4092857 C38.7263698,11.7757786 40.4778306,11.1236389 41.5398865,11.1236389 C42.3224541,11.1236389 42.6019425,11.4217599 42.6019425,12.1856949 L42.6019425,23.3838641 C42.6019425,23.7006176 42.8627984,23.9614735 43.1981845,23.9614735 L46.6638408,23.9614735 C46.9805944,23.9614735 47.2600828,23.7006176 47.2600828,23.3838641 L47.2600828,11.757146 C47.2414502,8.34738734 45.8999058,6.61455917 43.2540822,6.61455917 Z" id="Shape"></path>
                            <path d="M59.7438987,0.372651221 C58.8122706,0.130427927 57.7315821,0 56.7254238,0 C53.0175441,0 51.2101857,1.75146074 51.2101857,5.36617758 L51.2101857,7.41575929 L49.2910319,7.41575929 C48.9742784,7.41575929 48.69479,7.67661515 48.69479,8.01200125 L48.69479,10.6391924 C48.69479,10.9559459 48.9556458,11.2168017 49.2910319,11.2168017 L51.2101857,11.2168017 L51.2101857,23.3652315 C51.2101857,23.6819851 51.4710416,23.9428409 51.7877951,23.9428409 L55.2534515,23.9428409 C55.570205,23.9428409 55.8310609,23.6819851 55.8310609,23.3652315 L55.8310609,11.2168017 L59.2408195,11.2168017 C59.5389405,11.2168017 59.7997964,10.9745785 59.8184289,10.6764575 L59.8184289,8.04926637 C59.8184289,7.86294076 59.7811638,7.73251283 59.6693684,7.6020849 C59.5575731,7.49028954 59.4085126,7.41575929 59.2408195,7.41575929 L55.8310609,7.41575929 L55.8310609,5.58976831 C55.8310609,4.32275416 56.0732842,3.8755727 57.4520937,3.8755727 C57.8806426,3.8755727 58.5141496,3.95010294 59.1290242,4.04326575 C59.2780846,4.06189831 59.4457777,4.02463318 59.5762056,3.93147038 C59.7066336,3.83830757 59.7811638,3.68924709 59.8184289,3.5401866 L60.1724476,0.987525735 C60.2097127,0.72666988 60.0233871,0.447181465 59.7438987,0.372651221 Z" id="Shape"></path>
                            <path d="M66.0044392,0.465814026 L62.5387828,0.465814026 C62.2220293,0.465814026 61.9425409,0.72666988 61.9425409,1.06205598 L61.9425409,23.4024967 C61.9425409,23.7192502 62.2033967,23.9801061 62.5387828,23.9801061 L66.0044392,23.9801061 C66.3211927,23.9801061 66.6006811,23.7192502 66.6006811,23.4024967 L66.6006811,1.04342342 C66.6006811,0.72666988 66.3211927,0.465814026 66.0044392,0.465814026 Z" id="Shape"></path>
                            <path d="M82.9787023,6.94994527 L79.5130459,6.94994527 C79.1962924,6.94994527 78.916804,7.21080112 78.916804,7.54618722 L78.916804,18.5207657 C77.6684224,19.1542727 75.9169617,19.8064124 74.8549057,19.8064124 C74.0723381,19.8064124 73.7928497,19.5082914 73.7928497,18.7443564 L73.7928497,7.54618722 C73.7928497,7.22943368 73.5319938,6.94994527 73.1966077,6.94994527 L69.7309514,6.94994527 C69.4141979,6.94994527 69.1347094,7.21080112 69.1347094,7.54618722 L69.1347094,19.1729053 C69.1347094,22.582664 70.4762538,24.3154922 73.1220775,24.3154922 C74.966701,24.3154922 77.4634642,23.6819851 79.5689436,22.6944593 L79.8297995,23.5515572 C79.9043297,23.7937804 80.1279204,23.9801061 80.3887763,23.9801061 L82.9600697,23.9801061 C83.2768233,23.9801061 83.5563117,23.7192502 83.5563117,23.4024967 L83.5563117,7.56481978 C83.5749442,7.21080112 83.3140884,6.94994527 82.9787023,6.94994527 Z" id="Shape"></path>
                            <path d="M92.6862666,6.61455917 C88.0467589,6.61455917 85.5872608,8.92499674 85.5872608,13.3036486 L85.5872608,17.6823004 C85.5872608,22.2100128 87.8790658,24.3154922 92.8166945,24.3154922 C94.8290111,24.3154922 96.9717556,23.9614735 98.7045838,23.346599 C98.9840722,23.2534362 99.1331327,22.9553152 99.077235,22.6758268 L98.5555233,20.1976962 C98.5182582,20.0300031 98.4250954,19.8995752 98.2946675,19.8064124 C98.1642395,19.7132496 97.9779139,19.694617 97.8288534,19.7505147 C96.2450857,20.1976962 94.7172157,20.4212869 93.1893457,20.4212869 C90.6553174,20.4212869 90.2267685,19.6014542 90.2267685,17.8872586 L90.2267685,17.2910166 L98.8350117,17.2910166 C99.1517653,17.2910166 99.4312537,17.0301608 99.4312537,16.7134073 L99.4312537,13.5272393 C99.4126211,8.79456881 97.2885092,6.61455917 92.6862666,6.61455917 Z M90.2267685,13.4527091 L90.2267685,12.8937322 C90.2267685,11.2540669 91.0279687,10.5087644 92.7235317,10.5087644 C94.6054204,10.5087644 94.9780716,11.4217599 94.9780716,12.8937322 L94.9780716,13.4527091 L90.2267685,13.4527091 Z" id="Shape"></path>
                            <path d="M111.952335,6.61455917 C110.107711,6.61455917 107.610948,7.24806624 105.505469,8.23559198 L105.244613,7.37849417 C105.170082,7.13627088 104.946492,6.94994527 104.685636,6.94994527 L102.114342,6.94994527 C101.797589,6.94994527 101.518101,7.21080112 101.518101,7.54618722 L101.518101,23.3838641 C101.518101,23.7006176 101.778956,23.9614735 102.114342,23.9614735 L105.579999,23.9614735 C105.896752,23.9614735 106.176241,23.7006176 106.176241,23.3838641 L106.176241,12.4092857 C107.424622,11.7757786 109.176083,11.1236389 110.238139,11.1236389 C111.020707,11.1236389 111.300195,11.4217599 111.300195,12.1856949 L111.300195,23.3838641 C111.300195,23.7006176 111.561051,23.9614735 111.896437,23.9614735 L115.362093,23.9614735 C115.678847,23.9614735 115.958335,23.7006176 115.958335,23.3838641 L115.958335,11.757146 C115.92107,8.34738734 114.579526,6.61455917 111.952335,6.61455917 Z" id="Shape"></path>
                            <path d="M129.280616,20.3840218 C129.261984,20.2163287 129.168821,20.0859008 129.038393,19.992738 C128.907965,19.8995752 128.740272,19.8623101 128.572579,19.8995752 C127.585053,20.1231659 126.54163,20.2535938 125.554104,20.2535938 C123.355462,20.2535938 122.721955,19.694617 122.721955,17.7568307 L122.721955,13.1732207 C122.721955,11.2354343 123.355462,10.6764575 125.554104,10.6764575 C126.150346,10.6764575 127.454625,10.7696203 128.572579,11.0304761 C128.740272,11.0677413 128.907965,11.0304761 129.038393,10.9373133 C129.168821,10.8441505 129.261984,10.69509 129.280616,10.5460295 L129.690533,7.80704307 C129.727798,7.5089221 129.560105,7.24806624 129.280616,7.15490344 C127.939072,6.76361966 126.39257,6.61455917 125.460941,6.61455917 C120.225192,6.61455917 118.082447,8.53371296 118.082447,13.2104858 L118.082447,17.7195655 C118.082447,22.3963384 120.225192,24.3154922 125.460941,24.3154922 C126.727956,24.3154922 128.199928,24.110534 129.299249,23.7751479 C129.578737,23.6819851 129.74643,23.4211292 129.709165,23.1230082 L129.280616,20.3840218 Z" id="Shape"></path>
                            <path d="M138.056553,6.61455917 C133.417045,6.61455917 130.957547,8.92499674 130.957547,13.3036486 L130.957547,17.6823004 C130.957547,22.2100128 133.249352,24.3154922 138.186981,24.3154922 C140.199297,24.3154922 142.342042,23.9614735 144.07487,23.346599 C144.354358,23.2534362 144.503419,22.9553152 144.447521,22.6758268 L143.925809,20.1976962 C143.888544,20.0300031 143.795382,19.8995752 143.664954,19.8064124 C143.534526,19.7132496 143.3482,19.694617 143.19914,19.7505147 C141.615372,20.1976962 140.087502,20.4212869 138.559632,20.4212869 C136.025604,20.4212869 135.597055,19.6014542 135.597055,17.8872586 L135.597055,17.2910166 L144.205298,17.2910166 C144.522051,17.2910166 144.80154,17.0301608 144.80154,16.7134073 L144.80154,13.5272393 C144.782907,8.79456881 142.658795,6.61455917 138.056553,6.61455917 Z M135.597055,13.4527091 L135.597055,12.8937322 C135.597055,11.2540669 136.398255,10.5087644 138.093818,10.5087644 C139.975707,10.5087644 140.348358,11.4217599 140.348358,12.8937322 L140.348358,13.4527091 L135.597055,13.4527091 Z" id="Shape"></path>
                            <path d="M8.42982558,4.95626124 C9.82726765,4.95626124 11.7464214,5.14258685 13.5724124,5.45934038 C13.7214729,5.47797295 13.889166,5.44070782 14.0195939,5.34754502 C14.1500218,5.25438221 14.2245521,5.10532172 14.2618172,4.95626124 L14.653101,1.90052123 C14.6903661,1.60240025 14.5040405,1.32291183 14.2059195,1.24838159 C12.361296,0.801200125 10.2744491,0.558976831 8.29939765,0.558976831 C2.80279214,0.558976831 0.0079079876,2.85078184 0.0079079876,7.35986161 L0.0079079876,17.5332399 C0.0079079876,22.0423197 2.80279214,24.3341247 8.29939765,24.3341247 C10.2744491,24.3341247 12.361296,24.0919014 14.2059195,23.64472 C14.5040405,23.5701897 14.6903661,23.2907013 14.653101,22.9925803 L14.2618172,19.9368403 C14.2431846,19.7691473 14.1500218,19.6387193 14.0195939,19.5455565 C13.889166,19.4523937 13.7214729,19.4151286 13.5724124,19.4337612 C11.7464214,19.7505147 9.82726765,19.9368403 8.42982558,19.9368403 C5.70947167,19.9368403 4.77784361,19.1356402 4.77784361,16.7693049 L4.77784361,8.12379661 C4.77784361,5.75746136 5.70947167,4.95626124 8.42982558,4.95626124 Z" id="Shape"></path>
                        </g>
                        <g class="logo-icon" transform="translate(0.000000, 0.372651)">
                            <path d="M21.1479568,17.6636679 C20.7753056,16.9183654 20.3281241,16.173063 19.8064124,15.409128 C19.4337612,14.8687837 19.0424774,14.3284394 18.6139285,13.8067277 C18.4462354,13.6017696 18.5207657,13.3409137 18.6511936,13.2104858 C18.7816215,13.0800578 18.9120495,12.9496299 19.0424774,12.819202 C20.8312032,10.993211 22.6758268,9.11132235 24.0919014,7.08037319 C25.6011389,4.91899611 26.4396041,2.8694144 26.6445623,0.745302442 C26.6631948,0.54034427 26.570032,0.316753538 26.402339,0.18632561 C26.2905436,0.0931628052 26.1601157,0.0558976831 26.0110552,0.0558976831 C25.936525,0.0558976831 25.8619947,0.0745302442 25.7874645,0.0931628052 C24.408655,0.614874514 23.0298454,1.02479086 21.7441987,1.30427927 C21.4833429,1.36017696 21.2783847,1.56513513 21.1852219,1.78872586 C20.2535938,4.32275416 17.8872586,6.7449871 15.409128,9.2790154 C15.3159652,9.3721782 15.1669047,9.50260613 14.943314,9.50260613 C14.7197232,9.50260613 14.5706627,9.39081076 14.4774999,9.2790154 C11.9993693,6.7449871 9.63303406,4.34138672 8.701406,1.78872586 C8.6082432,1.56513513 8.40328503,1.36017696 8.14242917,1.30427927 C6.87541502,1.0061583 5.47797295,0.577609392 4.09916343,0.0558976831 C4.02463318,0.018632561 3.95010294,0.018632561 3.8755727,0.018632561 C3.74514477,0.018632561 3.59608428,0.0558976831 3.48428891,0.149060488 C3.31659586,0.279488416 3.22343306,0.503079148 3.24206562,0.708037319 C3.44702379,2.81351672 4.28548904,4.90036355 5.79472648,7.06174063 C7.21080112,9.09268979 9.05542466,10.9745785 10.8441505,12.8005694 C14.1421138,16.1544304 17.235119,19.3219658 17.5146074,22.9925803 C17.5332399,23.3279664 17.8127284,23.5888223 18.1481145,23.5888223 L22.0050546,23.5888223 C22.1727476,23.5888223 22.3404407,23.514292 22.4708686,23.3838641 C22.582664,23.2534362 22.6571942,23.0857431 22.6385617,22.9180501 C22.6012965,22.2286453 22.5081337,21.5392406 22.3404407,20.8312032 L22.3404407,20.8312032 L22.3404407,20.7753056 C22.3404407,20.6262451 22.4522361,20.5144497 22.6012965,20.5144497 L22.6385617,20.5144497 L22.6385617,20.5144497 C25.7874645,20.9802637 27.7811485,21.7069336 27.7997811,22.5267663 L27.7997811,22.5267663 C27.7997811,23.2907013 26.0110552,24.4459201 23.0857431,25.3030179 L23.0857431,25.3030179 C22.8248873,25.3775481 22.6385617,25.6197714 22.6385617,25.8806273 C22.6385617,26.2160134 22.9180501,26.4955018 23.2534362,26.4955018 C23.3093339,26.4955018 23.346599,26.4955018 23.3838641,26.4768692 C27.2967019,25.5638737 29.9052605,24.0546363 29.9052605,22.3218081 C29.8866279,20.3094915 26.3837064,18.4835005 21.1479568,17.6636679 Z" id="Shape"></path>
                            <path d="M10.7882528,15.6699838 C10.7137226,15.5954536 10.5460295,15.4836582 10.3410714,15.4836582 C10.061583,15.4836582 9.87525735,15.6699838 9.81935967,15.7631466 C9.39081076,16.3966537 9.0367921,17.0301608 8.72003857,17.6636679 C3.50292148,18.4835005 0,20.3094915 0,22.3404407 C0,24.0546363 2.57129342,25.5825063 6.5027638,26.4955018 L6.5027638,26.4955018 C6.54002892,26.5141344 6.59592661,26.5141344 6.65182429,26.5141344 C6.98721039,26.5141344 7.2666988,26.2346459 7.2666988,25.8992598 C7.2666988,25.6197714 7.08037319,25.3961807 6.81951734,25.3216505 L6.81951734,25.3216505 C3.91283782,24.4831852 2.1054794,23.3279664 2.1054794,22.5453989 L2.1054794,22.5453989 C2.1054794,21.7255662 4.09916343,20.9988963 7.24806624,20.5330823 L7.28533137,20.5330823 C7.43439185,20.5330823 7.54618722,20.6448776 7.54618722,20.7939381 L7.54618722,20.8498358 L7.54618722,20.8498358 C7.37849417,21.5392406 7.28533137,22.2286453 7.24806624,22.9180501 C7.24806624,23.0857431 7.30396393,23.2720687 7.41575929,23.3838641 C7.52755466,23.514292 7.69524771,23.5888223 7.88157332,23.5888223 L11.7198809,23.5888223 C12.055267,23.5888223 12.3347554,23.3279664 12.353388,22.9925803 C12.4465508,21.8559941 12.7819369,20.7380404 13.4340765,19.5455565 C13.6576672,19.1356402 13.4899742,18.7443564 13.3595463,18.5766634 C12.7260392,17.7568307 11.9434716,16.8811003 10.7882528,15.6699838 Z" id="Shape"></path>
                            <path d="M14.4961325,6.13011258 C14.645193,6.27917307 14.812886,6.29780563 14.943314,6.29780563 L14.943314,6.29780563 C15.0551093,6.29780563 15.2414349,6.27917307 15.3904954,6.13011258 C16.7506724,4.80720075 17.4773423,3.26069818 17.6450353,2.83214928 C17.6636679,2.77625159 17.700933,2.70172135 17.700933,2.58992598 C17.700933,2.25453989 17.4214446,1.99368403 17.1233236,1.99368403 C16.8811003,1.99368403 16.173063,2.06821428 14.9619465,2.06821428 L14.9619465,2.06821428 C13.75083,2.06821428 13.0427927,1.99368403 12.8005694,1.99368403 C12.5024485,1.99368403 12.22296,2.23590732 12.22296,2.58992598 C12.22296,2.68308879 12.2415926,2.75761903 12.2788577,2.83214928 C12.3906531,3.26069818 13.1359555,4.80720075 14.4961325,6.13011258 Z" id="Shape"></path>
                        </g>
                    </g>
                </g>
            </g>
        </g>
    </g>
</svg>
