<?xml version="1.0" encoding="UTF-8" standalone="no"?>
<svg viewBox="0 0 145 40" version="1.1" xmlns="http://www.w3.org/2000/svg" xmlns:xlink="http://www.w3.org/1999/xlink">
    <!-- Generator: Sketch 42 (36781) - http://www.bohemiancoding.com/sketch -->
    <title>template</title>
    <desc>Created with Sketch.</desc>
    <defs></defs>
    <g id="Page-1" stroke="none" stroke-width="1" fill="none" fill-rule="evenodd">
        <g id="template" fill-rule="nonzero" fill="currentColor">
            <g id="hipchat_rgb_blue" transform="translate(4.500000, 6.000000)">
                <g id="HipChat" transform="translate(0.500000, 0.000000)">
                    <g id="Group">
                        <g class="logo-type" transform="translate(34.384077, 0.914470)">
                            <path d="M51.9601937,4.68208714 C53.3318989,4.68208714 55.2157074,4.86498117 57.0080689,5.17590102 C57.1543841,5.21247983 57.3189887,5.15761162 57.4470145,5.0661646 C57.5750403,4.97471759 57.6664874,4.82840237 57.6847768,4.68208714 L58.0688542,1.68262507 C58.105433,1.38999462 57.922539,1.11565358 57.6299086,1.04249597 C55.8375471,0.603550296 53.7708445,0.365788058 51.8321678,0.365788058 C46.436794,0.365788058 43.6933835,2.61538462 43.6933835,7.04142012 L43.6933835,17.0274341 C43.6933835,21.4534696 46.436794,23.7030662 51.8321678,23.7030662 C53.7708445,23.7030662 55.8192577,23.4653039 57.6299086,23.0263583 C57.922539,22.9532006 58.105433,22.6788596 58.0688542,22.3862292 L57.6847768,19.3867671 C57.6664874,19.2221625 57.5750403,19.0941366 57.4470145,19.0026896 C57.3189887,18.9112426 57.1543841,18.8746638 57.0080689,18.8929532 C55.2157074,19.2038731 53.3318989,19.3867671 51.9601937,19.3867671 C49.2899408,19.3867671 48.3754707,18.6003228 48.3754707,16.2775686 L48.3754707,7.80957504 C48.3754707,5.46853147 49.2716514,4.68208714 51.9601937,4.68208714" id="Shape"></path>
                            <path d="M16.570199,0.731576116 L13.0403443,0.731576116 C12.7294244,0.731576116 12.4733728,0.987627757 12.4733728,1.31683701 L12.4733728,9.85798817 L4.73695535,9.85798817 L4.73695535,1.31683701 C4.73695535,0.987627757 4.48090371,0.731576116 4.15169446,0.731576116 L0.621839699,0.731576116 C0.310919849,0.731576116 0.0365788058,0.987627757 0.0365788058,1.31683701 L0.0365788058,22.8251748 C0.0365788058,23.1360947 0.292630446,23.4104357 0.621839699,23.4104357 L4.15169446,23.4104357 C4.46261431,23.4104357 4.73695535,23.1543841 4.73695535,22.8251748 L4.73695535,14.0462614 L12.4733728,14.0462614 L12.4733728,22.8251748 C12.4733728,23.1360947 12.7294244,23.4104357 13.0403443,23.4104357 L16.570199,23.4104357 C16.8811189,23.4104357 17.1554599,23.1543841 17.1554599,22.8251748 L17.1554599,1.31683701 C17.1371705,0.987627757 16.8811189,0.731576116 16.570199,0.731576116" id="Shape"></path>
                            <path d="M82.3023131,6.36471221 C80.5831092,6.36471221 78.4798279,6.63905325 76.9618074,7.05970952 C76.669177,7.13286713 76.5045724,7.42549758 76.5411512,7.71812803 L76.943518,10.1871974 C76.9618074,10.3335126 77.0532544,10.4798279 77.1812803,10.5712749 C77.3093061,10.6627219 77.4739107,10.6993007 77.6202259,10.6627219 C79.02851,10.3883808 80.4916622,10.2420656 81.7353416,10.2420656 C84.1861216,10.2420656 84.5884884,10.7541689 84.5884884,12.4185046 L84.5884884,13.8633674 L80.9488973,13.8633674 C77.4556213,13.8633674 75.9741797,15.3082302 75.9741797,18.6734804 C75.9741797,21.8924153 77.6019365,23.739645 80.4550834,23.739645 C82.1011296,23.739645 83.7471759,23.2824099 85.1371705,22.4410974 L85.2834857,22.97149 C85.3566434,23.2275417 85.5761162,23.3921463 85.8321678,23.3921463 L88.5755783,23.3921463 C88.8864981,23.3921463 89.1425498,23.1360947 89.1425498,22.8068854 L89.1425498,12.4550834 C89.1425498,8.01075847 87.2770307,6.36471221 82.3023131,6.36471221 L82.3023131,6.36471221 Z M84.5884884,17.2651963 L84.5884884,19.2770307 C84.0215169,19.5696611 82.9973104,20.0086068 81.7719204,20.0086068 C80.711135,20.0086068 80.3819258,19.6793975 80.3819258,18.6186122 C80.3819258,17.5944056 80.5831092,17.2651963 81.8267886,17.2651963 L84.5884884,17.2651963 Z" id="Shape"></path>
                            <path d="M100.939215,20.0817644 C100.920925,19.9171598 100.829478,19.7708445 100.683163,19.6793975 C100.555137,19.5879505 100.390533,19.5696611 100.225928,19.6062399 C99.6223776,19.7525551 99.0554061,19.8440022 98.5981711,19.8440022 C97.7568585,19.8440022 97.3910705,19.4782141 97.3910705,18.655191 L97.3910705,10.4066703 L100.701452,10.4066703 C101.012372,10.4066703 101.268424,10.1506186 101.268424,9.83969876 L101.268424,7.26089295 C101.268424,6.9499731 101.012372,6.69392146 100.701452,6.69392146 L97.3910705,6.69392146 L97.3910705,2.72512103 C97.3910705,2.56051641 97.3179129,2.39591178 97.189887,2.28617536 C97.0618612,2.17643895 96.8972566,2.12157074 96.732652,2.15814954 L93.330823,2.63367402 C93.0381926,2.67025282 92.8370091,2.90801506 92.8370091,3.20064551 L92.8370091,6.69392146 L90.9897795,6.69392146 C90.6788596,6.69392146 90.422808,6.9499731 90.422808,7.26089295 L90.422808,9.83969876 C90.422808,10.1506186 90.6788596,10.4066703 90.9897795,10.4066703 L92.8370091,10.4066703 L92.8370091,19.1855836 C92.8370091,22.2033351 94.4281872,23.7213556 97.5373857,23.7213556 C98.4335664,23.7213556 99.9332975,23.5201721 100.920925,23.1726735 C101.176977,23.0812265 101.341581,22.8251748 101.305003,22.5508338 L100.939215,20.0817644 Z" id="Shape"></path>
                            <path d="M23.9591178,6.69392146 L20.5572889,6.69392146 C20.246369,6.69392146 19.9903174,6.9499731 19.9903174,7.26089295 L19.9903174,22.8068854 C19.9903174,23.1178053 20.246369,23.3921463 20.5572889,23.3921463 L23.9591178,23.3921463 C24.2700377,23.3921463 24.5443787,23.1360947 24.5443787,22.8068854 L24.5443787,7.26089295 C24.5443787,6.9499731 24.2883271,6.69392146 23.9591178,6.69392146" id="Shape"></path>
                            <path d="M23.9591178,0.0914470145 L20.5572889,0.0914470145 C20.246369,0.0914470145 19.9903174,0.347498655 19.9903174,0.658418505 L19.9903174,4.02366864 C19.9903174,4.33458849 20.246369,4.59064013 20.5572889,4.59064013 L23.9591178,4.59064013 C24.2700377,4.59064013 24.5443787,4.33458849 24.5443787,4.02366864 L24.5443787,0.658418505 C24.5443787,0.347498655 24.2883271,0.0914470145 23.9591178,0.0914470145" id="Shape"></path>
                            <path d="M23.9591178,6.69392146 L20.5572889,6.69392146 C20.246369,6.69392146 19.9903174,6.9499731 19.9903174,7.26089295 L19.9903174,22.8068854 C19.9903174,23.1178053 20.246369,23.3921463 20.5572889,23.3921463 L23.9591178,23.3921463 C24.2700377,23.3921463 24.5443787,23.1360947 24.5443787,22.8068854 L24.5443787,7.26089295 C24.5443787,6.9499731 24.2883271,6.69392146 23.9591178,6.69392146" id="Shape"></path>
                            <path d="M36.1032813,6.36471221 C34.2926304,6.36471221 32.6648736,6.87681549 31.1102743,7.90102205 L30.8725121,7.09628833 C30.7993545,6.85852609 30.5798817,6.69392146 30.32383,6.69392146 L27.6718666,6.69392146 C27.3609467,6.69392146 27.0866057,6.9499731 27.0866057,7.26089295 L27.0866057,29.4093599 C27.0866057,29.7202797 27.3426573,29.9763314 27.6718666,29.9763314 L31.0736955,29.9763314 C31.3846154,29.9763314 31.640667,29.7202797 31.640667,29.4093599 L31.640667,23.3006993 C32.9757934,23.5567509 34.4755245,23.7213556 35.7192039,23.7213556 C39.4319527,23.7213556 41.3340506,21.7095212 41.3340506,17.7590102 L41.3340506,12.2356105 C41.35234,7.37062937 38.4991931,6.36471221 36.1032813,6.36471221 M36.7982786,12.1258741 L36.7982786,17.8504572 C36.7982786,19.2221625 36.3044648,19.7708445 35.0059172,19.7708445 C33.7073696,19.7708445 32.3356643,19.5330823 31.6589564,19.3867671 L31.6589564,11.6320602 C32.4088219,10.9736417 33.7439484,10.2969338 35.042496,10.2969338 C36.3044648,10.3152232 36.7982786,10.8273265 36.7982786,12.1258741" id="Shape"></path>
                            <path d="M70.2495966,6.36471221 C68.5852609,6.36471221 66.3539537,6.9316837 64.5615923,7.77299623 L64.5615923,0.658418505 C64.5615923,0.329209252 64.3055406,0.0731576116 63.9946208,0.0731576116 L60.5927918,0.0731576116 C60.281872,0.0731576116 60.0075309,0.329209252 60.0075309,0.658418505 L60.0075309,22.8251748 C60.0075309,23.1360947 60.2635826,23.3921463 60.5927918,23.3921463 L63.9946208,23.3921463 C64.3055406,23.3921463 64.5615923,23.1360947 64.5615923,22.8251748 L64.5615923,12.0527165 C65.7869822,11.4308768 67.5061861,10.7907477 68.5486821,10.7907477 C69.316837,10.7907477 69.5911781,11.0833782 69.5911781,11.8515331 L69.5911781,22.8434642 C69.5911781,23.1543841 69.8472297,23.4104357 70.1764389,23.4104357 L73.5782679,23.4104357 C73.8891877,23.4104357 74.1452394,23.1543841 74.1452394,22.8434642 L74.1452394,11.4125874 C74.1635288,8.04733728 72.8466918,6.36471221 70.2495966,6.36471221" id="Shape"></path>
                        </g>
                        <g class="logo-icon">
                            <path d="M23.2641205,15.8752017 C23.2641205,15.5642819 23.0080689,15.2716514 22.6605702,15.2716514 C22.514255,15.2716514 22.3862292,15.3265196 22.2582033,15.4179666 C20.7401829,16.7713825 18.1613771,17.9784831 15.0521786,17.9967725 L15.0338892,17.9967725 C11.9246907,17.9967725 9.4190425,16.7348037 7.82786444,15.4179666 C7.71812803,15.3265196 7.535234,15.2716514 7.42549758,15.2716514 C7.05970952,15.2716514 6.84023669,15.5825713 6.84023669,15.9300699 C6.84023669,16.204411 7.02313072,16.4238838 7.18773534,16.661646 C8.08391608,17.9967725 10.8456159,20.2829478 15.0338892,20.2829478 L15.1070468,20.2829478 C19.2770307,20.2829478 22.0570199,17.9967725 22.9532006,16.661646 C23.0629371,16.4421732 23.2641205,16.1495428 23.2641205,15.8752017 Z" id="Shape"></path>
                            <path d="M27.3975256,26.3367402 C26.3367402,25.7331899 25.330823,24.7089833 24.873588,23.3006993 C24.7821409,23.0263583 24.8552985,22.8068854 25.0747714,22.6422808 C28.1473911,20.2646584 30.0860678,16.8079613 30.0860678,12.9671867 C30.0860678,5.79774072 23.3555675,0 15.0521786,0 C6.73050027,0 0,5.81603012 0,12.9854761 C0,20.154922 6.73050027,25.9709521 15.0338892,25.9709521 C16.112964,25.9709521 17.1737493,25.8795051 18.1979559,25.6783217 C18.4540075,25.6234535 18.655191,25.6966111 18.8197956,25.7880581 C20.8864981,27.0500269 23.9408284,28.1108123 26.6293706,28.1108123 C27.4889726,28.1108123 27.8364712,27.5621302 27.8364712,27.0683163 C27.8364712,26.739107 27.6535772,26.4830554 27.3975256,26.3367402 Z M23.3738569,25.0747714 C23.4287251,25.1296396 23.4470145,25.1845078 23.4470145,25.2576654 C23.4470145,25.3491124 23.3555675,25.4039806 23.2641205,25.4039806 C22.514255,25.4039806 20.1915008,24.1603012 18.9661108,23.1178053 C18.8015062,22.97149 18.5637439,22.9166218 18.2345347,22.9897795 C17.2103281,23.2092523 16.1495428,23.3372781 15.0338892,23.3372781 C8.12049489,23.3372781 2.5056482,18.7100592 2.5056482,13.0037655 C2.5056482,7.29747176 8.10220549,2.67025282 15.0338892,2.67025282 C21.9472835,2.67025282 27.5438408,7.29747176 27.5438408,13.0037655 C27.5438408,16.4055944 25.5502959,19.4233459 22.4776762,21.3071544 C22.2764927,21.4351802 22.0570199,21.6729424 22.0570199,21.9655729 C22.0570199,22.5874126 22.6239914,24.0871436 23.3738569,25.0747714 Z" id="Shape"></path>
                        </g>
                    </g>
                </g>
            </g>
        </g>
    </g>
</svg>
