<?xml version="1.0" encoding="UTF-8" standalone="no"?>
<svg viewBox="0 0 90 40" version="1.1" xmlns="http://www.w3.org/2000/svg" xmlns:xlink="http://www.w3.org/1999/xlink">
    <!-- Generator: Sketch 42 (36781) - http://www.bohemiancoding.com/sketch -->
    <title>template</title>
    <desc>Created with Sketch.</desc>
    <defs></defs>
    <g id="Page-1" stroke="none" stroke-width="1" fill="none" fill-rule="evenodd">
        <g id="template" fill-rule="nonzero" fill="currentColor">
            <g id="jira_rgb_blue" transform="translate(9.500000, 4.000000)">
                <g id="JIRA_-_Blue">
                    <g id="Group">
                        <g class="logo-type" transform="translate(23.628571, 8.200000)">
                            <path d="M14.9257143,-1.77635684e-15 L11.6171429,-1.77635684e-15 C11.3257143,-1.77635684e-15 11.0857143,0.24 11.0857143,0.548571429 L11.0857143,20.7085714 C11.0857143,21 11.3257143,21.24 11.6171429,21.24 L14.9257143,21.24 C15.2171429,21.24 15.4571429,21 15.4571429,20.7085714 L15.4571429,0.548571429 C15.4571429,0.24 15.2171429,-1.77635684e-15 14.9257143,-1.77635684e-15 Z" id="Shape"></path>
                            <path d="M36.1657143,20.3485714 L31.5542857,13.6971429 C33.5428571,12.8742857 34.5542857,11.1428571 34.5542857,8.55428571 L34.5542857,5.84571429 C34.5542857,1.8 32.4457143,-1.77635684e-15 27.7142857,-1.77635684e-15 L19.5028571,-1.77635684e-15 C19.2114286,-1.77635684e-15 18.9714286,0.24 18.9714286,0.548571429 L18.9714286,20.7085714 C18.9714286,21 19.2114286,21.24 19.5028571,21.24 L22.8114286,21.24 C23.1028571,21.24 23.3428571,21 23.3428571,20.7085714 L23.3428571,14.3828571 L26.7371429,14.3828571 L31.3485714,21.0171429 C31.4514286,21.1542857 31.6228571,21.2571429 31.7942857,21.2571429 L35.7542857,21.2571429 L35.7542857,21.2571429 C36.0457143,21.2571429 36.2857143,21.0171429 36.2857143,20.7257143 C36.2857143,20.5714286 36.2342857,20.4514286 36.1657143,20.3485714 Z M23.3428571,3.92571429 L27.5428571,3.92571429 C29.72,3.92571429 30.1485714,4.78285714 30.1485714,6.15428571 L30.1485714,8.21142857 C30.1485714,9.92571429 29.4971429,10.5085714 27.5428571,10.5085714 L23.3428571,10.5085714 L23.3428571,3.92571429 Z" id="Shape"></path>
                            <path d="M47.0342857,0.377142857 C46.9657143,0.154285714 46.76,-1.77635684e-15 46.52,-1.77635684e-15 L41.48,-1.77635684e-15 C41.24,-1.77635684e-15 41.0342857,0.154285714 40.9657143,0.377142857 L34.6057143,20.5371429 C34.5542857,20.7085714 34.5885714,20.88 34.6914286,21.0171429 C34.7942857,21.1542857 34.9485714,21.24 35.12,21.24 L38.6,21.24 C38.84,21.24 39.0457143,21.0857143 39.1142857,20.8457143 L43.4857143,6.01714286 C43.4857143,6.01714286 43.6057143,5.64 44,5.64 C44.4114286,5.64 44.4971429,6.01714286 44.4971429,6.01714286 L46.5371429,13.0457143 L43.7428571,13.0457143 C43.5028571,13.0457143 43.2971429,13.2 43.2285714,13.44 L42.44,16.2171429 C42.3885714,16.3714286 42.4228571,16.56 42.5257143,16.6971429 C42.6285714,16.8342857 42.7828571,16.9028571 42.9542857,16.9028571 L47.6685714,16.9028571 L48.8857143,20.8285714 C48.9542857,21.0514286 49.16,21.2057143 49.4,21.2057143 L52.8628571,21.2057143 C53.0342857,21.2057143 53.1885714,21.12 53.2914286,20.9828571 C53.3942857,20.8457143 53.4285714,20.6571429 53.3771429,20.5028571 L47.0342857,0.377142857 Z" id="Shape"></path>
                            <path d="M7.16,-1.77635684e-15 L3.8,-1.77635684e-15 C3.50857143,-1.77635684e-15 3.28571429,0.222857143 3.28571429,0.514285714 L3.28571429,16.2857143 C3.28571429,18.2742857 1.77714286,18.9257143 0.748571429,18.9771429 C0.611428571,18.9771429 0.457142857,19.0628571 0.354285714,19.2 C0.268571429,19.3371429 0.234285714,19.4914286 0.285714286,19.6457143 L1.10857143,22.3028571 C1.17714286,22.5257143 1.41714286,22.6628571 1.79428571,22.6628571 C5,22.6628571 7.67428571,20.1428571 7.67428571,16.7657143 L7.67428571,0.514285714 C7.67428571,0.377142857 7.62285714,0.24 7.52,0.154285714 C7.41714286,0.0514285714 7.29714286,-1.77635684e-15 7.16,-1.77635684e-15 Z" id="Shape"></path>
                        </g>
                        <g class="logo-icon" transform="translate(0.000000, 0.685714)">
                            <path d="M21.48,7.22285714 C21.3771429,7.13714286 21.2571429,7.10285714 21.12,7.10285714 C21.0514286,7.10285714 20.9828571,7.12 20.9142857,7.13714286 C19.6457143,7.61714286 18.3771429,7.99428571 17.1942857,8.25142857 C16.9542857,8.30285714 16.7657143,8.49142857 16.68,8.69714286 C15.8228571,11.0285714 13.6457143,13.2571429 11.3657143,15.5885714 C11.28,15.6742857 11.1428571,15.7942857 10.9371429,15.7942857 C10.7314286,15.7942857 10.5942857,15.6914286 10.5085714,15.5885714 C8.22857143,13.2571429 6.05142857,11.0457143 5.19428571,8.69714286 C5.10857143,8.49142857 4.92,8.30285714 4.68,8.25142857 C3.51428571,7.97714286 2.22857143,7.6 0.96,7.12 C0.891428571,7.08571429 0.822857143,7.08571429 0.754285714,7.08571429 C0.634285714,7.08571429 0.497142857,7.12 0.394285714,7.20571429 C0.24,7.32571429 0.154285714,7.53142857 0.171428571,7.72 C0.36,9.65714286 1.13142857,11.56 2.52,13.5485714 C3.82285714,15.4171429 5.52,17.1485714 7.16571429,18.8285714 C10.1828571,21.9142857 13.0457143,24.8285714 13.3028571,28.2057143 C13.32,28.5142857 13.5771429,28.7542857 13.8857143,28.7542857 L17.4342857,28.7542857 C17.5885714,28.7542857 17.7428571,28.6857143 17.8628571,28.5657143 C17.9657143,28.4457143 18.0342857,28.2914286 18.0171429,28.1371429 C17.8971429,25.8742857 17.0571429,23.6114286 15.4114286,21.2114286 C15.0685714,20.7142857 14.7085714,20.2171429 14.3142857,19.7371429 C14.16,19.5485714 14.2285714,19.3085714 14.3485714,19.1714286 C14.4685714,19.0514286 14.5885714,18.9314286 14.7085714,18.8114286 C16.3542857,17.1314286 18.0514286,15.4 19.3542857,13.5314286 C20.7428571,11.5428571 21.5142857,9.65714286 21.7028571,7.70285714 C21.72,7.54857143 21.6342857,7.34285714 21.48,7.22285714 Z" id="Shape"></path>
                            <path d="M7.11428571,21.4685714 C7.02857143,21.3828571 6.90857143,21.2971429 6.70285714,21.2971429 C6.44571429,21.2971429 6.27428571,21.4857143 6.22285714,21.5714286 C4.73142857,23.8514286 3.96,25.9942857 3.85714286,28.1542857 C3.85714286,28.3085714 3.90857143,28.48 4.01142857,28.5828571 C4.11428571,28.7028571 4.26857143,28.7714286 4.44,28.7714286 L7.98857143,28.7714286 C8.29714286,28.7714286 8.55428571,28.5314286 8.57142857,28.2228571 C8.65714286,27.1771429 8.96571429,26.1485714 9.56571429,25.0514286 C9.77142857,24.6742857 9.61714286,24.3142857 9.49714286,24.16 C8.89714286,23.3885714 8.19428571,22.5828571 7.11428571,21.4685714 Z" id="Shape"></path>
                            <path d="M10.9371429,8.95428571 C12.0514286,8.95428571 12.7028571,8.88571429 12.9257143,8.88571429 C13.2,8.88571429 13.4571429,9.10857143 13.4571429,9.43428571 C13.4571429,9.52 13.44,9.58857143 13.4057143,9.65714286 C13.2514286,10.0514286 12.5828571,11.4742857 11.3314286,12.6914286 C11.1942857,12.8285714 11.0228571,12.8457143 10.92,12.8457143 L10.92,12.8457143 C10.8171429,12.8457143 10.6457143,12.8285714 10.5085714,12.6914286 C9.25714286,11.4742857 8.58857143,10.0514286 8.43428571,9.65714286 C8.41714286,9.60571429 8.38285714,9.53714286 8.38285714,9.43428571 C8.38285714,9.12571429 8.64,8.88571429 8.91428571,8.88571429 C9.17142857,8.88571429 9.82285714,8.95428571 10.9371429,8.95428571 L10.9371429,8.95428571 Z" id="Shape"></path>
                            <path d="M4.81714286,2.01142857 C3.78857143,2.01142857 2.94857143,2.85142857 2.94857143,3.88 C2.94857143,4.90857143 3.78857143,5.74857143 4.81714286,5.74857143 C5.84571429,5.74857143 6.68571429,4.90857143 6.68571429,3.88 C6.66857143,2.85142857 5.84571429,2.01142857 4.81714286,2.01142857 L4.81714286,2.01142857 L4.81714286,2.01142857 Z" id="Shape"></path>
                            <path d="M17.0571429,2.01142857 C16.0285714,2.01142857 15.1885714,2.85142857 15.1885714,3.88 C15.1885714,4.90857143 16.0285714,5.74857143 17.0571429,5.74857143 C18.0857143,5.74857143 18.9257143,4.90857143 18.9257143,3.88 C18.9257143,2.85142857 18.0857143,2.01142857 17.0571429,2.01142857 L17.0571429,2.01142857 L17.0571429,2.01142857 Z" id="Shape"></path>
                            <path d="M10.9371429,0.314285714 C9.90857143,0.314285714 9.06857143,1.15428571 9.06857143,2.18285714 C9.06857143,3.21142857 9.90857143,4.05142857 10.9371429,4.05142857 C11.9657143,4.05142857 12.8057143,3.21142857 12.8057143,2.18285714 C12.8057143,1.13714286 11.9657143,0.314285714 10.9371429,0.314285714 L10.9371429,0.314285714 L10.9371429,0.314285714 Z" id="Shape"></path>
                        </g>
                    </g>
                </g>
            </g>
        </g>
    </g>
</svg>
